<svg id="Layer_1" enable-background="new 0 0 512 512" height="512" viewBox="0 0 512 512" width="512" xmlns="http://www.w3.org/2000/svg"><g clip-rule="evenodd" fill-rule="evenodd"><g><path d="m489.566 452.108-7.998 7.998c-103.612 103.612-261.133-7.804-341.499-88.17-80.365-80.366-191.78-237.886-88.168-341.498l7.998-7.998c16.588-16.587 43.646-16.587 60.233 0l55.377 55.377c16.587 16.588 16.587 43.646 0 60.233l-18.756 18.756c-14.514 14.514-16.701 36.711-5.298 53.778 18.475 27.651 41.272 55.521 67.859 82.107 26.587 26.587 54.457 49.385 82.108 67.859 17.067 11.403 39.264 9.217 53.778-5.297l18.756-18.756c16.588-16.587 43.645-16.587 60.233 0l55.377 55.377c16.588 16.588 16.588 43.647 0 60.234z" fill="#e6e6e6" stroke="#e6e6e6" stroke-miterlimit="22.926" stroke-width=".216"/><path d="m301.423 360.551c-27.651-18.475-55.521-41.273-82.108-67.859-26.587-26.587-49.384-54.456-67.859-82.107-11.403-17.067-9.217-39.265 5.297-53.778l18.756-18.756c.891-.891 1.734-1.812 2.527-2.762l-115.378-115.378c-.948.795-1.869 1.638-2.76 2.529l-7.998 7.998c-103.611 103.611 7.804 261.132 88.17 341.498s237.886 191.782 341.499 88.169l7.998-7.997c.891-.891 1.734-1.812 2.526-2.762l-115.377-115.377c-.948.795-1.869 1.638-2.76 2.529l-18.756 18.756c-14.514 14.513-36.711 16.7-53.777 5.297z" fill="#92d2fe"/></g><path d="m482.488 445.039-7.997 7.997c-42.734 42.734-99.486 50.372-168.683 22.693-71.917-28.765-134.923-87.109-158.674-110.864-23.751-23.749-82.099-86.76-110.863-158.673-27.674-69.197-20.039-125.947 22.694-168.681l7.999-8.001c6.133-6.133 14.317-9.511 23.045-9.511 8.726 0 16.912 3.378 23.046 9.511l55.377 55.377c6.133 6.138 9.511 14.323 9.511 23.051 0 8.723-3.378 16.909-9.511 23.042l-18.755 18.758c-17.97 17.965-20.659 45.272-6.542 66.403 19.398 29.033 42.648 57.17 69.102 83.623 26.453 26.453 54.588 49.702 83.625 69.102 21.129 14.12 48.435 11.431 66.405-6.539l18.755-18.758c12.707-12.705 33.384-12.705 46.09 0l55.377 55.377c6.133 6.133 9.511 14.318 9.511 23.046s-3.379 16.914-9.512 23.047zm14.144-60.237-55.379-55.373c-20.506-20.508-53.871-20.508-74.377 0l-18.755 18.754c-11.135 11.134-28.056 12.804-41.15 4.052-27.949-18.673-55.066-41.087-80.593-66.615-25.529-25.528-47.943-52.646-66.615-80.589-8.748-13.092-7.082-30.02 4.052-41.153l18.755-18.753c9.913-9.912 15.371-23.117 15.371-37.186 0-14.073-5.458-27.278-15.37-37.19l-55.377-55.377c-9.909-9.914-23.115-15.372-37.186-15.372-14.07 0-27.276 5.458-37.187 15.371l-7.998 7.997c-25.996 25.994-40.841 56.919-44.123 91.906-2.814 30.014 2.906 63.1 17 98.342 30.14 75.357 90.666 140.765 115.291 165.392 24.625 24.622 90.032 85.151 165.39 115.289 29.421 11.771 57.341 17.701 83.225 17.701 5.122 0 10.163-.236 15.121-.698 34.989-3.283 65.911-18.126 91.903-44.121l8.001-8.001c20.505-20.504 20.505-53.868.001-74.376z"/></g></svg>