<svg id="Layer_1" enable-background="new 0 0 512 512" height="512" viewBox="0 0 512 512" width="512" xmlns="http://www.w3.org/2000/svg"><g clip-rule="evenodd" fill-rule="evenodd"><g><path d="m124.466 243.492h46.561l33.495-47.885h102.953l33.495 47.885h46.56c30.131 0 48.853 25.242 54.783 54.783l28.447 141.721c5.93 29.542-24.653 54.783-54.783 54.783h-319.958c-30.13 0-60.712-25.241-54.783-54.783l28.447-141.721c5.93-29.541 24.652-54.783 54.783-54.783z" fill="#656565"/><ellipse cx="259.159" cy="369.136" fill="#f2f2f2" rx="59.742" ry="59.741" transform="matrix(.443 -.897 .897 .443 -186.586 437.956)"/><path d="m9.999 171.421v-9.158c0-118.643 153.975-145.04 246-145.04s245.999 26.397 245.999 145.039v9.158c0 18.994-15.492 34.486-34.486 34.485h-63.411c-18.994 0-34.486-15.492-34.486-34.485v-21.477c0-16.619-11.457-30.58-27.757-33.823-26.408-5.253-55.418-8.158-85.861-8.158s-59.453 2.904-85.862 8.158c-16.3 3.243-27.757 17.203-27.757 33.823v21.477c0 18.994-15.491 34.485-34.485 34.485h-63.41c-18.992.002-34.484-15.489-34.484-34.484z" fill="#e6e6e6" stroke="#e6e6e6" stroke-miterlimit="22.926" stroke-width=".216"/><path d="m170.137 116.123c26.408-5.254 55.418-8.158 85.861-8.158 30.444 0 59.452 2.904 85.861 8.158 16.3 3.243 27.757 17.203 27.757 33.823v21.477c0 1.02.044 2.03.135 3.028h132.115c.088-.998.132-2.008.132-3.028v-9.158c0-118.643-153.975-145.039-246-145.04-92.024 0-246 26.397-246 145.04v9.158c0 1.02.045 2.03.135 3.028l132.115.001c.088-.998.132-2.008.132-3.028v-21.477c.001-16.621 11.457-30.582 27.757-33.824z" fill="#92d2fe"/></g><path d="m491.999 171.421c0 6.515-2.547 12.658-7.19 17.295-4.642 4.637-10.78 7.19-17.3 7.19h-63.407c-13.502 0-24.481-10.983-24.481-24.485v-21.475c0-21.499-14.734-39.441-35.813-43.635-27.849-5.539-57.392-8.35-87.807-8.35-30.416 0-59.963 2.812-87.812 8.35-21.084 4.194-35.808 22.136-35.808 43.635v21.475c0 13.502-10.983 24.485-24.485 24.485h-63.412c-6.516 0-12.653-2.552-17.291-7.19-4.638-4.637-7.195-10.78-7.195-17.295v-9.157c0-48.102 27.736-84.378 82.434-107.82 57.317-24.57 126.489-27.222 153.569-27.222s96.248 2.651 153.569 27.222c54.703 23.443 82.429 59.718 82.429 107.82zm-7.799-88.251c-15.762-19.032-38.219-34.879-66.752-47.112-60.727-26.023-133.136-28.835-161.447-28.835-28.316 0-100.725 2.812-161.452 28.835-28.524 12.233-50.986 28.08-66.752 47.112-18.447 22.258-27.798 48.872-27.798 79.094v9.157c0 11.856 4.633 23.023 13.049 31.435 8.417 8.417 19.579 13.049 31.439 13.049h63.407c24.533 0 44.489-19.956 44.489-44.484v-21.475c0-11.832 8.1-21.707 19.706-24.013 26.571-5.289 54.802-7.968 83.911-7.968s57.34 2.68 83.911 7.964c11.596 2.312 19.711 12.186 19.711 24.018v21.475c0 24.528 19.947 44.484 44.479 44.484h63.407c11.86 0 23.032-4.633 31.439-13.049 8.421-8.412 13.05-19.579 13.05-31.435v-9.157c.001-30.223-9.345-56.837-27.797-79.095zm-30.283 383.877c-8.818 10.771-23.716 17.73-37.936 17.73h-319.96c-14.224 0-29.114-6.959-37.94-17.73-4.425-5.397-9.237-14.134-7.039-25.085l28.448-141.722c4.538-22.598 18.734-46.748 44.979-46.748h46.56c3.265 0 6.322-1.595 8.195-4.27l30.505-43.616h92.539l30.51 43.616c1.873 2.675 4.93 4.27 8.19 4.27h46.56c26.25 0 40.441 24.15 44.984 46.748l28.448 141.722c2.199 10.951-2.618 19.688-7.043 25.085zm-1.797-170.741c-3.468-17.3-10.648-32.265-20.758-43.267-11.743-12.785-26.901-19.546-43.833-19.546h-41.347l-30.51-43.621c-1.873-2.67-4.93-4.265-8.19-4.265h-102.957c-3.265 0-6.327 1.595-8.195 4.265l-30.51 43.621h-41.351c-16.927 0-32.086 6.761-43.833 19.546-10.105 11.002-17.281 25.967-20.754 43.267l-28.448 141.722c-2.915 14.531 1.052 29.335 11.176 41.696 12.663 15.451 33.124 25.056 53.41 25.056h319.961c20.277 0 40.747-9.605 53.41-25.056 10.12-12.361 14.087-27.17 11.176-41.696zm-192.958 122.568c27.425 0 49.74-22.31 49.74-49.74s-22.315-49.74-49.74-49.74c-27.429 0-49.744 22.31-49.744 49.74-.001 27.429 22.315 49.74 49.744 49.74zm0-119.478c-38.455 0-69.743 31.284-69.743 69.738s31.288 69.743 69.743 69.743c38.459 0 69.738-31.288 69.738-69.743s-31.279-69.738-69.738-69.738z"/></g></svg>