<svg id="Layer_1" enable-background="new 0 0 512 512" height="512" viewBox="0 0 512 512" width="512" xmlns="http://www.w3.org/2000/svg"><g clip-rule="evenodd" fill-rule="evenodd"><g><path d="m488.84 452.827-7.998 7.998c-103.612 103.612-261.133-7.804-341.499-88.17-80.365-80.366-191.78-237.887-88.169-341.499l7.998-7.998c16.587-16.588 43.646-16.588 60.233 0l55.377 55.377c16.587 16.588 16.587 43.646 0 60.233l-18.756 18.756c-14.514 14.514-16.701 36.711-5.298 53.778 18.475 27.651 41.272 55.521 67.859 82.107 26.587 26.587 54.458 49.385 82.108 67.859 17.067 11.403 39.264 9.217 53.778-5.297l18.756-18.756c16.587-16.587 43.645-16.587 60.233 0l55.377 55.377c16.589 16.589 16.589 43.647.001 60.235z" fill="#e6e6e6" stroke="#e6e6e6" stroke-miterlimit="22.926" stroke-width=".216"/><path d="m300.697 361.269c-27.651-18.474-55.521-41.273-82.108-67.859-26.587-26.587-49.384-54.456-67.859-82.107-11.403-17.067-9.217-39.265 5.297-53.778l18.756-18.756c.891-.891 1.734-1.812 2.527-2.762l-115.378-115.378c-.948.795-1.869 1.638-2.76 2.529l-7.998 7.998c-103.612 103.612 7.803 261.132 88.169 341.498s237.886 191.782 341.499 88.169l7.998-7.997c.891-.891 1.734-1.812 2.526-2.762l-115.376-115.376c-.948.795-1.869 1.638-2.76 2.529l-18.756 18.756c-14.514 14.513-36.711 16.699-53.777 5.296z" fill="#92d2fe"/></g><path d="m491.998 421.992c0-8.728-3.378-16.913-9.506-23.046l-55.382-55.377c-6.129-6.133-14.323-9.511-23.042-9.511-8.728 0-16.918 3.378-23.051 9.511l-18.758 18.758c-17.961 17.97-45.267 20.659-66.398 6.539-29.029-19.395-57.17-42.649-83.623-69.102-26.457-26.453-49.707-54.589-69.106-83.623-14.111-21.131-11.422-48.438 6.539-66.403l18.758-18.758c12.71-12.705 12.71-33.383 0-46.088l-55.378-55.382c-6.133-6.133-14.309-9.511-23.042-9.511-8.732 0-16.908 3.378-23.051 9.511l-7.996 8.001c-42.734 42.734-50.363 99.484-22.693 168.68 28.76 71.918 87.109 134.924 110.859 158.673 23.763 23.754 86.765 82.099 158.683 110.864 69.191 27.679 125.951 20.041 168.68-22.693l8.001-7.997c6.129-6.132 9.506-14.318 9.506-23.046zm4.633 37.186-8.001 8.001c-25.99 25.995-56.911 40.837-91.898 44.121-4.963.462-10.002.698-15.125.698-25.887 0-53.806-5.93-83.226-17.701-75.362-30.137-140.76-90.666-165.392-115.289-24.618-24.627-85.147-90.034-115.289-165.387-14.092-35.246-19.81-68.332-17.003-98.347 3.284-34.987 18.13-65.912 44.121-91.907l8.001-7.997c9.912-9.912 23.122-15.37 37.19-15.37 14.069 0 27.269 5.458 37.19 15.371l55.368 55.377c20.513 20.504 20.513 53.868 0 74.376l-18.749 18.753c-11.139 11.134-12.809 28.061-4.057 41.153 18.678 27.943 41.087 55.061 66.615 80.589 25.533 25.533 52.651 47.947 80.594 66.615 13.097 8.752 30.019 7.081 41.148-4.052l18.758-18.754c9.912-9.912 23.122-15.37 37.19-15.37 14.059 0 27.269 5.458 37.181 15.37l55.382 55.373c9.907 9.912 15.366 23.122 15.366 37.19.002 14.07-5.456 27.279-15.364 37.187zm-227.199-293.272c-5.525 0-10.002-4.482-10.002-10.002 0-5.525 4.477-10.002 10.002-10.002 25.816 0 50.098 10.054 68.347 28.311 18.262 18.263 28.321 42.536 28.321 68.356 0 5.525-4.482 10.002-10.002 10.002-5.529 0-9.997-4.477-9.997-10.002 0-20.48-7.983-39.728-22.461-54.212-14.48-14.478-33.733-22.451-54.208-22.451zm0-137.345c-5.525 0-10.002-4.477-10.002-9.997 0-5.524 4.477-10.002 10.002-10.002 62.506 0 121.266 24.339 165.467 68.54 44.201 44.196 68.54 102.961 68.54 165.467 0 5.525-4.477 10.002-10.002 10.002-5.52 0-9.997-4.477-9.997-10.002 0-57.161-22.263-110.906-62.68-151.323-40.422-40.421-94.172-62.685-151.328-62.685zm-10.002 58.671c0-5.52 4.477-9.997 10.002-9.997 44.159 0 85.68 17.196 116.907 48.423 31.232 31.227 48.428 72.748 48.428 116.912 0 5.525-4.477 10.002-9.997 10.002-5.529 0-10.002-4.477-10.002-10.002 0-38.823-15.121-75.315-42.568-102.768-27.448-27.453-63.95-42.569-102.768-42.569-5.525 0-10.002-4.477-10.002-10.001z"/></g></svg>