<svg id="Layer_1" enable-background="new 0 0 512 512" height="512" viewBox="0 0 512 512" width="512" xmlns="http://www.w3.org/2000/svg"><g clip-rule="evenodd" fill-rule="evenodd"><g><path d="m397.962 466.305c0 19.63-16.064 35.695-35.694 35.695h-212.536c-19.631 0-35.694-16.062-35.694-35.695v-420.611c0-19.632 16.063-35.694 35.694-35.694h212.536c19.632 0 35.694 16.064 35.694 35.694z" fill="#6a676b"/><path d="m381.962 466.305v-420.611c0-10.8-8.895-19.695-19.695-19.695h-212.535c-10.801 0-19.695 8.894-19.695 19.695v420.611c0 10.8 8.894 19.695 19.695 19.695h212.536c10.798 0 19.694-8.897 19.694-19.695z" fill="#92d2fe"/><g fill="#6a676b"><path d="m256 452.411c11.291 0 20.5-9.209 20.5-20.5s-9.209-20.5-20.5-20.5c-11.292 0-20.501 9.209-20.501 20.5s9.209 20.5 20.501 20.5z"/><path d="m197.745 56.157h116.509c4.406 0 8.149-2.719 9.51-6.91l9.503-29.247h-154.535l9.503 29.247c1.361 4.19 5.104 6.91 9.51 6.91z"/></g></g><path d="m256 447.289c-8.62 0-15.621-7.011-15.621-15.63 0-8.615 7.001-15.625 15.621-15.625 8.619 0 15.63 7.011 15.63 15.625 0 8.619-7.011 15.63-15.63 15.63zm0-51.254c-19.64 0-35.62 15.984-35.62 35.624 0 19.645 15.979 35.629 35.62 35.629 19.64 0 35.629-15.984 35.629-35.629 0-19.64-15.989-35.624-35.629-35.624zm131.961 70.271v-420.61c0-14.172-11.521-25.698-25.693-25.698h-17.918l-13.318 40.993c-1.345 4.118-5.18 6.907-9.511 6.907h-131.042c-4.331 0-8.171-2.788-9.511-6.907l-13.318-40.992h-17.923c-14.167 0-25.688 11.525-25.688 25.698v420.61c0 14.168 11.521 25.693 25.688 25.693h212.541c14.172-.001 25.693-11.526 25.693-25.694zm-64.643-446.307-9.068 27.901h-116.501l-9.067-27.901zm38.95-19.999h-212.541c-25.188 0-45.687 20.499-45.687 45.696v420.61c0 25.193 20.499 45.692 45.687 45.692h212.541c25.193 0 45.692-20.499 45.692-45.692v-420.61c0-25.197-20.499-45.696-45.692-45.696z"/></g></svg>