<svg id="Layer_1" enable-background="new 0 0 512 512" height="512" viewBox="0 0 512 512" width="512" xmlns="http://www.w3.org/2000/svg"><g clip-rule="evenodd" fill-rule="evenodd"><g><path d="m255.999 10.002c135.862 0 246 110.138 246 246s-110.138 246-246 246c-44.828 0-86.852-11.995-123.046-32.945l-111.243 29.806c-2.483.665-4.944.006-6.761-1.812s-2.477-4.279-1.812-6.762l29.807-111.243c-20.949-36.194-32.945-78.217-32.945-123.045 0-135.862 110.138-245.999 246-245.999z" fill="#a2e19f"/><path d="m371.695 230.377c14.152 0 25.625 11.472 25.625 25.625 0 14.152-11.473 25.625-25.625 25.625s-25.625-11.472-25.625-25.625c.001-14.153 11.473-25.625 25.625-25.625zm-231.393 0c14.152 0 25.625 11.473 25.625 25.625s-11.473 25.625-25.625 25.625-25.625-11.473-25.625-25.625c0-14.153 11.472-25.625 25.625-25.625zm115.697 0c14.152 0 25.625 11.473 25.625 25.625s-11.473 25.625-25.625 25.625-25.625-11.473-25.625-25.625c0-14.153 11.472-25.625 25.625-25.625z" fill="#f2f2f2"/></g><path d="m371.698 271.627c-8.62 0-15.63-7.011-15.63-15.625 0-8.619 7.011-15.625 15.63-15.625 8.61 0 15.62 7.006 15.62 15.625 0 8.614-7.01 15.625-15.62 15.625zm0-51.25c-19.65 0-35.629 15.979-35.629 35.624 0 19.64 15.979 35.624 35.629 35.624 19.64 0 35.619-15.984 35.619-35.624 0-19.645-15.979-35.624-35.619-35.624zm-115.699 51.25c-8.619 0-15.621-7.011-15.621-15.625 0-8.619 7.001-15.625 15.621-15.625s15.63 7.006 15.63 15.625c0 8.614-7.011 15.625-15.63 15.625zm0-51.25c-19.64 0-35.619 15.979-35.619 35.624 0 19.64 15.979 35.624 35.619 35.624s35.629-15.984 35.629-35.624c-.001-19.645-15.989-35.624-35.629-35.624zm-115.7 51.25c-8.61 0-15.621-7.011-15.621-15.625 0-8.619 7.011-15.625 15.621-15.625 8.62 0 15.63 7.006 15.63 15.625.001 8.614-7.01 15.625-15.63 15.625zm0-51.25c-19.64 0-35.619 15.979-35.619 35.624 0 19.64 15.979 35.624 35.619 35.624 19.65 0 35.629-15.984 35.629-35.624 0-19.645-15.979-35.624-35.629-35.624zm115.7 271.622c130.131 0 236.003-105.867 236.003-235.998s-105.872-236.003-236.003-236.003-235.998 105.872-235.998 236.003c0 41.502 10.926 82.316 31.6 118.034 1.331 2.302 1.689 5.034 1 7.596l-28.463 106.226 106.23-28.462c.849-.227 1.722-.34 2.581-.34 1.75 0 3.482.458 5.01 1.345 35.719 20.673 76.542 31.599 118.04 31.599zm181.021-417.019c-48.352-48.348-112.642-74.98-181.021-74.98s-132.67 26.632-181.017 74.98c-48.353 48.352-74.985 112.642-74.985 181.021 0 43.611 11.134 86.534 32.222 124.417l-31.877 118.993c-.92 3.453.057 7.133 2.585 9.662 1.901 1.896 4.454 2.93 7.072 2.93.859 0 1.731-.113 2.59-.344l118.987-31.883c37.884 21.093 80.802 32.222 124.422 32.222 68.38 0 132.669-26.627 181.022-74.98 48.348-48.348 74.98-112.637 74.98-181.017s-26.632-132.669-74.98-181.021z"/></g></svg>