<svg id="Layer_1" enable-background="new 0 0 512 512" height="512" viewBox="0 0 512 512" width="512" xmlns="http://www.w3.org/2000/svg"><g clip-rule="evenodd" fill-rule="evenodd"><g><path d="m489.551 452.103-7.998 7.998c-103.612 103.612-261.133-7.804-341.499-88.17-80.365-80.366-191.781-237.886-88.169-341.498l7.998-7.998c16.587-16.588 43.646-16.588 60.233 0l55.377 55.377c16.587 16.588 16.587 43.646 0 60.233l-18.756 18.756c-14.514 14.514-16.701 36.711-5.298 53.778 18.475 27.651 41.272 55.521 67.859 82.107 26.587 26.587 54.458 49.385 82.108 67.859 17.067 11.403 39.264 9.217 53.778-5.297l18.756-18.756c16.588-16.587 43.645-16.587 60.233 0l55.377 55.377c16.588 16.588 16.588 43.647.001 60.234z" fill="#e6e6e6" stroke="#e6e6e6" stroke-miterlimit="22.926" stroke-width=".216"/><path d="m301.407 360.546c-27.651-18.475-55.521-41.273-82.108-67.859-26.587-26.587-49.384-54.456-67.859-82.107-11.403-17.067-9.217-39.265 5.297-53.778l18.756-18.756c.891-.891 1.734-1.812 2.527-2.762l-115.377-115.378c-.948.795-1.869 1.638-2.76 2.529l-7.998 7.998c-103.612 103.612 7.803 261.132 88.169 341.498s237.886 191.782 341.499 88.169l7.998-7.997c.891-.891 1.734-1.812 2.526-2.762l-115.376-115.377c-.948.795-1.869 1.638-2.76 2.529l-18.756 18.756c-14.514 14.514-36.711 16.7-53.778 5.297z" fill="#92d2fe"/></g><path d="m511.98 421.992c0 14.069-5.425 27.278-15.333 37.186l-8.02 8.001c-23.117 23.113-50.197 37.454-80.518 42.621-8.563 1.462-17.409 2.189-26.5 2.189-19.15 0-39.408-3.232-60.529-9.672-62.232-18.989-119.483-61.529-156.541-93.87-4.171-3.628-4.6-9.945-.958-14.111 3.628-4.161 9.936-4.59 14.097-.958 57.241 49.943 200.742 155.73 296.796 59.656l8.02-7.997c6.133-6.133 9.483-14.319 9.483-23.046 0-8.728-3.35-16.913-9.483-23.046l-55.387-55.377c-6.128-6.133-14.318-9.511-23.037-9.511-8.733 0-16.923 3.378-23.051 9.511l-18.758 18.758c-17.961 17.97-45.272 20.659-66.403 6.539-17.498-11.695-35.029-25.075-52.08-39.771-4.18-3.604-4.652-9.917-1.038-14.102 3.595-4.185 9.917-4.652 14.097-1.047 16.441 14.163 33.298 27.047 50.131 38.29 13.092 8.752 30.019 7.081 41.148-4.052l18.763-18.754c9.907-9.912 23.117-15.37 37.19-15.37 14.059 0 27.269 5.458 37.181 15.37l55.396 55.378c9.909 9.911 15.334 23.117 15.334 37.185zm-421.222-421.992h-1.491c-13.221.184-26.386 5.306-36.45 15.371l-7.996 7.997c-25.392 25.4-40.163 55.518-43.881 89.524-3.203 29.307 1.816 61.614 14.918 96.016 25.41 66.691 74.574 125.465 105.23 157.862l-107.348 107.344c-3.902 3.906-3.902 10.238 0 14.144 1.958 1.953 4.51 2.925 7.072 2.925 2.557 0 5.119-.972 7.077-2.925l370.361-370.37c3.911-3.902 3.911-10.238 0-14.139-3.902-3.907-10.228-3.907-14.139 0l-169.62 169.619c-20.655-21.91-39.04-44.861-54.731-68.337-8.752-13.092-7.082-30.02 4.057-41.153l18.753-18.753c20.508-20.508 20.508-53.872 0-74.376l-55.373-55.377c-10.063-10.065-23.222-15.185-36.439-15.372zm-56.208 201.789c24.098 63.256 71.121 119.535 100.692 150.832l65.096-65.106c-21.579-22.848-40.799-46.824-57.208-71.375-14.111-21.131-11.422-48.438 6.539-66.403l18.758-18.758c12.714-12.705 12.714-33.383 0-46.093l-55.378-55.376c-12.7-12.705-33.378-12.705-46.088 0l-8.001 8.001c-41.791 41.8-50.014 97.073-24.41 164.278z"/></g></svg>