<svg id="Layer_1" enable-background="new 0 0 512 512" height="512" viewBox="0 0 512 512" width="512" xmlns="http://www.w3.org/2000/svg"><g clip-rule="evenodd" fill-rule="evenodd"><g><path d="m118.872 129.88 171.254-109.986c3.159-2.029 6.902-2.162 10.197-.362s5.206 5.021 5.206 8.776v455.168c0 3.772-1.93 7.008-5.25 8.8-3.319 1.792-7.083 1.63-10.237-.44l-171.17-112.356c-24.782 0-49.563 0-74.344 0-9.502 0-17.276-7.774-17.276-17.276 0-71.682 0-143.365 0-215.048 0-9.502 7.774-17.276 17.276-17.276z" fill="#e6e6e6"/><path d="m27.251 147.156v215.048c0 9.502 7.774 17.276 17.276 17.276h74.345v-249.6c-24.782 0-49.563 0-74.344 0-9.502 0-17.277 7.774-17.277 17.276z" fill="#656565"/></g><path d="m295.537 28.307-166.632 107.032v238.739l166.632 109.396zm-250.986 341.172h64.351v-229.601h-64.351c-4.01 0-7.313 3.265-7.313 7.275v215.051c0 4.01 3.303 7.275 7.313 7.275zm270.99-359.477v491.999c0 3.675-2.029 7.053-5.237 8.799-1.51.802-3.114 1.198-4.765 1.198-1.887 0-3.821-.547-5.473-1.637l-184.182-120.884h-71.333c-15.05 0-27.269-12.234-27.269-27.274v-215.051c0-15.036 12.219-27.274 27.269-27.274h71.38l184.23-118.293c1.615-1.041 3.466-1.572 5.325-1.585h.13c1.627.009 3.256.415 4.735 1.222 3.208 1.755 5.19 5.123 5.19 8.78zm49.82 165.74c-3.916 3.906-3.916 10.238 0 14.144 17.645 17.658 27.363 41.139 27.363 66.11 0 24.981-9.719 48.461-27.363 66.12-3.916 3.902-3.916 10.233 0 14.139 1.934 1.953 4.482 2.93 7.03 2.93 2.595 0 5.142-.977 7.077-2.93 21.466-21.438 33.26-49.938 33.26-80.254 0-30.317-11.794-58.822-33.26-80.259-3.87-3.901-10.239-3.906-14.107 0zm129.361 80.259c0 52.221-20.334 101.314-57.274 138.245-1.934 1.948-4.482 2.925-7.029 2.925-2.595 0-5.143-.977-7.077-2.925-3.916-3.906-3.916-10.238 0-14.144 33.119-33.152 51.377-77.22 51.377-124.101s-18.258-90.954-51.377-124.101c-3.916-3.906-3.916-10.238 0-14.144s10.238-3.906 14.106 0c36.941 36.926 57.274 86.024 57.274 138.245z"/></g></svg>