<svg id="Layer_1" enable-background="new 0 0 512 512" height="512" viewBox="0 0 512 512" width="512" xmlns="http://www.w3.org/2000/svg"><g clip-rule="evenodd" fill-rule="evenodd"><g><path d="m489.564 452.108-7.998 7.998c-103.612 103.612-261.133-7.804-341.499-88.17-80.365-80.366-191.78-237.886-88.168-341.498l7.998-7.998c16.588-16.587 43.646-16.587 60.233 0l55.377 55.377c16.587 16.588 16.587 43.646 0 60.233l-18.756 18.756c-14.514 14.514-16.701 36.711-5.298 53.778 18.475 27.651 41.273 55.521 67.859 82.107 26.587 26.587 54.458 49.385 82.108 67.859 17.067 11.403 39.264 9.217 53.778-5.297l18.756-18.756c16.587-16.587 43.645-16.587 60.233 0l55.377 55.377c16.588 16.588 16.588 43.647 0 60.234z" fill="#e6e6e6" stroke="#e6e6e6" stroke-miterlimit="22.926" stroke-width=".216"/><path d="m301.421 360.551c-27.651-18.475-55.521-41.273-82.108-67.859-26.587-26.587-49.384-54.456-67.859-82.107-11.403-17.067-9.217-39.265 5.297-53.778l18.756-18.756c.891-.891 1.734-1.812 2.527-2.762l-115.378-115.378c-.948.795-1.869 1.638-2.76 2.529l-7.998 7.998c-103.612 103.612 7.803 261.132 88.169 341.498s237.886 191.782 341.499 88.169l7.998-7.997c.891-.891 1.734-1.812 2.526-2.762l-115.376-115.377c-.948.795-1.869 1.638-2.76 2.529l-18.756 18.756c-14.514 14.513-36.711 16.7-53.777 5.297z" fill="#92d2fe"/></g><path d="m284.082 228.78c0 2.652 1.038 5.199 2.925 7.072s4.435 2.93 7.077 2.93h124.738c5.52 0 10.002-4.477 10.002-10.002s-4.482-10.002-10.002-10.002l-100.583.005 180.455-180.465c3.916-3.902 3.916-10.238 0-14.139-3.916-3.906-10.238-3.906-14.153 0l-180.455 180.46v-100.607c0-5.524-4.482-10.002-10.002-10.002s-10.002 4.477-10.002 10.002zm-266.367-15.163c-14.106-35.242-19.814-68.328-17.031-98.343 3.302-34.987 18.164-65.912 44.111-91.907l8.02-7.997c10.111-10.1 23.335-15.221 36.605-15.37h1.191c13.27.148 26.494 5.27 36.604 15.371l55.34 55.377c20.522 20.504 20.522 53.868 0 74.376l-18.73 18.753c-11.134 11.134-12.832 28.061-4.057 41.153 18.682 27.948 41.092 55.061 66.615 80.589 25.523 25.533 52.651 47.947 80.58 66.615 13.116 8.752 30.005 7.081 41.139-4.052l18.777-18.754c9.907-9.912 23.117-15.37 37.176-15.37s27.269 5.458 37.176 15.37l55.387 55.373c20.523 20.508 20.523 53.872 0 74.376l-7.973 8.001c-25.995 25.995-56.944 40.837-91.903 44.121-4.954.462-10.002.698-15.144.698-25.9 0-53.783-5.93-83.222-17.701-75.343-30.137-140.779-90.666-165.406-115.289-24.579-24.626-85.155-90.033-115.255-165.39zm129.41 151.247c-23.731-23.749-82.09-86.76-110.868-158.673-27.647-69.196-20.051-125.946 22.692-168.68l8.02-8.001c6.369-6.35 14.672-9.525 23.023-9.525s16.701 3.175 23.07 9.53l55.387 55.373c12.691 12.71 12.691 33.388 0 46.093l-18.777 18.758c-17.975 17.965-20.664 45.277-6.558 66.403 19.39 29.033 42.649 57.17 69.115 83.623s54.585 49.707 83.647 69.102c21.136 14.12 48.405 11.431 66.379-6.539l18.777-18.758c6.133-6.133 14.295-9.511 23.023-9.511s16.937 3.378 23.07 9.511l55.34 55.377c12.738 12.71 12.738 33.383 0 46.093l-7.973 7.997c-42.743 42.734-99.498 50.372-168.661 22.693-71.946-28.767-134.976-87.111-158.706-110.866z"/></g></svg>