<svg id="Layer_1" enable-background="new 0 0 512 512" height="512" viewBox="0 0 512 512" width="512" xmlns="http://www.w3.org/2000/svg"><g clip-rule="evenodd" fill-rule="evenodd"><g><path d="m255.996 10.002c135.862 0 246 110.138 246 246s-110.138 246-246 246c-44.828 0-86.852-11.995-123.046-32.945l-114.589 30.703c-1.773.475-3.531.004-4.829-1.294s-1.769-3.056-1.294-4.829l30.704-114.59c-20.949-36.195-32.946-78.218-32.946-123.046 0-135.862 110.138-245.999 246-245.999z" fill="#a2e19f"/><path d="m386.543 365.615-4.47 4.47c-57.913 57.913-145.958-4.362-190.879-49.282-44.92-44.92-107.195-132.965-49.282-190.878l4.471-4.47c9.271-9.272 24.396-9.272 33.667 0l30.953 30.953c9.272 9.272 9.271 24.395 0 33.667l-10.483 10.483c-8.112 8.112-9.335 20.52-2.961 30.059 10.326 15.455 23.069 31.033 37.93 45.893 14.86 14.86 30.439 27.603 45.894 37.93 9.539 6.374 21.946 5.151 30.059-2.961l10.483-10.483c9.271-9.271 24.395-9.271 33.667 0l30.953 30.953c9.269 9.271 9.269 24.395-.002 33.666z" fill="#f2f2f2"/></g><path d="m379.484 358.542-4.482 4.473c-22.504 22.518-52.651 26.457-89.544 11.705-39.441-15.771-74.117-47.904-87.185-60.987-13.068-13.082-45.243-47.772-61.001-87.213-14.767-36.884-10.804-67.002 11.7-89.525l4.482-4.468c2.689-2.694 6.227-4.038 9.766-4.038 3.538 0 7.077 1.345 9.766 4.038l30.949 30.954c2.595 2.595 4.01 6.058 4.01 9.761 0 3.699-1.415 7.166-4.01 9.761l-10.473 10.483c-11.559 11.549-13.304 29.104-4.199 42.687 10.992 16.465 24.155 32.416 39.158 47.409 15.003 14.988 30.949 28.17 47.414 39.172 13.587 9.077 31.137 7.346 42.696-4.203l10.474-10.488c2.595-2.595 6.039-4.024 9.766-4.024 3.68 0 7.171 1.43 9.766 4.029l30.949 30.949c2.595 2.595 4.01 6.067 4.01 9.766-.001 3.697-1.417 7.165-4.012 9.759zm-16.795-64.619c-6.416-6.374-14.908-9.884-23.919-9.884-9.058 0-17.55 3.51-23.919 9.884l-10.473 10.483c-4.718 4.718-11.889 5.426-17.456 1.717-15.38-10.276-30.288-22.617-44.347-36.686-14.106-14.068-26.42-29-36.704-44.376-3.68-5.548-2.972-12.719 1.699-17.432l10.521-10.488c6.369-6.369 9.86-14.861 9.86-23.9 0-9.044-3.491-17.536-9.86-23.905l-30.949-30.954c-13.21-13.181-34.629-13.186-47.838 0l-4.482 4.468c-28.26 28.307-33.874 66.724-16.088 111.099 17.126 42.875 51.424 79.967 65.388 93.922 13.965 13.955 51.047 48.268 93.931 65.417 16.984 6.789 33.072 10.162 48.027 10.162 24.249 0 45.574-8.813 63.077-26.297l4.482-4.468c6.369-6.374 9.86-14.866 9.86-23.905 0-9.044-3.491-17.531-9.86-23.905zm-106.669 198.076c130.117 0 235.984-105.867 235.984-235.998s-105.867-236.003-235.984-236.003c-130.164 0-236.031 105.872-236.031 236.003 0 41.502 10.945 82.316 31.609 118.034 1.321 2.302 1.698 5.034.991 7.596l-28.449 106.226 106.245-28.462c.849-.227 1.698-.34 2.548-.34 1.746 0 3.491.458 5.048 1.345 35.714 20.673 76.522 31.599 118.039 31.599zm180.974-417.019c-48.31-48.348-112.613-74.98-180.974-74.98-68.408 0-132.711 26.632-181.022 74.98-48.357 48.352-75.012 112.642-75.012 181.021 0 43.611 11.134 86.534 32.222 124.417l-31.892 118.993c-.897 3.453.094 7.133 2.595 9.662 1.934 1.896 4.482 2.93 7.076 2.93.849 0 1.746-.113 2.595-.344l118.983-31.883c37.884 21.093 80.816 32.222 124.455 32.222 68.361 0 132.664-26.627 180.974-74.98 48.357-48.348 75.013-112.637 75.013-181.017s-26.655-132.669-75.013-181.021z"/></g></svg>