<svg id="Layer_1" enable-background="new 0 0 512 512" height="512" viewBox="0 0 512 512" width="512" xmlns="http://www.w3.org/2000/svg"><g clip-rule="evenodd" fill-rule="evenodd"><g><path d="m489.566 452.11-7.998 7.998c-103.612 103.612-261.133-7.804-341.499-88.17-80.365-80.366-191.78-237.886-88.168-341.498l7.998-7.998c16.588-16.587 43.646-16.587 60.233 0l55.377 55.377c16.587 16.588 16.587 43.646 0 60.233l-18.756 18.756c-14.514 14.514-16.701 36.711-5.298 53.778 18.475 27.65 41.272 55.521 67.859 82.107 26.587 26.587 54.457 49.385 82.108 67.859 17.067 11.403 39.264 9.217 53.778-5.297l18.756-18.756c16.588-16.587 43.645-16.587 60.233 0l55.377 55.377c16.588 16.588 16.588 43.646 0 60.234z" fill="#e6e6e6" stroke="#e6e6e6" stroke-miterlimit="22.926" stroke-width=".216"/><path d="m301.423 360.552c-27.651-18.474-55.521-41.273-82.108-67.859-26.587-26.587-49.384-54.456-67.859-82.107-11.403-17.067-9.217-39.265 5.297-53.778l18.756-18.756c.891-.891 1.734-1.812 2.527-2.762l-115.378-115.377c-.948.795-1.869 1.638-2.76 2.529l-7.998 7.998c-103.612 103.612 7.803 261.132 88.169 341.498s237.886 191.782 341.499 88.169l7.998-7.997c.891-.891 1.734-1.812 2.526-2.762l-115.376-115.377c-.948.795-1.869 1.638-2.76 2.529l-18.756 18.755c-14.514 14.514-36.711 16.701-53.777 5.297z" fill="#92d2fe"/></g><path d="m492 421.991c0-8.733-3.378-16.913-9.511-23.042l-55.377-55.377c-12.707-12.715-33.384-12.715-46.09 0l-18.755 18.748c-17.97 17.97-45.276 20.659-66.405 6.548-29.037-19.409-57.172-42.649-83.625-69.106-26.455-26.453-49.704-54.59-69.102-83.623-14.117-21.126-11.428-48.438 6.542-66.403l18.755-18.758c6.133-6.133 9.511-14.319 9.511-23.047s-3.378-16.908-9.511-23.046l-55.377-55.378c-6.133-6.133-14.32-9.511-23.046-9.511-8.728 0-16.912 3.378-23.045 9.511l-7.999 8.002c-42.733 42.734-50.368 99.484-22.693 168.68 28.764 71.918 87.112 134.919 110.863 158.669 23.751 23.763 86.758 82.099 158.674 110.873 69.197 27.67 125.949 20.041 168.683-22.702l7.997-7.987c6.132-6.142 9.511-14.323 9.511-23.051zm4.632 37.191-8.001 7.997c-25.992 25.99-56.914 40.842-91.903 44.121-4.958.462-9.999.703-15.121.703-25.883 0-53.803-5.93-83.225-17.701-75.358-30.137-140.765-90.671-165.39-115.288-24.625-24.632-85.151-90.039-115.291-165.396-14.094-35.242-19.815-68.328-17-98.342 3.282-34.987 18.127-65.912 44.122-91.907l7.998-7.997c9.911-9.914 23.117-15.372 37.187-15.372 14.071 0 27.277 5.458 37.188 15.37l55.377 55.378c9.911 9.912 15.37 23.117 15.37 37.185 0 14.073-5.458 27.278-15.371 37.191l-18.755 18.753c-11.135 11.134-12.8 28.061-4.052 41.153 18.672 27.944 41.085 55.061 66.615 80.589 25.527 25.533 52.644 47.942 80.593 66.62 13.094 8.751 30.015 7.081 41.15-4.057l18.755-18.753c20.506-20.508 53.871-20.508 74.377 0l55.379 55.373c20.502 20.507 20.502 53.867-.002 74.38zm-172.015-197.685-54.68-54.679c-1.876-1.878-2.93-4.421-2.93-7.072 0-2.652 1.054-5.199 2.93-7.072l54.68-54.679c3.905-3.906 10.238-3.906 14.142 0 3.905 3.906 3.905 10.238 0 14.144l-37.61 37.605h149.023c5.523 0 10.001 4.477 10.001 10.002 0 5.52-4.478 10.002-10.001 10.002h-149.022l37.61 37.605c3.905 3.906 3.905 10.238 0 14.144-1.952 1.953-4.513 2.93-7.071 2.93-2.56 0-5.118-.977-7.072-2.93zm-57.61-184.819c0-5.52 4.476-9.997 10-9.997h149.025l-37.609-37.61c-3.905-3.902-3.905-10.233 0-14.139 3.907-3.906 10.237-3.906 14.144-.005l54.678 54.684c1.876 1.873 2.93 4.416 2.93 7.067 0 2.656-1.054 5.199-2.93 7.072l-54.678 54.684c-1.954 1.949-4.513 2.93-7.071 2.93-2.56 0-5.12-.981-7.073-2.93-3.905-3.906-3.905-10.238 0-14.144l37.609-37.61h-149.026c-5.523-.001-9.999-4.478-9.999-10.002z"/></g></svg>