<svg id="Layer_1" enable-background="new 0 0 512 512" height="512" viewBox="0 0 512 512" width="512" xmlns="http://www.w3.org/2000/svg"><g clip-rule="evenodd" fill-rule="evenodd"><g><path d="m297.302 466.306c0 19.63-16.064 35.695-35.694 35.695h-212.536c-19.631 0-35.694-16.062-35.694-35.695v-420.611c0-19.632 16.063-35.694 35.694-35.694h212.536c19.632 0 35.694 16.064 35.694 35.694z" fill="#6a676b"/><path d="m281.303 466.306v-420.611c0-10.8-8.895-19.695-19.695-19.695h-212.536c-10.8 0-19.694 8.894-19.694 19.695v420.611c0 10.8 8.894 19.695 19.694 19.695h212.536c10.799 0 19.695-8.896 19.695-19.695z" fill="#92d2fe"/><g fill="#6a676b"><path d="m155.34 452.413c11.291 0 20.5-9.209 20.5-20.5s-9.209-20.5-20.5-20.5-20.5 9.209-20.5 20.5 9.209 20.5 20.5 20.5z"/><path d="m97.086 56.158h116.509c4.406 0 8.149-2.719 9.51-6.91l9.503-29.247h-154.536l9.503 29.247c1.362 4.191 5.104 6.91 9.511 6.91z"/></g></g><path d="m170.963 431.658c0-8.61-7.011-15.616-15.625-15.616-8.615 0-15.625 7.006-15.625 15.616 0 8.624 7.011 15.63 15.625 15.63s15.625-7.006 15.625-15.63zm19.998 0c0 19.64-15.984 35.633-35.624 35.633-19.645 0-35.624-15.993-35.624-35.633 0-19.635 15.979-35.619 35.624-35.619 19.641 0 35.624 15.984 35.624 35.619zm96.338-385.962v420.605c0 14.172-11.526 25.698-25.693 25.698h-212.537c-14.168 0-25.693-11.525-25.693-25.698v-420.605c0-14.168 11.526-25.698 25.693-25.698h17.918l13.318 40.993c1.34 4.119 5.18 6.907 9.511 6.907h131.042c4.331 0 8.171-2.788 9.511-6.907l13.313-40.993h17.923c14.168 0 25.694 11.53 25.694 25.698zm-199.28-25.698 9.063 27.901h116.506l9.068-27.901zm219.278 25.698v420.605c0 25.198-20.499 45.701-45.692 45.701h-212.536c-25.198 0-45.692-20.504-45.692-45.701v-420.605c0-25.198 20.495-45.696 45.692-45.696h212.536c25.194 0 45.692 20.498 45.692 45.696zm91.724 100.602c-3.902-3.906-10.233-3.906-14.144 0-3.897 3.906-3.897 10.238 0 14.144 25.533 25.523 39.582 59.458 39.582 95.559 0 36.1-14.05 70.031-39.582 95.559-3.897 3.902-3.897 10.242 0 14.139 1.953 1.953 4.515 2.93 7.072 2.93 2.562 0 5.119-.977 7.072-2.93 29.312-29.297 45.437-68.257 45.437-109.698s-16.126-80.401-45.437-109.703zm-59.511 45.371c-3.902 3.906-3.902 10.233 0 14.144 13.408 13.403 20.791 31.227 20.791 50.188 0 18.956-7.383 36.78-20.791 50.192-3.902 3.897-3.902 10.238 0 14.139 1.948 1.948 4.51 2.925 7.067 2.925 2.562 0 5.124-.977 7.072-2.925 17.192-17.182 26.651-40.031 26.651-64.332s-9.459-47.15-26.651-64.332c-3.901-3.905-10.227-3.905-14.139.001zm169.119 64.332c0 58.581-22.82 113.651-64.237 155.069-1.953 1.953-4.51 2.93-7.072 2.93s-5.119-.977-7.072-2.93c-3.897-3.911-3.897-10.238 0-14.139 37.643-37.648 58.383-87.689 58.383-140.93 0-53.236-20.739-103.287-58.383-140.93-3.897-3.906-3.897-10.238 0-14.144 3.911-3.902 10.242-3.902 14.144 0 41.417 41.422 64.237 96.493 64.237 155.074z"/></g></svg>