<svg id="Layer_1" enable-background="new 0 0 512 512" height="512" viewBox="0 0 512 512" width="512" xmlns="http://www.w3.org/2000/svg"><g clip-rule="evenodd" fill-rule="evenodd"><g><path d="m489.559 452.11-7.998 7.998c-103.612 103.612-261.133-7.804-341.499-88.17-80.365-80.366-191.78-237.886-88.168-341.498l7.998-7.998c16.587-16.587 43.646-16.587 60.233 0l55.377 55.377c16.587 16.588 16.587 43.646 0 60.233l-18.756 18.756c-14.514 14.514-16.701 36.711-5.298 53.778 18.475 27.65 41.273 55.521 67.859 82.107 26.587 26.587 54.458 49.385 82.108 67.859 17.067 11.403 39.264 9.217 53.778-5.297l18.756-18.756c16.587-16.587 43.645-16.587 60.233 0l55.377 55.377c16.588 16.588 16.588 43.646 0 60.234z" fill="#e6e6e6" stroke="#e6e6e6" stroke-miterlimit="22.926" stroke-width=".216"/><path d="m301.416 360.552c-27.65-18.474-55.521-41.273-82.108-67.859-26.587-26.587-49.384-54.456-67.859-82.107-11.403-17.067-9.217-39.265 5.297-53.778l18.756-18.756c.891-.891 1.734-1.812 2.527-2.762l-115.378-115.377c-.948.795-1.869 1.638-2.76 2.529l-7.998 7.998c-103.612 103.612 7.803 261.132 88.169 341.498s237.886 191.782 341.499 88.169l7.998-7.997c.891-.891 1.734-1.812 2.526-2.762l-115.376-115.377c-.948.795-1.869 1.638-2.76 2.529l-18.756 18.756c-14.514 14.513-36.71 16.7-53.777 5.296z" fill="#92d2fe"/></g><path d="m482.492 398.95-55.382-55.377c-6.129-6.143-14.323-9.511-23.042-9.511-8.728 0-16.918 3.368-23.051 9.511l-18.758 18.748c-17.961 17.97-45.267 20.659-66.398 6.548-29.043-19.4-57.17-42.649-83.623-69.106-26.457-26.453-49.707-54.59-69.106-83.623-14.111-21.126-11.422-48.433 6.539-66.403l18.758-18.758c12.71-12.71 12.71-33.383 0-46.088l-55.378-55.377c-6.133-6.138-14.309-9.516-23.042-9.516-8.732 0-16.908 3.378-23.051 9.511l-7.987 8.002c-42.743 42.734-50.372 99.484-22.702 168.68 28.76 71.918 87.109 134.919 110.859 158.669 23.763 23.763 86.765 82.099 158.683 110.873 69.191 27.67 125.951 20.041 168.68-22.702l8.001-7.987c12.705-12.711 12.705-33.394 0-46.094zm29.505 23.041c0 14.068-5.458 27.278-15.366 37.19l-8.001 7.997c-25.99 25.99-56.911 40.842-91.898 44.121-4.963.462-10.002.703-15.125.703-25.887 0-53.806-5.93-83.226-17.701-75.362-30.137-140.76-90.671-165.392-115.288-24.618-24.632-85.147-90.039-115.289-165.392-14.092-35.247-19.81-68.333-17.003-98.347 3.284-34.987 18.13-65.912 44.121-91.907l8.001-7.997c9.912-9.912 23.122-15.37 37.19-15.37 14.069 0 27.269 5.458 37.19 15.37l55.368 55.378c9.912 9.912 15.37 23.117 15.37 37.185 0 14.073-5.458 27.278-15.37 37.191l-18.749 18.753c-11.139 11.139-12.809 28.061-4.057 41.153 18.678 27.948 41.087 55.061 66.615 80.589 25.533 25.533 52.641 47.942 80.594 66.62 13.097 8.751 30.019 7.081 41.148-4.057l18.758-18.753c9.912-9.907 23.122-15.371 37.19-15.371 14.059 0 27.269 5.463 37.181 15.371l55.382 55.373c9.91 9.907 15.368 23.116 15.368 37.189zm-224.987-186.14c-3.911-3.906-3.911-10.238 0-14.144l180.46-180.46h-100.602c-5.529 0-9.997-4.477-9.997-10.002 0-5.52 4.468-9.997 9.997-9.997h124.738c2.665 0 5.203 1.052 7.081 2.93 1.873 1.873 2.921 4.416 2.921 7.067v124.753c0 5.52-4.468 10.002-10.002 10.002-5.515 0-9.997-4.482-9.997-10.002v-100.607l-180.46 180.46c-1.953 1.953-4.51 2.93-7.072 2.93-2.556 0-5.118-.977-7.067-2.93z"/></g></svg>