<svg id="Layer_1" enable-background="new 0 0 512 512" height="512" viewBox="0 0 512 512" width="512" xmlns="http://www.w3.org/2000/svg"><g clip-rule="evenodd" fill-rule="evenodd"><g><g><path d="m428.736 10.001h-345.477c-11.015 0-20 8.984-20 20v452c0 11.016 8.984 20 20 20h345.477c11.015 0 20-8.984 20-20v-452c0-11.016-8.985-20-20-20z" fill="#f2f2f2"/><path d="m125.191 502.001v-492h-41.932c-11.015 0-20 8.984-20 20v452c0 11.016 8.984 20 20 20z" fill="#a2e19f"/></g><g><path d="m381.906 271.043-3.251 3.251c-42.119 42.119-106.151-3.172-138.821-35.841-32.669-32.669-77.96-96.702-35.841-138.82l3.251-3.251c6.743-6.743 17.742-6.743 24.485 0l22.511 22.511c6.743 6.743 6.743 17.742 0 24.485l-7.624 7.624c-5.9 5.9-6.789 14.923-2.153 21.861 7.51 11.24 16.777 22.569 27.585 33.377s22.137 20.075 33.377 27.585c6.938 4.635 15.961 3.747 21.861-2.154l7.624-7.624c6.743-6.743 17.742-6.743 24.485 0l22.511 22.511c6.743 6.742 6.743 17.742 0 24.485z" fill="#e6e6e6" stroke="#e6e6e6" stroke-miterlimit="22.926" stroke-width=".216"/><path d="m305.425 233.824c-11.24-7.51-22.57-16.778-33.377-27.585-10.808-10.808-20.075-22.137-27.585-33.377-4.636-6.938-3.747-15.961 2.153-21.861l7.624-7.624c.362-.362.705-.736 1.027-1.123l-46.901-46.901c-.385.323-.76.666-1.122 1.028l-3.251 3.251c-42.119 42.119 3.172 106.151 35.841 138.82s96.702 77.96 138.821 35.841l3.251-3.251c.362-.362.705-.736 1.027-1.123l-46.901-46.901c-.385.323-.76.666-1.122 1.028l-7.624 7.624c-5.9 5.901-14.923 6.79-21.861 2.154z" fill="#a2e19f"/></g></g><path d="m211.068 106.702 3.251-3.25c1.373-1.373 3.213-2.128 5.171-2.128 1.963 0 3.802.755 5.171 2.128l22.508 22.513c1.373 1.373 2.133 3.208 2.133 5.171s-.76 3.798-2.133 5.171l-7.619 7.624c-9.332 9.332-10.728 23.513-3.402 34.487 8.101 12.125 17.801 23.863 28.831 34.893 11.03 11.026 22.773 20.725 34.893 28.831 10.978 7.327 25.16 5.93 34.492-3.397l7.614-7.624c2.854-2.854 7.501-2.854 10.356-.005l22.509 22.513c1.368 1.373 2.128 3.208 2.128 5.171s-.76 3.798-2.128 5.171l-3.251 3.251c-15.762 15.753-36.091 18.343-62.171 7.911-28.222-11.285-53.122-34.355-62.511-43.753-9.398-9.393-32.468-34.294-43.748-62.506-10.433-26.081-7.852-46.415 7.906-62.172zm21.701 138.821c12.752 12.752 38.709 35.978 69.219 48.178 12.71 5.081 24.773 7.61 36.02 7.61 18.301 0 34.459-6.69 47.72-19.947l3.251-3.251c5.147-5.152 7.987-12.007 7.987-19.315 0-7.303-2.84-14.163-7.987-19.315l-22.513-22.508c-10.648-10.648-27.977-10.648-38.625 0l-7.624 7.624c-2.538 2.538-6.251 2.906-9.237.91-11.044-7.379-21.763-16.238-31.859-26.344-10.101-10.101-18.975-20.825-26.344-31.859-1.986-2.986-1.628-6.694.91-9.237l7.624-7.624c5.147-5.147 7.987-12.007 7.987-19.31 0-7.308-2.84-14.168-7.987-19.315l-22.513-22.513c-5.147-5.147-12.012-7.987-19.31-7.987s-14.158 2.84-19.31 7.987l-3.25 3.251c-21.419 21.419-25.688 50.376-12.342 83.741 12.201 30.514 35.422 56.467 48.183 69.224zm164.198 175.157c0 5.52-4.477 10.002-9.997 10.002h-200.001c-5.529 0-10.002-4.482-10.002-10.002 0-5.529 4.472-9.997 10.002-9.997h200.001c5.52 0 9.997 4.468 9.997 9.997zm-220-57.751c0-5.529 4.472-9.997 10.002-9.997h200.001c5.52 0 9.997 4.468 9.997 9.997 0 5.52-4.477 10.002-9.997 10.002h-200.001c-5.529 0-10.002-4.482-10.002-10.002zm261.772 129.07v-472h-303.548v472zm-365.478-472.001h41.927v472h-41.927zm375.479-19.998h-385.481c-5.52 0-10.002 4.477-10.002 10.002v491.998c0 5.52 4.482 10.002 10.002 10.002h385.481c5.52 0 9.997-4.482 9.997-10.002v-491.999c0-5.524-4.477-10.001-9.997-10.001z"/></g></svg>