<svg id="Layer_1" enable-background="new 0 0 512 512" height="512" viewBox="0 0 512 512" width="512" xmlns="http://www.w3.org/2000/svg"><g clip-rule="evenodd" fill-rule="evenodd"><g><g><path d="m458.079 455.384-7.472 7.472c-96.81 96.81-243.989-7.291-319.079-82.381s-179.19-222.269-82.381-319.078l7.473-7.473c15.499-15.499 40.78-15.499 56.279 0l51.742 51.742c15.498 15.498 15.498 40.78 0 56.278l-17.524 17.524c-13.561 13.561-15.604 34.301-4.95 50.248 17.262 25.835 38.563 51.876 63.404 76.717s50.882 46.143 76.718 63.405c15.946 10.655 36.686 8.611 50.247-4.95l17.524-17.524c15.499-15.499 40.78-15.499 56.279 0l51.742 51.742c15.497 15.498 15.497 40.78-.002 56.278z" fill="#e6e6e6" stroke="#e6e6e6" stroke-miterlimit="22.926" stroke-width=".216"/><path d="m282.288 369.838c-25.835-17.261-51.876-38.563-76.717-63.404-24.842-24.841-46.142-50.881-63.404-76.717-10.655-15.947-8.612-36.687 4.95-50.247l17.524-17.525c.832-.832 1.62-1.693 2.361-2.581l-107.804-107.803c-.886.743-1.746 1.531-2.579 2.363l-7.473 7.473c-96.81 96.809 7.291 243.988 82.381 319.078s222.269 179.191 319.079 82.381l7.473-7.472c.832-.832 1.62-1.693 2.361-2.581l-107.802-107.802c-.886.743-1.746 1.531-2.579 2.363l-17.525 17.524c-13.56 13.561-34.3 15.604-50.246 4.95z" fill="#92d2fe"/></g><g><ellipse cx="373.205" cy="138.799" fill="#f2f2f2" rx="128.797" ry="128.797" transform="matrix(.707 -.707 .707 .707 11.164 304.549)"/><path d="m393.058 76.407h-39.921c-2.754 0-5 2.246-5 5v32.54h-32.54c-2.754 0-5 2.246-5 5v39.921c0 2.754 2.246 5 5 5h32.54v32.54c0 2.754 2.246 5 5 5h39.921c2.754 0 5-2.246 5-5v-32.54h32.54c2.754 0 5-2.246 5-5v-39.921c0-2.754-2.246-5-5-5h-32.54v-32.54c0-2.755-2.246-5-5-5z" fill="#eb745e"/></g></g><path d="m373.198 19.998c65.512 0 118.799 53.297 118.799 118.799 0 65.506-53.287 118.799-118.799 118.799-65.501 0-118.789-53.292-118.789-118.799 0-65.502 53.288-118.799 118.789-118.799zm0 257.596c76.542 0 138.802-62.265 138.802-138.797s-62.26-138.797-138.802-138.797c-76.531 0-138.788 62.265-138.788 138.797s62.257 138.797 138.788 138.797zm-52.598-153.649v29.92h27.528c5.529 0 10.002 4.477 10.002 10.001v27.538h29.93v-27.538c0-5.524 4.468-10.001 9.997-10.001h27.533v-29.92h-27.533c-5.529 0-9.997-4.477-9.997-10.002v-27.537h-29.93v27.538c0 5.524-4.473 10.002-10.002 10.002h-27.528zm-10.002 49.919h27.528v27.542c0 5.52 4.482 9.997 10.002 9.997h49.928c5.52 0 10.002-4.477 10.002-9.997v-27.542h27.533c5.529 0 9.997-4.477 9.997-9.997v-49.923c0-5.52-4.468-10.002-9.997-10.002h-27.533v-27.538c0-5.52-4.482-9.997-10.002-9.997h-49.928c-5.52 0-10.002 4.477-10.002 9.997v27.538h-27.528c-5.529 0-9.997 4.482-9.997 10.002v49.923c0 5.52 4.468 9.997 9.997 9.997zm140.411 274.448c5.6-5.609 8.69-13.092 8.69-21.07 0-7.982-3.09-15.46-8.69-21.06l-51.74-51.749c-11.62-11.61-30.519-11.61-42.139 0l-17.531 17.527c-17.007 17.012-42.861 19.56-62.869 6.19-27.16-18.149-53.481-39.898-78.23-64.648-24.75-24.749-46.499-51.065-64.648-78.23-13.37-20.008-10.823-45.862 6.19-62.874l17.527-17.527c11.611-11.615 11.611-30.52 0-42.135l-51.749-51.745c-5.6-5.605-13.087-8.69-21.06-8.69-7.978 0-15.47 3.085-21.07 8.69l-7.478 7.473c-39.721 39.729-46.812 92.516-21.052 156.9 26.83 67.087 81.268 125.875 103.437 148.04 22.164 22.169 80.953 76.607 148.03 103.437 64.393 25.75 117.18 18.668 156.899-21.06zm14.139-56.283-51.74-51.74c-19.418-19.409-51.009-19.409-70.418 0l-17.531 17.531c-10.181 10.181-25.651 11.7-37.62 3.699-26.07-17.418-51.381-38.327-75.201-62.157-23.83-23.825-44.739-49.126-62.157-75.202-8.001-11.969-6.482-27.443 3.699-37.624l17.531-17.522c19.409-19.414 19.409-51.004 0-70.422l-51.74-51.74c-9.393-9.388-21.89-14.554-35.214-14.554-13.328 0-25.83 5.166-35.218 14.554l-7.473 7.468c-24.395 24.405-38.327 53.429-41.408 86.279-2.637 28.146 2.722 59.166 15.932 92.195 28.198 70.526 84.83 131.716 107.858 154.758 23.042 23.027 84.231 79.66 154.762 107.858 27.566 11.03 53.726 16.593 77.999 16.593 4.808 0 9.539-.222 14.191-.661 32.85-3.081 61.879-17.012 86.279-41.413l7.468-7.478c9.379-9.379 14.55-21.891 14.55-35.209.001-13.323-5.17-25.82-14.549-35.213z"/></g></svg>