<svg id="Layer_1" enable-background="new 0 0 512 512" height="512" viewBox="0 0 512 512" width="512" xmlns="http://www.w3.org/2000/svg"><g clip-rule="evenodd" fill-rule="evenodd"><g><path d="m300.865 466.306c0 19.63-16.064 35.695-35.694 35.695h-212.536c-19.631 0-35.694-16.062-35.694-35.695v-420.611c0-19.632 16.063-35.694 35.694-35.694h212.536c19.632 0 35.694 16.064 35.694 35.694z" fill="#6a676b"/><path d="m284.866 466.306v-420.611c0-10.8-8.895-19.695-19.695-19.695h-212.536c-10.801 0-19.695 8.894-19.695 19.695v420.611c0 10.8 8.894 19.695 19.695 19.695h212.536c10.799 0 19.695-8.896 19.695-19.695z" fill="#92d2fe"/><g fill="#6a676b"><path d="m158.903 452.413c11.291 0 20.5-9.209 20.5-20.5s-9.209-20.5-20.5-20.5c-11.292 0-20.501 9.209-20.501 20.5s9.21 20.5 20.501 20.5z"/><path d="m100.648 56.158h116.509c4.406 0 8.149-2.719 9.51-6.91l9.503-29.247h-154.535l9.503 29.247c1.362 4.191 5.104 6.91 9.51 6.91z"/></g></g><path d="m502.13 263.073-61.01 61.006c-1.949 1.953-4.51 2.93-7.072 2.93s-5.119-.977-7.067-2.93c-3.911-3.906-3.911-10.238 0-14.139l53.929-53.938-53.929-53.939c-3.911-3.906-3.911-10.238 0-14.144 3.897-3.907 10.228-3.902 14.139 0l61.01 61.01c3.897 3.906 3.897 10.237 0 14.144zm-88.42-14.144c3.902 3.906 3.902 10.238 0 14.144l-61.01 61.006c-1.948 1.953-4.51 2.93-7.072 2.93-2.557 0-5.119-.977-7.067-2.93-3.911-3.906-3.911-10.238 0-14.139l53.929-53.938-53.929-53.939c-3.911-3.906-3.911-10.238 0-14.144 3.897-3.907 10.228-3.902 14.139 0zm-254.803 198.359c-8.62 0-15.625-7.006-15.625-15.63 0-8.61 7.006-15.616 15.625-15.616 8.61 0 15.621 7.006 15.621 15.616-.001 8.624-7.012 15.63-15.621 15.63zm0-51.249c-19.645 0-35.629 15.984-35.629 35.619 0 19.64 15.984 35.633 35.629 35.633 19.64 0 35.624-15.993 35.624-35.633-.001-19.635-15.984-35.619-35.624-35.619zm131.961 70.262v-420.605c0-14.168-11.53-25.698-25.698-25.698h-17.923l-13.309 40.993c-1.34 4.119-5.18 6.907-9.511 6.907h-131.036c-4.34 0-8.181-2.788-9.511-6.907l-13.324-40.993h-17.918c-14.168 0-25.698 11.53-25.698 25.698v420.605c0 14.172 11.53 25.698 25.698 25.698h212.532c14.168 0 25.698-11.526 25.698-25.698zm-64.648-446.303-9.063 27.901h-116.506l-9.063-27.901zm38.95-19.998h-212.532c-25.197 0-45.701 20.498-45.701 45.696v420.605c0 25.198 20.503 45.701 45.701 45.701h212.532c25.198 0 45.701-20.504 45.701-45.701v-420.605c0-25.198-20.503-45.696-45.701-45.696z"/></g></svg>