<svg id="Layer_1" enable-background="new 0 0 512 512" height="512" viewBox="0 0 512 512" width="512" xmlns="http://www.w3.org/2000/svg"><g><g><g clip-rule="evenodd" fill-rule="evenodd"><path d="m458.069 455.384-7.472 7.472c-96.81 96.81-243.989-7.291-319.079-82.381s-179.19-222.269-82.381-319.078l7.473-7.473c15.499-15.499 40.78-15.499 56.279 0l51.742 51.742c15.498 15.498 15.498 40.78 0 56.278l-17.524 17.524c-13.561 13.561-15.604 34.301-4.95 50.248 17.262 25.835 38.563 51.876 63.404 76.717s50.883 46.143 76.718 63.405c15.946 10.655 36.686 8.611 50.247-4.95l17.524-17.524c15.499-15.499 40.78-15.499 56.279 0l51.742 51.742c15.497 15.498 15.497 40.78-.002 56.278z" fill="#e6e6e6" stroke="#e6e6e6" stroke-miterlimit="22.926" stroke-width=".216"/><path d="m282.277 369.838c-25.835-17.261-51.876-38.563-76.717-63.404s-46.142-50.881-63.404-76.717c-10.655-15.947-8.612-36.687 4.95-50.247l17.524-17.525c.832-.832 1.62-1.693 2.361-2.581l-107.803-107.803c-.886.743-1.747 1.531-2.579 2.363l-7.473 7.473c-96.81 96.809 7.291 243.988 82.381 319.078s222.269 179.191 319.079 82.381l7.473-7.472c.832-.832 1.62-1.693 2.36-2.581l-107.801-107.802c-.886.743-1.746 1.531-2.579 2.363l-17.525 17.524c-13.561 13.561-34.3 15.604-50.247 4.95z" fill="#92d2fe"/></g><g><circle clip-rule="evenodd" cx="373.194" cy="138.799" fill="#a2e19f" fill-rule="evenodd" r="128.797"/></g></g><path clip-rule="evenodd" d="m254.408 138.797c0 65.506 53.292 118.799 118.789 118.799 65.511 0 118.78-53.292 118.78-118.799 0-65.502-53.269-118.799-118.78-118.799-65.497 0-118.789 53.297-118.789 118.799zm-19.999 0c0-76.532 62.261-138.797 138.788-138.797 76.556 0 138.783 62.265 138.783 138.797s-62.228 138.797-138.783 138.797c-76.527 0-138.788-62.265-138.788-138.797zm225.299 288.445c0 7.978-3.114 15.46-8.681 21.07l-7.496 7.468c-39.719 39.728-92.511 46.81-156.9 21.06-67.082-26.83-125.871-81.269-148.03-103.437-22.169-22.164-76.612-80.953-103.442-148.04-25.76-64.383-18.669-117.17 21.05-156.899l7.482-7.473c5.808-5.808 13.436-8.709 21.07-8.709 7.614 0 15.257 2.901 21.055 8.709l51.75 51.745c11.611 11.615 11.611 30.52 0 42.135l-17.527 17.527c-17.012 17.012-19.56 42.866-6.19 62.874 18.149 27.165 39.898 53.481 64.648 78.23 24.74 24.75 51.061 46.499 78.23 64.648 19.999 13.37 45.862 10.823 62.869-6.19l17.531-17.527c5.609-5.605 13.092-8.69 21.07-8.69s15.46 3.085 21.07 8.69l51.759 51.749c5.568 5.6 8.682 13.078 8.682 21.06zm5.425-35.213c9.389 9.393 14.578 21.891 14.578 35.214 0 13.318-5.189 25.83-14.578 35.209l-7.454 7.478c-24.4 24.4-53.429 38.332-86.279 41.413-4.652.439-9.384.661-14.191.661-24.268 0-50.429-5.563-77.999-16.593-70.531-28.198-131.721-84.831-154.758-107.858-23.032-23.043-79.665-84.233-107.863-154.759-13.21-33.029-18.569-64.049-15.932-92.195 3.081-32.85 17.012-61.874 41.413-86.279l7.468-7.468c19.418-19.418 51.009-19.414 70.432 0l51.74 51.74c19.409 19.418 19.409 51.009 0 70.422l-17.531 17.522c-10.181 10.181-11.7 25.655-3.699 37.624 17.418 26.075 38.327 51.377 62.157 75.202 23.82 23.82 49.122 44.739 75.202 62.157 11.969 8.001 27.439 6.482 37.619-3.699l17.532-17.531c9.379-9.379 21.891-14.55 35.209-14.55s25.82 5.171 35.209 14.55zm-178.743-253.232c0-5.52 4.482-9.997 9.997-9.997h66.813v-66.814c0-5.525 4.477-10.002 9.997-10.002s10.002 4.477 10.002 10.002v66.814h66.837c5.52 0 10.002 4.477 10.002 9.997 0 5.524-4.482 10.002-10.002 10.002h-66.837v66.813c0 5.52-4.468 9.997-10.002 9.997-5.52 0-9.997-4.477-9.997-9.997v-66.813h-66.814c-5.514 0-9.996-4.478-9.996-10.002z" fill-rule="evenodd"/></g></svg>