<svg id="Layer_1" enable-background="new 0 0 512 512" height="512" viewBox="0 0 512 512" width="512" xmlns="http://www.w3.org/2000/svg"><g clip-rule="evenodd" fill-rule="evenodd"><g><path d="m300.878 466.306c0 19.63-16.064 35.695-35.694 35.695h-212.536c-19.631 0-35.694-16.062-35.694-35.695v-420.611c0-19.632 16.063-35.694 35.694-35.694h212.536c19.632 0 35.694 16.064 35.694 35.694z" fill="#6a676b"/><path d="m284.879 466.306v-420.611c0-10.8-8.895-19.695-19.694-19.695h-212.537c-10.8 0-19.694 8.894-19.694 19.695v420.611c0 10.8 8.894 19.695 19.694 19.695h212.536c10.799 0 19.695-8.896 19.695-19.695z" fill="#92d2fe"/><g fill="#6a676b"><ellipse cx="158.916" cy="431.913" rx="20.5" ry="20.5" transform="matrix(.973 -.23 .23 .973 -94.982 48.066)"/><path d="m100.661 56.158h116.509c4.406 0 8.149-2.719 9.51-6.91l9.503-29.247h-154.535l9.503 29.247c1.362 4.191 5.104 6.91 9.51 6.91z"/></g></g><path d="m413.718 202.062-53.971 53.939 53.971 53.938c3.869 3.902 3.869 10.233 0 14.139-1.981 1.953-4.529 2.93-7.077 2.93s-5.142-.977-7.077-2.93l-61.001-61.006c-3.916-3.906-3.916-10.238 0-14.144l61.001-61.01c3.916-3.907 10.238-3.907 14.153 0 3.869 3.907 3.869 10.238.001 14.144zm88.411 107.877c3.916 3.902 3.916 10.233 0 14.139-1.981 1.953-4.529 2.93-7.077 2.93s-5.095-.977-7.077-2.93l-61.001-61.006c-3.916-3.906-3.916-10.238 0-14.144l61.001-61.01c3.916-3.907 10.238-3.907 14.153 0 3.916 3.906 3.916 10.238 0 14.144l-53.924 53.939zm-343.219 137.349c-8.633 0-15.616-7.006-15.616-15.63 0-8.61 6.983-15.616 15.616-15.616 8.586 0 15.616 7.006 15.616 15.616 0 8.624-7.029 15.63-15.616 15.63zm0-51.249c-19.673 0-35.619 15.984-35.619 35.619 0 19.64 15.946 35.633 35.619 35.633 19.626 0 35.619-15.993 35.619-35.633 0-19.635-15.993-35.619-35.619-35.619zm131.956 70.262v-420.605c0-14.168-11.511-25.698-25.712-25.698h-17.927l-13.304 40.993c-1.321 4.119-5.143 6.907-9.483 6.907h-131.06c-4.34 0-8.162-2.788-9.483-6.907l-13.351-40.993h-17.928c-14.153 0-25.665 11.53-25.665 25.698v420.605c0 14.172 11.512 25.698 25.665 25.698h212.536c14.201 0 25.712-11.526 25.712-25.698zm-64.633-446.303-9.058 27.901h-116.53l-9.058-27.901zm38.922-19.998h-212.537c-25.193 0-45.668 20.498-45.668 45.696v420.605c0 25.198 20.475 45.701 45.668 45.701h212.536c25.193 0 45.715-20.504 45.715-45.701v-420.605c.001-25.198-20.521-45.696-45.714-45.696z"/></g></svg>