<svg id="Layer_1" enable-background="new 0 0 512 512" height="512" viewBox="0 0 512 512" width="512" xmlns="http://www.w3.org/2000/svg"><g><g><g clip-rule="evenodd" fill-rule="evenodd"><path d="m101.608 129.989 171.254-109.986c3.159-2.029 6.902-2.162 10.197-.362s5.206 5.021 5.206 8.776v455.168c0 3.772-1.93 7.008-5.25 8.8-3.319 1.792-7.083 1.63-10.237-.44l-171.17-112.355c-24.782 0-49.563 0-74.345 0-9.502 0-17.276-7.774-17.276-17.276 0-71.682 0-143.365 0-215.048 0-9.502 7.774-17.276 17.276-17.276 24.782-.001 49.564-.001 74.345-.001z" fill="#e6e6e6"/><path d="m9.988 147.266v215.048c0 9.502 7.774 17.276 17.276 17.276h74.345v-249.6c-24.782 0-49.563 0-74.345 0-9.502-.001-17.276 7.774-17.276 17.276z" fill="#656565"/></g><g><ellipse clip-rule="evenodd" cx="418.293" cy="256.001" fill="#eb745e" fill-rule="evenodd" rx="83.694" ry="83.694" transform="matrix(.707 -.707 .707 .707 -58.505 370.759)"/></g></g><path clip-rule="evenodd" d="m418.303 329.688c-40.62 0-73.692-33.058-73.692-73.687 0-40.634 33.072-73.697 73.692-73.697s73.692 33.062 73.692 73.697c0 40.629-33.072 73.687-73.692 73.687zm0-167.383c-51.66 0-93.695 42.031-93.695 93.696 0 51.66 42.035 93.69 93.695 93.69s93.696-42.031 93.696-93.69c-.001-51.665-42.036-93.696-93.696-93.696zm42.366 65.469c3.916-3.902 3.916-10.233 0-14.139s-10.238-3.906-14.153 0l-28.212 28.222-28.212-28.222c-3.916-3.906-10.238-3.906-14.153 0-3.916 3.906-3.916 10.238 0 14.139l28.212 28.227-28.212 28.222c-3.916 3.906-3.916 10.238 0 14.139 1.934 1.958 4.529 2.93 7.077 2.93s5.095-.972 7.077-2.93l28.212-28.217 28.212 28.217c1.982 1.958 4.529 2.93 7.077 2.93s5.143-.972 7.077-2.93c3.916-3.902 3.916-10.233 0-14.139l-28.212-28.222zm-182.39 255.695-166.68-109.387v-238.743l166.68-107.033zm-258.299-121.271v-215.041c0-4.015 3.303-7.28 7.313-7.28h64.304v229.605h-64.305c-4.009.001-7.312-3.274-7.312-7.284zm273.066-360.972c-3.208-1.755-7.077-1.618-10.19.359l-184.183 118.293h-71.38c-15.05 0-27.316 12.238-27.316 27.278v215.042c0 15.04 12.266 27.283 27.316 27.283h71.333l184.182 120.879c1.651 1.09 3.538 1.642 5.473 1.642 1.604 0 3.255-.401 4.765-1.203 3.208-1.75 5.237-5.128 5.237-8.799v-491.999c-.001-3.661-1.982-7.025-5.237-8.775z" fill-rule="evenodd"/></g></svg>