<svg id="Layer_1" enable-background="new 0 0 512 512" height="512" viewBox="0 0 512 512" width="512" xmlns="http://www.w3.org/2000/svg"><g><g><g><ellipse clip-rule="evenodd" cx="373.202" cy="138.799" fill="#eb745e" fill-rule="evenodd" rx="128.797" ry="128.797" transform="matrix(.707 -.707 .707 .707 11.163 304.547)"/></g><g clip-rule="evenodd" fill-rule="evenodd"><path d="m458.077 455.384-7.473 7.472c-96.81 96.81-243.989-7.291-319.079-82.381s-179.19-222.269-82.381-319.078l7.473-7.473c15.499-15.499 40.78-15.499 56.279 0l51.742 51.742c15.498 15.498 15.498 40.78 0 56.278l-17.524 17.524c-13.561 13.561-15.604 34.301-4.95 50.248 17.262 25.835 38.563 51.876 63.404 76.717s50.882 46.143 76.718 63.405c15.946 10.655 36.686 8.611 50.247-4.95l17.524-17.524c15.499-15.499 40.78-15.499 56.279 0l51.742 51.742c15.497 15.498 15.497 40.78-.001 56.278z" fill="#e6e6e6"/><path d="m282.284 369.838c-25.835-17.261-51.876-38.563-76.717-63.404s-46.142-50.881-63.404-76.717c-10.654-15.947-8.612-36.687 4.95-50.247l17.524-17.525c.832-.832 1.62-1.693 2.361-2.581l-107.803-107.803c-.886.743-1.746 1.531-2.579 2.363l-7.473 7.473c-96.81 96.809 7.291 243.988 82.381 319.078s222.269 179.191 319.079 82.381l7.473-7.472c.832-.832 1.62-1.693 2.36-2.581l-107.801-107.802c-.886.743-1.746 1.531-2.579 2.363l-17.525 17.524c-13.561 13.561-34.3 15.604-50.247 4.95z" fill="#92d2fe"/></g></g><path clip-rule="evenodd" d="m254.416 138.797c0 65.506 53.264 118.799 118.794 118.799 65.483 0 118.794-53.292 118.794-118.799 0-65.502-53.311-118.799-118.794-118.799-65.53 0-118.794 53.297-118.794 118.799zm-20.004 0c0-76.532 62.275-138.797 138.798-138.797s138.798 62.265 138.798 138.797-62.275 138.797-138.798 138.797-138.798-62.265-138.798-138.797zm225.275 288.445c0 7.978-3.066 15.46-8.681 21.07l-7.454 7.468c-39.724 39.728-92.516 46.81-156.914 21.06-67.087-26.83-125.87-81.269-148.044-103.437-22.173-22.164-76.617-80.953-103.414-148.04-25.759-64.383-18.682-117.17 21.042-156.899l7.454-7.473c5.803-5.808 13.446-8.709 21.089-8.709 7.596 0 15.239 2.901 21.041 8.709l51.754 51.745c5.614 5.605 8.681 13.087 8.681 21.065 0 7.982-3.066 15.465-8.681 21.07l-17.503 17.527c-17.031 17.012-19.579 42.866-6.228 62.874 18.164 27.165 39.913 53.481 64.681 78.23 24.721 24.75 51.047 46.499 78.221 64.648 20.004 13.37 45.857 10.823 62.888-6.19l17.503-17.527c5.614-5.605 13.115-8.69 21.088-8.69s15.427 3.085 21.041 8.69l51.754 51.749c5.615 5.6 8.682 13.078 8.682 21.06zm5.472-35.213c9.389 9.393 14.531 21.891 14.531 35.214 0 13.318-5.142 25.83-14.531 35.209l-7.501 7.478c-24.391 24.4-53.405 38.332-86.241 41.413-4.671.439-9.388.661-14.201.661-24.297 0-50.433-5.563-78.032-16.593-70.484-28.198-131.674-84.831-154.744-107.858-23.022-23.043-79.636-84.233-107.848-154.759-13.21-33.029-18.588-64.048-15.946-92.195 3.114-32.85 17.031-61.874 41.422-86.279l7.454-7.468c19.437-19.418 51.047-19.414 70.437 0l51.754 51.74c9.389 9.383 14.531 21.89 14.531 35.209 0 13.323-5.142 25.83-14.531 35.213l-17.55 17.522c-10.143 10.181-11.7 25.655-3.68 37.624 17.409 26.075 38.309 51.377 62.133 75.202 23.825 23.82 49.159 44.739 75.201 62.157 11.983 8.001 27.458 6.482 37.648-3.699l17.503-17.531c9.388-9.379 21.891-14.55 35.242-14.55 13.304 0 25.806 5.171 35.195 14.55zm-178.757-253.232c0-5.52 4.482-9.997 10.002-9.997h153.611c5.52 0 10.002 4.477 10.002 9.997 0 5.524-4.482 10.002-10.002 10.002h-153.611c-5.52 0-10.002-4.478-10.002-10.002z" fill-rule="evenodd"/></g></svg>