<svg id="Layer_1" enable-background="new 0 0 512 512" height="512" viewBox="0 0 512 512" width="512" xmlns="http://www.w3.org/2000/svg"><g><g><circle clip-rule="evenodd" cx="255.999" cy="256" fill="#a2e19f" fill-rule="evenodd" r="246"/></g><path clip-rule="evenodd" d="m405.24 277.221c1.548 3.741.691 8.039-2.169 10.898l-57.19 57.194c-1.954 1.948-4.514 2.93-7.072 2.93-2.559 0-5.119-.981-7.073-2.93-3.905-3.911-3.905-10.242 0-14.144l40.122-40.115h-255.858c-5.523 0-10.001-4.482-10.001-10.002 0-5.529 4.478-10.001 10.001-10.001h279.999c4.045-.001 7.693 2.429 9.241 6.17zm.759-46.272c0 5.534-4.476 10.002-10 10.002h-279.999c-4.045 0-7.692-2.43-9.24-6.171-1.548-3.737-.691-8.039 2.169-10.898l57.19-57.189c3.905-3.911 10.238-3.911 14.144 0 3.903 3.906 3.903 10.238 0 14.139l-40.122 40.12h255.857c5.525 0 10.001 4.477 10.001 9.997zm-150 261.054c130.132 0 236-105.872 236-236.003s-105.869-235.998-236-235.998c-130.13 0-235.998 105.867-235.998 235.998s105.868 236.003 235.998 236.003zm181.019-417.024c-48.352-48.348-112.639-74.98-181.019-74.98-68.378 0-132.666 26.632-181.019 74.98-48.352 48.352-74.98 112.641-74.98 181.021s26.628 132.669 74.98 181.022c48.354 48.348 112.641 74.98 181.019 74.98 68.38 0 132.668-26.632 181.019-74.98 48.353-48.353 74.98-112.642 74.98-181.022s-26.627-132.669-74.98-181.021z" fill-rule="evenodd"/></g></svg>