<svg id="Layer_1" enable-background="new 0 0 512 512" height="512" viewBox="0 0 512 512" width="512" xmlns="http://www.w3.org/2000/svg"><g clip-rule="evenodd" fill-rule="evenodd"><g><path d="m9.999 407.648v-9.158c0-118.643 153.975-145.04 246-145.04s245.999 26.396 245.999 145.04v9.158c0 18.994-15.492 34.486-34.486 34.485h-63.411c-18.994 0-34.485-15.492-34.485-34.485v-21.476c0-16.62-11.457-30.58-27.757-33.823-26.408-5.254-55.418-8.158-85.861-8.158s-59.453 2.904-85.862 8.158c-16.3 3.243-27.757 17.203-27.757 33.823v21.477c0 18.994-15.491 34.485-34.485 34.485h-63.41c-18.993 0-34.485-15.492-34.485-34.486z" fill="#e6e6e6" stroke="#e6e6e6" stroke-miterlimit="22.926" stroke-width=".216"/><path d="m170.137 352.349c26.408-5.253 55.418-8.157 85.861-8.158 30.443 0 59.452 2.904 85.861 8.158 16.3 3.243 27.757 17.203 27.757 33.823v21.477c0 1.02.045 2.03.135 3.028h132.115c.088-.998.132-2.008.132-3.028v-9.158c0-118.643-153.975-145.04-246-145.04-92.024 0-246 26.396-246 145.04v9.158c0 1.02.045 2.03.135 3.028l132.115.001c.088-.998.132-2.008.132-3.028v-21.477c.001-16.621 11.457-30.581 27.757-33.824z" fill="#92d2fe"/></g><path d="m491.999 398.492c0-48.103-27.726-84.373-82.429-107.821-57.321-24.57-126.488-27.222-153.569-27.222-27.08 0-96.252 2.652-153.569 27.222-54.698 23.447-82.434 59.718-82.434 107.821v9.157c0 6.511 2.557 12.663 7.195 17.291 4.637 4.642 10.775 7.19 17.291 7.19h63.412c13.502 0 24.485-10.978 24.485-24.481v-21.48c0-21.489 14.724-39.427 35.808-43.625 27.849-5.543 57.397-8.35 87.812-8.35s59.958 2.807 87.807 8.35c21.079 4.199 35.813 22.136 35.813 43.625v21.48c0 13.502 10.978 24.481 24.481 24.481h63.407c13.512 0 24.49-10.978 24.49-24.481zm19.999 0v9.157c0 24.533-19.957 44.479-44.489 44.479h-63.407c-24.533 0-44.479-19.947-44.479-44.479v-21.48c0-11.828-8.115-21.697-19.711-24.009-26.571-5.289-54.802-7.968-83.911-7.968s-57.34 2.68-83.911 7.968c-11.606 2.312-19.706 12.181-19.706 24.009v21.48c0 24.533-19.956 44.479-44.489 44.479h-63.407c-11.86 0-23.023-4.628-31.439-13.04-8.416-8.416-13.049-19.579-13.049-31.439v-9.157c0-30.223 9.351-56.831 27.797-79.094 15.767-19.027 38.228-34.879 66.752-47.107 60.728-26.033 133.136-28.84 161.452-28.84 28.311 0 100.72 2.807 161.448 28.84 28.533 12.228 50.99 28.08 66.752 47.107 18.451 22.263 27.797 48.871 27.797 79.094zm-312.691-203.941c-3.906 3.897-3.906 10.242 0 14.139 1.953 1.949 4.51 2.93 7.072 2.93 2.557 0 5.119-.981 7.072-2.93 11.365-11.36 26.476-17.621 42.55-17.621s31.184 6.26 42.55 17.621c3.911 3.911 10.238 3.911 14.139 0 3.911-3.897 3.911-10.242 0-14.139-15.139-15.139-35.275-23.48-56.689-23.48-21.419 0-41.55 8.341-56.694 23.48zm-71.559-61.562c2.557 0 5.119-.977 7.072-2.93 32.369-32.369 75.404-50.197 121.181-50.197s88.808 17.829 121.176 50.197c3.911 3.902 10.242 3.902 14.144 0 3.911-3.906 3.911-10.238 0-14.139-36.143-36.148-84.203-56.057-135.32-56.057s-99.177 19.909-135.325 56.057c-3.906 3.902-3.906 10.233 0 14.139 1.953 1.953 4.515 2.93 7.072 2.93zm210.121 36.393c-21.872-21.872-50.943-33.921-81.868-33.911-30.925-.009-60.001 12.04-81.868 33.911-1.953 1.949-4.51 2.92-7.072 2.92-2.557 0-5.119-.972-7.072-2.92-3.902-3.911-3.902-10.242 0-14.153 25.646-25.636 59.746-39.757 96.007-39.757h.005c36.27-.009 70.361 14.121 96.007 39.757 3.902 3.911 3.902 10.242 0 14.153-3.906 3.901-10.238 3.901-14.139 0z"/></g></svg>