<svg id="Layer_1" enable-background="new 0 0 512 512" height="512" viewBox="0 0 512 512" width="512" xmlns="http://www.w3.org/2000/svg"><g><g><path clip-rule="evenodd" d="m326.159 80.16v195.308c0 38.748-31.412 70.159-70.159 70.159s-70.159-31.411-70.159-70.159v-195.28c-.488-38.595 31.89-70.188 70.159-70.188 38.748.001 70.159 31.413 70.159 70.16z" fill="#ffd54f" fill-rule="evenodd"/></g><path clip-rule="evenodd" d="m195.839 80.192v195.278c0 33.171 26.991 60.161 60.161 60.161 33.171 0 60.156-26.99 60.156-60.161v-195.311c0-33.171-26.986-60.157-60.156-60.157-15.941 0-31.609 6.619-43.003 18.149-11.266 11.408-17.357 26.287-17.159 41.908.001.043.001.081.001.133zm-19.999 195.278v-195.222c-.25-20.989 7.888-40.917 22.919-56.146 15.13-15.323 35.992-24.103 57.241-24.103 44.201 0 80.16 35.964 80.16 80.16v195.311c0 44.201-35.959 80.16-80.16 80.16s-80.16-35.958-80.16-80.16zm239.721-7.991v7.992c0 84.618-66.219 154.06-149.563 159.24v57.293h79.122c5.52 0 10.002 4.477 10.002 9.997s-4.482 10.002-10.002 10.002h-178.239c-5.52 0-10.002-4.482-10.002-10.002s4.482-9.997 10.002-9.997h79.117v-57.294c-83.34-5.18-149.559-74.621-149.559-159.24v-7.992c0-5.52 4.477-9.997 10.002-9.997 5.52 0 9.997 4.477 9.997 9.997v7.992c0 76.952 62.61 139.562 139.562 139.562 76.947 0 139.557-62.61 139.557-139.562v-7.992c0-5.52 4.482-9.997 10.001-9.997 5.521.001 10.003 4.478 10.003 9.998z" fill-rule="evenodd"/></g></svg>