<svg id="Layer_1" enable-background="new 0 0 512 512" height="512" viewBox="0 0 512 512" width="512" xmlns="http://www.w3.org/2000/svg"><g clip-rule="evenodd" fill-rule="evenodd"><g><path d="m357.446 241.546c-46.486-47.936-80.946-66.616-100.007-97.437-46.918-75.864 28.526-122.893 100.007-74.335 71.481-48.557 146.925-1.529 100.007 74.335-19.061 30.821-53.521 49.501-100.007 97.437z" fill="#eb745e"/><path d="m489.563 452.109-7.998 7.998c-103.612 103.612-261.133-7.804-341.499-88.17-80.366-80.366-191.781-237.886-88.169-341.498l7.998-7.998c16.588-16.588 43.646-16.588 60.233 0l55.377 55.377c16.588 16.588 16.587 43.646 0 60.233l-18.756 18.756c-14.514 14.514-16.701 36.711-5.298 53.778 18.475 27.65 41.272 55.521 67.859 82.107 26.587 26.587 54.458 49.385 82.108 67.859 17.067 11.403 39.264 9.217 53.778-5.297l18.756-18.756c16.587-16.587 43.645-16.587 60.233 0l55.377 55.377c16.588 16.588 16.588 43.647.001 60.234z" fill="#e6e6e6" stroke="#e6e6e6" stroke-miterlimit="22.926" stroke-width=".216"/><path d="m301.419 360.552c-27.651-18.474-55.521-41.273-82.108-67.859-26.587-26.587-49.384-54.456-67.859-82.107-11.403-17.067-9.217-39.265 5.297-53.778l18.756-18.756c.891-.891 1.734-1.812 2.526-2.762l-115.376-115.378c-.948.795-1.869 1.638-2.76 2.529l-7.998 7.998c-103.612 103.612 7.803 261.132 88.169 341.498s237.886 191.782 341.498 88.169l7.998-7.997c.891-.891 1.734-1.812 2.526-2.762l-115.376-115.377c-.948.795-1.869 1.638-2.76 2.529l-18.756 18.756c-14.513 14.513-36.71 16.7-53.777 5.297z" fill="#92d2fe"/></g><path d="m482.491 445.042-8.001 7.987c-42.734 42.738-99.479 50.381-168.68 22.702-71.923-28.769-134.92-87.109-158.683-110.873-23.75-23.749-82.099-86.746-110.859-158.669-27.669-69.2-20.036-125.945 22.693-168.679l7.997-8.001c6.142-6.128 14.323-9.506 23.051-9.506 8.733 0 16.909 3.378 23.042 9.506l55.377 55.382c6.133 6.129 9.511 14.319 9.511 23.042 0 8.728-3.378 16.918-9.511 23.046l-18.758 18.753c-17.961 17.97-20.65 45.277-6.539 66.408 19.399 29.033 42.649 57.17 69.106 83.623 26.453 26.457 54.585 49.707 83.623 69.106 21.131 14.111 48.438 11.422 66.398-6.548l18.763-18.748c6.129-6.133 14.319-9.511 23.047-9.511 8.723 0 16.913 3.378 23.042 9.511l55.382 55.377c6.128 6.128 9.506 14.309 9.506 23.042 0 8.727-3.378 16.908-9.507 23.05zm14.14-60.241-55.382-55.368c-9.907-9.912-23.108-15.375-37.181-15.375-14.068 0-27.278 5.463-37.186 15.375l-18.763 18.748c-11.129 11.139-28.061 12.799-41.148 4.057-27.953-18.678-55.061-41.087-80.589-66.62-25.533-25.528-47.942-52.646-66.62-80.589-8.752-13.101-7.082-30.019 4.057-41.149l18.748-18.762c9.912-9.907 15.371-23.117 15.371-37.186 0-14.073-5.458-27.274-15.371-37.181l-55.368-55.382c-9.922-9.907-23.122-15.371-37.19-15.371s-27.278 5.463-37.19 15.371l-8.001 8.001c-25.986 25.991-40.838 56.912-44.117 91.903-2.812 30.015 2.911 63.1 16.998 98.347 30.142 75.348 90.671 140.76 115.289 165.391 24.631 24.617 90.029 85.147 165.391 115.289 29.42 11.771 57.34 17.701 83.231 17.701 5.119 0 10.157-.241 15.116-.703 34.992-3.279 65.912-18.13 91.903-44.116l8.001-8.001c9.907-9.912 15.371-23.122 15.371-37.19s-5.463-27.283-15.37-37.19zm-232.63-312.441c-15.413 14.762-14.682 39.611 1.939 66.493 10.091 16.309 25.58 29.576 45.201 46.385 13.719 11.752 29.047 24.882 46.295 42.073 17.262-17.192 32.595-30.321 46.31-42.073 19.612-16.81 35.115-30.076 45.192-46.385 16.63-26.882 17.352-51.731 1.953-66.493-8.591-8.228-21.442-12.611-36.162-12.351-16.88.302-34.742 6.544-51.669 18.031-3.392 2.312-7.85 2.312-11.242 0-16.918-11.488-34.789-17.73-51.66-18.031-.42-.009-.84-.009-1.25-.009-14.21 0-26.571 4.368-34.907 12.36zm34.128 128.06c15.262 13.082 32.558 27.901 52.127 48.088 1.892 1.944 4.482 3.034 7.18 3.034 2.713 0 5.303-1.09 7.181-3.034 19.574-20.188 36.879-35.006 52.141-48.088 20.942-17.928 37.469-32.1 49.192-51.051 11.148-18.017 16.527-35.435 16.017-51.768-.5-15.63-6.458-29.349-17.248-39.681-25.07-24.018-68.46-23.787-107.283-.038-38.818-23.749-82.207-23.981-107.278.038-10.779 10.331-16.747 24.05-17.238 39.68-.524 16.333 4.869 33.751 16.008 51.768 11.719 18.952 28.264 33.124 49.201 51.052z"/></g></svg>