<svg id="Layer_1" enable-background="new 0 0 512 512" height="512" viewBox="0 0 512 512" width="512" xmlns="http://www.w3.org/2000/svg"><g><g><g clip-rule="evenodd" fill-rule="evenodd"><path d="m358.099 466.306c0 19.63-16.064 35.695-35.694 35.695h-212.537c-19.631 0-35.694-16.062-35.694-35.695v-420.611c0-19.632 16.063-35.695 35.694-35.695h212.536c19.632 0 35.694 16.064 35.694 35.694v420.612z" fill="#6a676b"/><path d="m342.099 466.306v-420.611c0-10.8-8.895-19.695-19.695-19.695h-212.536c-10.801 0-19.695 8.894-19.695 19.695v420.611c0 10.8 8.894 19.695 19.695 19.695h212.536c10.799 0 19.695-8.897 19.695-19.695z" fill="#92d2fe"/><g fill="#6a676b"><circle cx="216.136" cy="431.912" r="20.5"/><path d="m157.882 56.158h116.509c4.406 0 8.149-2.719 9.51-6.91l9.503-29.248h-154.535l9.503 29.247c1.361 4.191 5.104 6.911 9.51 6.911z"/></g></g><g><path clip-rule="evenodd" d="m250.667 178.073h167.252c10.948 0 19.905 7.481 19.905 16.623v102.055c0 9.142-8.958 16.624-19.905 16.624h-137.078l-33.503 29.254c-3.022 2.639-7.061 3.232-10.714 1.572s-5.863-5.092-5.863-9.104c0-47.856 0-90.8 0-140.4.001-9.144 8.958-16.624 19.906-16.624z" fill="#ffd54f" fill-rule="evenodd"/></g></g><path clip-rule="evenodd" d="m394.009 245.72c0 6.888-5.609 12.502-12.497 12.502-6.883 0-12.502-5.614-12.502-12.502 0-6.878 5.619-12.497 12.502-12.497 6.887 0 12.497 5.619 12.497 12.497zm-47.221 0c0 6.888-5.609 12.502-12.497 12.502-6.883 0-12.502-5.614-12.502-12.502 0-6.878 5.619-12.497 12.502-12.497 6.888 0 12.497 5.619 12.497 12.497zm-47.21 0c0 6.888-5.619 12.502-12.498 12.502-6.888 0-12.502-5.614-12.502-12.502 0-6.878 5.614-12.497 12.502-12.497 6.878 0 12.498 5.619 12.498 12.497zm-83.439 201.573c-8.619 0-15.63-7.011-15.63-15.635 0-8.61 7.011-15.616 15.63-15.616 8.61 0 15.621 7.006 15.621 15.616-.001 8.624-7.011 15.635-15.621 15.635zm0-51.255c-19.65 0-35.629 15.984-35.629 35.619 0 19.645 15.979 35.633 35.629 35.633 19.64 0 35.619-15.989 35.619-35.633 0-19.635-15.979-35.619-35.619-35.619zm211.682-99.286v-102.05c0-3.133-4.232-6.633-9.903-6.633h-167.25c-5.666 0-9.907 3.501-9.907 6.633v140.387l33.506-29.25c1.821-1.59 4.152-2.467 6.572-2.467h137.08c5.67 0 9.902-3.492 9.902-6.62zm-79.721 169.549v-142.931h-63.511l-47.249 41.262c-1.859 1.628-4.208 2.468-6.581 2.468-1.401 0-2.812-.288-4.128-.892-3.571-1.628-5.874-5.189-5.874-9.105v-162.401c0-14.682 13.422-26.632 29.911-26.632h97.432v-122.379c0-14.158-11.53-25.688-25.693-25.688h-17.918l-13.319 40.987c-1.34 4.119-5.18 6.912-9.511 6.912h-131.041c-4.331 0-8.171-2.793-9.511-6.912l-13.318-40.988h-17.919c-14.172 0-25.693 11.53-25.693 25.688v420.61c0 14.172 11.521 25.702 25.693 25.702h212.537c14.163.001 25.693-11.529 25.693-25.701zm-64.643-446.299-9.068 27.896h-116.51l-9.058-27.896zm134.461 148.068h-49.82v-122.379c0-25.188-20.499-45.692-45.692-45.692h-212.536c-25.202 0-45.692 20.504-45.692 45.692v420.61c0 25.198 20.489 45.701 45.692 45.701h212.537c25.193 0 45.692-20.504 45.692-45.701v-142.931h49.82c16.494 0 29.901-11.941 29.901-26.618v-102.05c0-14.682-13.408-26.632-29.902-26.632z" fill-rule="evenodd"/></g></svg>