<svg id="Layer_1" enable-background="new 0 0 512 512" height="512" viewBox="0 0 512 512" width="512" xmlns="http://www.w3.org/2000/svg"><g clip-rule="evenodd" fill-rule="evenodd"><g><circle cx="385.5" cy="126.501" fill="#eb745e" r="116.5"/><g><path d="m484.834 452.6-7.919 7.919c-102.591 102.591-258.559-7.727-338.132-87.3-79.574-79.574-189.891-235.541-87.3-338.132l7.919-7.919c16.424-16.424 43.215-16.424 59.64 0l54.831 54.831c16.424 16.424 16.424 43.216 0 59.639l-18.571 18.571c-14.371 14.371-16.536 36.35-5.245 53.248 18.292 27.378 40.866 54.973 67.19 81.298 26.325 26.325 53.921 48.898 81.299 67.191 16.899 11.291 38.877 9.126 53.248-5.245l18.571-18.571c16.424-16.424 43.215-16.424 59.639 0l54.831 54.831c16.423 16.423 16.423 43.215-.001 59.639z" fill="#e6e6e6" stroke="#e6e6e6" stroke-miterlimit="22.926" stroke-width=".216"/><path d="m298.545 361.945c-27.378-18.292-54.974-40.866-81.298-67.191-26.325-26.324-48.897-53.919-67.19-81.298-11.291-16.899-9.126-38.878 5.245-53.248l18.571-18.571c.882-.882 1.717-1.794 2.502-2.735l-114.241-114.239c-.939.787-1.851 1.622-2.733 2.504l-7.919 7.919c-102.59 102.59 7.726 258.558 87.3 338.132s235.541 189.891 338.132 87.3l7.919-7.918c.882-.882 1.717-1.794 2.501-2.735l-114.239-114.24c-.939.787-1.85 1.622-2.733 2.504l-18.57 18.571c-14.371 14.371-36.349 16.536-53.247 5.245z" fill="#92d2fe"/></g></g><path d="m385.497 20.002c25.773 0 49.433 9.2 67.87 24.49l-149.879 149.88c-15.29-18.442-24.49-42.102-24.49-67.87 0-58.723 47.782-106.5 106.499-106.5zm0 212.999c58.723 0 106.504-47.782 106.504-106.499 0-25.773-9.199-49.433-24.49-67.87l-149.884 149.88c18.442 15.289 42.102 24.489 67.87 24.489zm0 19.999c69.753 0 126.503-56.751 126.503-126.498 0-69.753-56.75-126.503-126.503-126.503-69.748 0-126.498 56.75-126.498 126.503 0 69.747 56.751 126.498 126.498 126.498zm92.261 192.533c6.062-6.062 9.388-14.134 9.388-22.754 0-8.61-3.326-16.691-9.388-22.749l-54.83-54.83c-12.54-12.55-32.949-12.54-45.498 0l-18.569 18.574c-17.819 17.819-44.913 20.489-65.87 6.487-28.75-19.211-56.623-42.238-82.821-68.441-26.188-26.188-49.221-54.061-68.432-82.807-13.998-20.961-11.342-48.051 6.492-65.875l18.569-18.569c12.54-12.549 12.54-32.959 0-45.498l-54.83-54.83c-6.27-6.279-14.512-9.407-22.749-9.407-8.242 0-16.479 3.128-22.749 9.407l-7.921 7.912c-42.281 42.29-49.829 98.437-22.452 166.92 28.481 71.187 86.241 133.556 109.75 157.079 23.523 23.509 85.892 81.268 157.079 109.741 26.863 10.747 51.844 16.121 74.824 16.121 35.591 0 66.398-12.875 92.087-38.563zm-40.691-114.473c-9.827-9.841-22.928-15.248-36.888-15.248-13.951 0-27.061 5.407-36.888 15.248l-18.569 18.569c-10.993 10.992-27.693 12.644-40.625 4-27.665-18.489-54.505-40.667-79.778-65.95-25.278-25.268-47.47-52.108-65.95-79.778-8.638-12.931-6.992-29.633 4.001-40.62l18.569-18.574c20.338-20.338 20.338-53.439 0-73.777l-54.83-54.84c-20.338-20.338-53.438-20.338-73.781 0l-7.917 7.917c-25.764 25.764-40.46 56.401-43.72 91.063-2.783 29.741 2.878 62.511 16.838 97.432 29.85 74.626 89.789 139.396 114.18 163.787 24.391 24.381 89.161 84.33 163.792 114.171 29.146 11.657 56.807 17.541 82.448 17.541 5.072 0 10.059-.231 14.979-.703 34.661-3.246 65.299-17.947 91.063-43.71l7.916-7.917c9.832-9.832 15.243-22.933 15.243-36.893s-5.411-27.061-15.243-36.888z"/></g></svg>