<svg id="Layer_1" enable-background="new 0 0 512 512" height="512" viewBox="0 0 512 512" width="512" xmlns="http://www.w3.org/2000/svg"><g clip-rule="evenodd" fill-rule="evenodd"><g><path d="m397.958 465.431c0 19.63-16.064 35.695-35.694 35.695h-212.536c-19.631 0-35.694-16.062-35.694-35.695v-420.611c0-19.632 16.062-35.694 35.694-35.694h212.536c19.632 0 35.694 16.064 35.694 35.694z" fill="#6a676b"/><path d="m381.959 465.431v-420.611c0-10.8-8.895-19.695-19.694-19.695h-212.537c-10.801 0-19.695 8.895-19.695 19.695v420.611c0 10.8 8.894 19.695 19.695 19.695h212.536c10.799 0 19.695-8.897 19.695-19.695z" fill="#92d2fe"/><g fill="#6a676b"><ellipse cx="255.997" cy="431.037" rx="20.5" ry="20.5" transform="matrix(.383 -.924 .924 .383 -240.195 502.596)"/><path d="m197.742 55.283h116.509c4.406 0 8.149-2.719 9.51-6.91l9.503-29.247h-154.535l9.503 29.247c1.361 4.19 5.104 6.91 9.51 6.91z"/></g></g><path d="m255.998 416.042c8.619 0 15.63 7.006 15.63 15.616 0 8.624-7.011 15.635-15.63 15.635-8.62 0-15.63-7.011-15.63-15.635 0-8.61 7.01-15.616 15.63-15.616zm0 51.249c19.64 0 35.629-15.989 35.629-35.633 0-19.635-15.988-35.619-35.629-35.619-19.64 0-35.629 15.984-35.629 35.619 0 19.645 15.989 35.633 35.629 35.633zm58.251-419.393h-116.502l-9.068-27.896h134.641zm-200.209 303.411c5.52 0 9.997-4.468 9.997-9.997v-295.621c0-14.158 11.521-25.688 25.693-25.688h17.918l13.323 40.988c1.34 4.119 5.18 6.912 9.506 6.912h131.041c4.331 0 8.171-2.793 9.511-6.912l13.318-40.988h17.918c14.172 0 25.693 11.53 25.693 25.688v11.7c0 5.52 4.477 10.002 9.997 10.002 5.524 0 10.002-4.482 10.002-10.002v-11.7c0-25.188-20.499-45.692-45.692-45.692h-212.535c-25.193 0-45.692 20.504-45.692 45.692v295.621c0 5.529 4.482 9.997 10.002 9.997zm273.919 114.992v-314.059l-263.922 263.927v50.131c0 14.172 11.521 25.702 25.693 25.702h212.536c14.173.001 25.693-11.529 25.693-25.701zm98.782-427.003c-3.869-3.897-10.238-3.897-14.106 0l-447.393 447.383c-3.902 3.897-3.902 10.238 0 14.139 1.948 1.949 4.505 2.93 7.067 2.93s5.119-.981 7.067-2.93l64.662-64.648v30.128c0 25.198 20.499 45.701 45.692 45.701h212.536c25.193 0 45.692-20.504 45.692-45.701v-334.062l78.783-78.787c3.915-3.911 3.915-10.242 0-14.153z"/></g></svg>