<svg id="Layer_1" enable-background="new 0 0 512 512" height="512" viewBox="0 0 512 512" width="512" xmlns="http://www.w3.org/2000/svg"><g clip-rule="evenodd" fill-rule="evenodd"><g><path d="m10.002 400.163v-9.158c0-118.643 153.975-145.04 246-145.039 92.024 0 245.999 26.397 245.999 145.039v9.158c0 18.994-15.492 34.486-34.486 34.485h-63.41c-18.994 0-34.485-15.492-34.485-34.485v-21.476c0-16.62-11.457-30.58-27.757-33.823-26.408-5.254-55.418-8.158-85.861-8.158-30.444 0-59.453 2.904-85.862 8.158-16.3 3.242-27.757 17.203-27.757 33.822v21.477c0 18.994-15.491 34.485-34.485 34.485h-63.41c-18.994.001-34.486-15.491-34.486-34.485z" fill="#e6e6e6" stroke="#e6e6e6" stroke-miterlimit="22.926" stroke-width=".216"/><path d="m170.141 344.864c26.408-5.254 55.418-8.158 85.861-8.158s59.452 2.904 85.861 8.158c16.3 3.243 27.757 17.203 27.757 33.823v21.477c0 1.02.045 2.03.135 3.028h132.115c.088-.998.132-2.008.132-3.028v-9.158c0-118.643-153.975-145.04-246-145.04s-246 26.397-246 145.04v9.158c0 1.02.045 2.03.135 3.028l132.115.001c.088-.998.132-2.008.132-3.028v-21.477c0-16.621 11.457-30.581 27.757-33.824z" fill="#92d2fe"/></g><path d="m491.986 391.033c0-48.103-27.741-84.373-82.42-107.825-57.321-24.565-126.484-27.217-153.564-27.217s-96.243 2.652-153.564 27.217c-54.726 23.452-82.42 59.723-82.42 107.825v9.157c0 13.498 10.945 24.481 24.485 24.481h63.407c13.493 0 24.485-10.983 24.485-24.481v-21.48c0-21.489 14.72-39.427 35.808-43.63 27.835-5.539 57.368-8.351 87.798-8.351s59.963 2.812 87.798 8.351c21.089 4.203 35.808 22.141 35.808 43.63v21.48c0 13.498 10.993 24.481 24.485 24.481h63.407c13.54 0 24.485-10.983 24.485-24.481v-9.157zm20.003 0v9.157c0 24.532-19.956 44.479-44.489 44.479h-63.407c-24.532 0-44.489-19.947-44.489-44.479v-21.48c0-11.828-8.114-21.702-19.673-24.009-26.608-5.293-54.821-7.973-83.93-7.973s-57.321 2.68-83.929 7.973c-11.606 2.307-19.673 12.181-19.673 24.009v21.48c0 24.532-19.956 44.479-44.489 44.479h-63.406c-24.532 0-44.489-19.947-44.489-44.479v-9.157c0-30.222 9.341-56.83 27.788-79.094 15.757-19.027 38.214-34.879 66.757-47.107 60.718-26.033 133.136-28.84 161.443-28.84s100.725 2.807 161.443 28.84c28.543 12.228 51 28.08 66.757 47.107 18.445 22.263 27.786 48.871 27.786 79.094zm-211.168-188.014c.66 2.562 2.359 4.751 4.623 6.072 1.557.892 3.255 1.34 5.001 1.34.896 0 1.746-.113 2.595-.34l61.331-16.432c5.331-1.429 8.492-6.907 7.077-12.247-1.462-5.331-6.935-8.502-12.266-7.072l-37.978 10.181 58.972-102.202c2.784-4.779 1.132-10.888-3.633-13.658-4.765-2.76-10.898-1.123-13.682 3.661l-58.972 102.197-10.19-37.988c-1.415-5.34-6.935-8.501-12.266-7.072-5.331 1.42-8.492 6.912-7.077 12.238zm-139.694-61.322c-1.415-5.326 1.745-10.818 7.077-12.238 5.331-1.429 10.804 1.732 12.266 7.072l10.143 37.988 59.02-102.197c2.736-4.784 8.869-6.421 13.634-3.661 4.812 2.769 6.463 8.879 3.68 13.658l-59.02 102.202 38.025-10.181c5.331-1.43 10.804 1.741 12.219 7.072 1.463 5.34-1.698 10.818-7.077 12.247l-61.284 16.432c-.849.227-1.746.34-2.595.34-1.746 0-3.444-.448-5.001-1.34-2.312-1.321-3.963-3.51-4.671-6.072z"/></g></svg>