<svg id="Layer_1" enable-background="new 0 0 512 512" height="512" viewBox="0 0 512 512" width="512" xmlns="http://www.w3.org/2000/svg"><g clip-rule="evenodd" fill-rule="evenodd"><g><path d="m255.987 10c135.862 0 246 110.138 246 246s-110.138 246-246 246c-44.828 0-86.852-11.995-123.045-32.945l-106.225 28.462c-3.547.95-7.063.008-9.659-2.588-2.596-2.597-3.538-6.112-2.588-9.659l28.463-106.225c-20.949-36.194-32.945-78.217-32.945-123.045 0-135.862 110.137-246 245.999-246z" fill="#eb745e"/><path d="m332.806 227.324v57.353l46.41 21.932c3.19 1.507 6.644 1.294 9.624-.594s4.649-4.92 4.649-8.448v-83.135c0-3.528-1.669-6.56-4.649-8.447-2.98-1.888-6.434-2.101-9.624-.594z" fill="#e6e6e6"/><path d="m129.508 172.508h194.266c6.061 0 11.02 4.959 11.02 11.02v144.945c0 6.061-4.959 11.02-11.02 11.02h-194.266c-6.061 0-11.02-4.959-11.02-11.02v-144.945c0-6.061 4.959-11.02 11.02-11.02z" fill="#f2f2f2"/></g><path d="m301.349 217.201c0 5.529-4.482 10.002-10.002 10.002h-28.165c-5.52 0-10.002-4.473-10.002-10.002 0-5.52 4.482-10.002 10.002-10.002h28.165c5.52 0 10.002 4.482 10.002 10.002zm82.137 80.141-38.686-18.909v-44.861l38.686-18.914zm-58.689 31.128v-144.94c0-.543-.472-1.019-.991-1.019h-194.279c-.519 0-1.038.476-1.038 1.019v144.94c0 .543.519 1.019 1.038 1.019h194.279c.518 0 .991-.467.991-1.019zm74.021-138.311c-2.972-1.821-6.605-2.01-9.719-.5l-44.3 21.655v-27.784c0-11.592-9.435-21.023-20.994-21.023h-194.278c-11.606 0-21.041 9.431-21.041 21.023v144.94c0 11.592 9.435 21.023 21.041 21.023h194.279c11.559 0 20.994-9.431 20.994-21.023v-27.778l44.3 21.65c1.415.679 2.878 1.009 4.388 1.009 1.84 0 3.68-.509 5.331-1.509 2.878-1.831 4.671-5.043 4.671-8.492v-114.699c-.001-3.449-1.794-6.662-4.672-8.492zm-142.807 301.844c130.117 0 235.984-105.872 235.984-236.003s-105.867-235.998-235.984-235.998c-130.164 0-236.031 105.867-236.031 235.998 0 41.503 10.945 82.321 31.609 118.039 1.321 2.293 1.699 5.034.991 7.591l-28.448 106.231 106.245-28.472c.849-.217 1.698-.34 2.595-.34 1.745 0 3.444.462 5.001 1.354 35.713 20.669 76.521 31.6 118.038 31.6zm181.022-417.024c-48.357-48.348-112.661-74.98-181.022-74.98-68.408 0-132.664 26.632-181.022 74.98-48.357 48.352-75.012 112.641-75.012 181.021 0 43.611 11.134 86.529 32.222 124.418l-31.845 118.992c-.944 3.449.047 7.129 2.595 9.662 1.887 1.897 4.435 2.93 7.029 2.93.897 0 1.745-.113 2.595-.34l118.983-31.892c37.884 21.103 80.816 32.232 124.455 32.232 68.361 0 132.664-26.632 181.022-74.98 48.357-48.353 74.965-112.642 74.965-181.022s-26.608-132.669-74.965-181.021z"/></g></svg>