<svg id="Layer_1" enable-background="new 0 0 512 512" height="512" viewBox="0 0 512 512" width="512" xmlns="http://www.w3.org/2000/svg"><g clip-rule="evenodd" fill-rule="evenodd"><g><path d="m67.742 10h376.508c31.76 0 57.746 25.986 57.746 57.746v376.508c0 31.76-25.986 57.746-57.746 57.746h-376.508c-31.76 0-57.746-25.986-57.746-57.746v-376.508c0-31.76 25.986-57.746 57.746-57.746z" fill="#515151"/><path d="m122.988 92.992c16.569 0 30 13.431 30 30s-13.431 30-30 30-30-13.431-30-30c0-16.568 13.432-30 30-30zm30 296.016c0 16.568-13.431 30-30 30-16.568 0-30-13.431-30-30s13.431-30 30-30 30 13.432 30 30zm0-133.008c0 16.569-13.431 30-30 30-16.568 0-30-13.431-30-30s13.431-30 30-30 30 13.432 30 30zm133.008 133.008c0 16.568-13.431 30-30 30s-30-13.431-30-30 13.431-30 30-30 30 13.432 30 30zm0-133.008c0 16.569-13.431 30-30 30s-30-13.431-30-30 13.431-30 30-30 30 13.432 30 30zm133.008 133.008c0 16.568-13.431 30-30 30s-30-13.431-30-30 13.431-30 30-30 30 13.432 30 30zm0-133.008c0 16.569-13.431 30-30 30s-30-13.431-30-30 13.431-30 30-30 30 13.432 30 30zm-30-163.008c16.569 0 30 13.431 30 30s-13.431 30-30 30c-16.568 0-30-13.431-30-30 0-16.568 13.432-30 30-30zm-133.008 0c16.569 0 30 13.431 30 30s-13.431 30-30 30-30-13.431-30-30 13.432-30 30-30z" fill="#f2f2f2"/></g><path d="m492.004 444.25c0 26.33-21.419 47.753-47.744 47.753h-376.527c-26.325 0-47.744-21.424-47.744-47.753v-376.499c0-26.33 21.419-47.749 47.744-47.749h376.527c26.325 0 47.744 21.419 47.744 47.749zm-47.744-444.251h-376.527c-37.365 0-67.748 30.392-67.748 67.752v376.499c0 37.36 30.383 67.752 67.748 67.752h376.527c37.365 0 67.748-30.392 67.748-67.752v-376.499c-.001-37.36-30.383-67.752-67.748-67.752zm-321.282 409.013c11.04 0 20.003-8.973 20.003-20.004 0-11.03-8.964-19.999-20.003-19.999-11.04 0-20.004 8.969-20.004 19.999.001 11.031 8.965 20.004 20.004 20.004zm0-60.001c-22.032 0-40.007 17.937-40.007 39.997 0 22.051 17.975 40.002 40.007 40.002 22.079 0 40.007-17.951 40.007-40.002 0-22.06-17.927-39.997-40.007-39.997zm0-73.012c11.04 0 20.003-8.968 20.003-19.999 0-11.03-8.964-19.999-20.003-19.999-11.04 0-20.004 8.968-20.004 19.999.001 11.03 8.965 19.999 20.004 19.999zm0-59.996c-22.032 0-40.007 17.937-40.007 39.997 0 22.051 17.975 40.002 40.007 40.002 22.079 0 40.007-17.951 40.007-40.002 0-22.06-17.927-39.997-40.007-39.997zm133.042 193.009c10.992 0 19.956-8.973 19.956-20.004 0-11.03-8.964-19.999-19.956-19.999-11.04 0-20.003 8.969-20.003 19.999 0 11.031 8.963 20.004 20.003 20.004zm0-60.001c-22.079 0-40.007 17.937-40.007 39.997 0 22.051 17.928 40.002 40.007 40.002 22.032 0 39.96-17.951 39.96-40.002-.001-22.06-17.928-39.997-39.96-39.997zm0-73.012c10.992 0 19.956-8.968 19.956-19.999 0-11.03-8.964-19.999-19.956-19.999-11.04 0-20.003 8.968-20.003 19.999 0 11.03 8.963 19.999 20.003 19.999zm0-59.996c-22.079 0-40.007 17.937-40.007 39.997 0 22.051 17.928 40.002 40.007 40.002 22.032 0 39.96-17.951 39.96-40.002-.001-22.06-17.928-39.997-39.96-39.997zm132.994 193.009c11.04 0 20.003-8.973 20.003-20.004 0-11.03-8.964-19.999-20.003-19.999-11.04 0-20.003 8.969-20.003 19.999 0 11.031 8.964 20.004 20.003 20.004zm0-60.001c-22.079 0-40.007 17.937-40.007 39.997 0 22.051 17.928 40.002 40.007 40.002 22.032 0 40.007-17.951 40.007-40.002 0-22.06-17.974-39.997-40.007-39.997zm0-73.012c11.04 0 20.003-8.968 20.003-19.999 0-11.03-8.964-19.999-20.003-19.999-11.04 0-20.003 8.968-20.003 19.999 0 11.03 8.964 19.999 20.003 19.999zm0-59.996c-22.079 0-40.007 17.937-40.007 39.997 0 22.051 17.928 40.002 40.007 40.002 22.032 0 40.007-17.951 40.007-40.002 0-22.06-17.974-39.997-40.007-39.997zm0-73.013c11.04 0 20.003-8.969 20.003-19.999s-8.964-20.004-20.003-20.004c-11.04 0-20.003 8.973-20.003 20.004s8.964 19.999 20.003 19.999zm0-60c-22.079 0-40.007 17.951-40.007 40.002 0 22.06 17.928 39.997 40.007 39.997 22.032 0 40.007-17.937 40.007-39.997 0-22.051-17.974-40.002-40.007-40.002zm-132.994 60c10.992 0 19.956-8.969 19.956-19.999s-8.964-20.004-19.956-20.004c-11.04 0-20.003 8.973-20.003 20.004s8.963 19.999 20.003 19.999zm0-60c-22.079 0-40.007 17.942-40.007 40.002s17.928 39.997 40.007 39.997c22.032 0 39.96-17.937 39.96-39.997-.001-22.061-17.928-40.002-39.96-40.002zm-133.042 60c11.04 0 20.003-8.969 20.003-19.999s-8.964-20.004-20.003-20.004c-11.04 0-20.004 8.973-20.004 20.004.001 11.031 8.965 19.999 20.004 19.999zm0-60c-22.032 0-40.007 17.951-40.007 40.002 0 22.06 17.975 39.997 40.007 39.997 22.079 0 40.007-17.937 40.007-39.997 0-22.051-17.927-40.002-40.007-40.002z"/></g></svg>