<svg id="Layer_1" enable-background="new 0 0 512 512" height="512" viewBox="0 0 512 512" width="512" xmlns="http://www.w3.org/2000/svg"><g clip-rule="evenodd" fill-rule="evenodd"><g><path d="m392.365 24.74 21.005 65.07c.679 2.103 2.558 3.468 4.768 3.464l68.376-.132c2.206-.005 4.083 1.356 4.765 3.455.682 2.098-.037 4.302-1.824 5.596l-55.395 40.085c-1.79 1.295-2.508 3.504-1.821 5.605l21.254 64.989c.686 2.097-.028 4.302-1.813 5.599s-4.103 1.294-5.885-.006l-55.24-40.297c-1.785-1.302-4.108-1.302-5.893 0l-55.241 40.297c-1.782 1.3-4.1 1.302-5.885.006-1.785-1.297-2.499-3.502-1.813-5.599l21.255-64.989c.686-2.101-.031-4.309-1.821-5.605l-55.395-40.085c-1.788-1.293-2.506-3.497-1.824-5.596.682-2.098 2.559-3.459 4.765-3.455l68.376.132c2.21.004 4.089-1.361 4.768-3.464l21.005-65.071c.677-2.1 2.551-3.464 4.758-3.464 2.204.001 4.077 1.365 4.755 3.465z" fill="#ffd54f"/><path d="m489.562 452.109-7.998 7.998c-103.612 103.612-261.133-7.804-341.499-88.17-80.366-80.367-191.781-237.887-88.169-341.499l7.998-7.998c16.588-16.587 43.646-16.587 60.233 0l55.377 55.377c16.588 16.588 16.587 43.646 0 60.233l-18.756 18.756c-14.514 14.514-16.701 36.711-5.298 53.778 18.475 27.651 41.272 55.521 67.859 82.107 26.587 26.587 54.457 49.385 82.108 67.859 17.067 11.403 39.264 9.217 53.778-5.297l18.756-18.756c16.587-16.587 43.645-16.587 60.233 0l55.377 55.377c16.588 16.589 16.588 43.647.001 60.235z" fill="#e6e6e6" stroke="#e6e6e6" stroke-miterlimit="22.926" stroke-width=".216"/><path d="m301.418 360.551c-27.651-18.475-55.521-41.273-82.108-67.859-26.587-26.587-49.384-54.456-67.859-82.107-11.403-17.067-9.217-39.265 5.297-53.778l18.756-18.756c.891-.891 1.734-1.812 2.527-2.762l-115.377-115.378c-.948.795-1.869 1.638-2.76 2.529l-7.998 7.998c-103.612 103.612 7.803 261.132 88.169 341.498s237.886 191.782 341.499 88.169l7.998-7.997c.891-.891 1.734-1.812 2.526-2.762l-115.377-115.377c-.948.795-1.869 1.638-2.76 2.529l-18.756 18.756c-14.513 14.514-36.71 16.7-53.777 5.297z" fill="#92d2fe"/></g><path d="m482.488 445.042-7.997 7.987c-42.734 42.739-99.488 50.372-168.683 22.702-71.917-28.769-134.923-87.109-158.674-110.873-23.751-23.749-82.1-86.746-110.863-158.669-27.674-69.191-20.039-125.95 22.694-168.68l7.999-8.001c6.133-6.128 14.317-9.506 23.045-9.506 8.726 0 16.911 3.378 23.046 9.506l55.377 55.382c6.133 6.129 9.511 14.318 9.511 23.042 0 8.728-3.378 16.908-9.511 23.051l-18.755 18.749c-17.97 17.97-20.659 45.276-6.542 66.408 19.398 29.029 42.648 57.17 69.102 83.623 26.453 26.457 54.588 49.707 83.625 69.106 21.129 14.111 48.435 11.422 66.405-6.548l18.755-18.749c12.707-12.71 33.384-12.71 46.09 0l55.377 55.378c6.133 6.133 9.511 14.309 9.511 23.042 0 8.731-3.379 16.907-9.512 23.05zm-41.235-115.61c-20.506-20.513-53.871-20.513-74.377 0l-18.755 18.749c-11.135 11.139-28.058 12.799-41.15 4.057-27.949-18.678-55.066-41.087-80.593-66.62-25.529-25.528-47.943-52.646-66.615-80.589-8.75-13.097-7.082-30.02 4.052-41.149l18.755-18.763c9.913-9.907 15.371-23.117 15.371-37.185 0-14.073-5.458-27.269-15.37-37.181l-55.377-55.382c-9.911-9.907-23.117-15.371-37.188-15.371-14.068 0-27.276 5.463-37.187 15.371l-7.998 8.001c-25.994 25.99-40.839 56.911-44.121 91.898-2.814 30.024 2.904 63.101 17 98.352 30.139 75.348 90.666 140.76 115.291 165.392 24.625 24.618 90.032 85.147 165.39 115.289 29.421 11.771 57.341 17.701 83.225 17.701 5.122 0 10.162-.24 15.119-.703 34.991-3.279 65.913-18.126 91.905-44.116l8.001-8.001c9.907-9.912 15.366-23.122 15.366-37.19 0-14.069-5.459-27.269-15.366-37.191zm-80.55-226.152-56.535-.109 45.801 33.138c3.522 2.552 4.992 7.081 3.641 11.21l-17.572 53.74 45.672-33.317c3.51-2.562 8.275-2.562 11.787 0l45.672 33.317-17.574-53.74c-1.351-4.128.122-8.657 3.643-11.21l45.8-33.138-56.533.109c-.007 0-.013 0-.02 0-4.338 0-8.182-2.798-9.517-6.931l-17.366-53.802-17.364 53.803c-1.335 4.142-5.177 6.982-9.535 6.93zm-93.355-2.071 64.988 47.032-24.936 76.24c-1.349 4.128.116 8.653 3.627 11.2 1.753 1.279 3.815 1.911 5.879 1.911 2.067 0 4.137-.642 5.893-1.92l64.807-47.272 64.807 47.272c3.505 2.557 8.26 2.557 11.77.009 3.511-2.547 4.976-7.072 3.627-11.2l-24.934-76.24 64.986-47.032c3.515-2.538 4.991-7.058 3.651-11.186-1.34-4.123-5.18-6.912-9.511-6.912-.01 0-.014 0-.019 0l-80.219.16-24.642-76.342c-1.332-4.128-5.179-6.93-9.517-6.93-4.34 0-8.185 2.802-9.517 6.93l-24.643 76.343-80.217-.16c-.006 0-.013 0-.019 0-4.332 0-8.171 2.789-9.511 6.912-1.341 4.127.133 8.647 3.65 11.185z"/></g></svg>