<svg id="Layer_1" enable-background="new 0 0 512 512" height="512" viewBox="0 0 512 512" width="512" xmlns="http://www.w3.org/2000/svg"><g clip-rule="evenodd" fill-rule="evenodd"><g><g><path d="m317.942 466.305c0 19.63-16.064 35.695-35.694 35.695h-212.536c-19.631 0-35.694-16.062-35.694-35.695v-420.611c0-19.632 16.062-35.694 35.694-35.694h212.536c19.632 0 35.694 16.064 35.694 35.694z" fill="#6a676b"/><path d="m301.943 466.305v-420.611c0-10.8-8.895-19.695-19.695-19.695h-212.536c-10.8 0-19.694 8.894-19.694 19.695v420.611c0 10.8 8.894 19.695 19.694 19.695h212.536c10.799 0 19.695-8.896 19.695-19.695z" fill="#92d2fe"/><g fill="#6a676b"><ellipse cx="175.98" cy="431.911" rx="20.5" ry="20.5" transform="matrix(.991 -.136 .136 .991 -57.235 28.021)"/><path d="m117.725 56.157h116.509c4.406 0 8.149-2.719 9.51-6.91l9.504-29.247h-154.536l9.503 29.247c1.362 4.191 5.104 6.91 9.51 6.91z"/></g></g><g><path d="m345.979 103.825c72.902 0 132 59.098 132 132s-59.098 132-132 132c-24.054 0-46.604-6.437-66.025-17.678l-57.611 15.437c-1.773.475-3.531.004-4.829-1.294s-1.769-3.056-1.294-4.829l15.437-57.611c-11.241-19.422-17.678-41.971-17.678-66.025 0-72.902 59.098-132 132-132z" fill="#eb745e"/><path d="m419.759 261.876v-52.102c0-1.057-.499-1.966-1.392-2.532-.892-.567-1.927-.632-2.884-.183l-28.475 13.379v30.775l28.475 13.379c.957.45 1.991.384 2.884-.183s1.392-1.476 1.392-2.533z" fill="#e6e6e6"/><path d="m278.112 191.024h104.241c3.252 0 5.913 2.661 5.913 5.913v77.775c0 3.253-2.661 5.913-5.913 5.913h-104.241c-3.253 0-5.913-2.661-5.913-5.913v-77.775c-.001-3.252 2.66-5.913 5.913-5.913z" fill="#f2f2f2"/></g></g><path d="m409.758 250.579-11.488-5.609v-18.291l11.488-5.619zm-31.486 20.05h-96.073v-69.611h96.073zm46.786-74.059c-2.93-1.83-6.591-2.019-9.69-.509l-17.097 8.36v-7.482c0-8.78-7.143-15.918-15.918-15.918h-104.24c-8.775 0-15.913 7.138-15.913 15.918v77.773c0 8.78 7.138 15.918 15.913 15.918h104.24c8.775 0 15.918-7.138 15.918-15.918v-7.478l17.097 8.36c1.392.665 2.892 1.01 4.392 1.01 1.84 0 3.68-.514 5.298-1.524 2.92-1.816 4.704-5.029 4.704-8.478v-61.548c0-3.455-1.784-6.663-4.704-8.484zm-79.08 161.249c67.271 0 122.002-54.717 122.002-121.997 0-67.271-54.731-122.002-122.002-122.002s-121.997 54.731-121.997 122.002c0 21.457 5.647 42.559 16.333 61.02 1.33 2.298 1.689 5.029 1 7.601l-13.191 49.24 49.244-13.191c.854-.231 1.722-.339 2.59-.339 1.741 0 3.472.448 5.005 1.34 18.457 10.688 39.56 16.326 61.016 16.326zm-38.039 108.481v-93.658c-10.157-2.821-20.003-6.761-29.316-11.78l-62.053 16.616c-.859.231-1.727.344-2.59.344-2.618 0-5.171-1.024-7.072-2.92-2.524-2.534-3.515-6.214-2.585-9.662l16.625-62.058c-11.115-20.603-16.97-43.8-16.97-67.361 0-65.12 44.078-120.143 103.961-136.811v-53.32c0-14.163-11.521-25.688-25.688-25.688h-17.923l-13.319 40.988c-1.335 4.118-5.175 6.911-9.511 6.911h-131.036c-4.331 0-8.171-2.793-9.511-6.911l-13.319-40.988h-17.918c-14.168 0-25.693 11.525-25.693 25.688v420.61c0 14.168 11.525 25.702 25.693 25.702h212.536c14.168 0 25.689-11.535 25.689-25.702zm-64.638-446.298-9.063 27.896h-116.51l-9.067-27.896zm102.677 73.819c-6.109 0-12.129.387-18.041 1.137v-49.268c0-25.188-20.489-45.692-45.687-45.692h-212.536c-25.198 0-45.696 20.504-45.696 45.692v420.61c0 25.198 20.499 45.701 45.696 45.701h212.536c25.198 0 45.687-20.503 45.687-45.701v-89.629c5.973.76 11.993 1.151 18.041 1.151 78.301 0 142.001-63.704 142.001-142.001 0-78.291-63.699-142-142.001-142zm-169.996 353.471c-8.615 0-15.625-7.011-15.625-15.63 0-8.61 7.011-15.621 15.625-15.621 8.615 0 15.625 7.011 15.625 15.621.001 8.619-7.01 15.63-15.625 15.63zm0-51.254c19.645 0 35.624 15.979 35.624 35.624 0 19.64-15.979 35.629-35.624 35.629s-35.629-15.989-35.629-35.629c.001-19.645 15.985-35.624 35.629-35.624z"/></g></svg>