<svg id="Layer_1" enable-background="new 0 0 512 512" height="512" viewBox="0 0 512 512" width="512" xmlns="http://www.w3.org/2000/svg"><g clip-rule="evenodd" fill-rule="evenodd"><g><path d="m489.559 452.109-7.998 7.998c-103.612 103.612-261.133-7.804-341.499-88.17-80.365-80.367-191.78-237.887-88.168-341.499l7.998-7.998c16.587-16.587 43.646-16.587 60.233 0l55.377 55.377c16.587 16.588 16.587 43.646 0 60.233l-18.756 18.756c-14.514 14.514-16.701 36.711-5.298 53.778 18.475 27.651 41.273 55.521 67.859 82.107 26.587 26.587 54.458 49.385 82.108 67.859 17.067 11.403 39.264 9.217 53.778-5.297l18.756-18.756c16.587-16.587 43.645-16.587 60.233 0l55.377 55.377c16.588 16.589 16.588 43.647 0 60.235z" fill="#e6e6e6" stroke="#e6e6e6" stroke-miterlimit="22.926" stroke-width=".216"/><path d="m301.416 360.551c-27.65-18.475-55.521-41.273-82.108-67.859-26.587-26.587-49.384-54.456-67.859-82.107-11.403-17.067-9.217-39.265 5.297-53.778l18.756-18.756c.891-.891 1.734-1.812 2.527-2.762l-115.378-115.378c-.948.795-1.869 1.638-2.76 2.529l-7.998 7.998c-103.612 103.612 7.803 261.132 88.169 341.498s237.886 191.782 341.499 88.169l7.998-7.997c.891-.891 1.734-1.812 2.526-2.762l-115.376-115.377c-.948.795-1.869 1.638-2.76 2.529l-18.756 18.756c-14.514 14.514-36.71 16.7-53.777 5.297z" fill="#92d2fe"/></g><path d="m247.621 68.109c-3.911-3.902-3.911-10.238 0-14.139l51.037-51.042c3.902-3.906 10.242-3.906 14.139 0l51.043 51.042c3.911 3.902 3.911 10.238 0 14.139-1.948 1.953-4.51 2.93-7.067 2.93-2.562 0-5.124-.977-7.072-2.93l-33.973-33.968v109.981c0 28.759 23.391 52.15 52.15 52.15h100.13c5.52 0 10.002 4.477 10.002 9.997s-4.482 10.002-10.002 10.002h-100.13c-39.78 0-72.149-32.374-72.149-72.149v-109.981l-33.968 33.968c-3.902 3.902-10.243 3.902-14.14 0zm234.871 376.933c6.129-6.143 9.506-14.319 9.506-23.051 0-8.733-3.378-16.909-9.506-23.042l-55.382-55.378c-12.71-12.71-33.378-12.71-46.093 0l-18.758 18.749c-17.961 17.97-45.267 20.659-66.398 6.548-29.043-19.4-57.17-42.649-83.623-69.106-26.457-26.453-49.707-54.594-69.106-83.623-14.111-21.131-11.422-48.438 6.548-66.408l18.749-18.749c6.133-6.143 9.511-14.323 9.511-23.051 0-8.723-3.378-16.913-9.511-23.042l-55.378-55.382c-6.133-6.128-14.309-9.506-23.042-9.506-8.732 0-16.908 3.378-23.051 9.506l-7.996 8.001c-42.734 42.729-50.363 99.489-22.693 168.68 28.76 71.923 87.109 134.92 110.859 158.669 23.763 23.763 86.765 82.104 158.683 110.873 69.201 27.679 125.951 20.036 168.68-22.702zm14.139-60.242-55.382-55.368c-20.499-20.513-53.872-20.513-74.371 0l-18.758 18.749c-11.129 11.139-28.061 12.799-41.148 4.057-27.953-18.678-55.061-41.087-80.594-66.62-25.528-25.528-47.937-52.646-66.615-80.589-8.752-13.097-7.082-30.02 4.057-41.149l18.749-18.763c9.912-9.907 15.37-23.117 15.37-37.185 0-14.073-5.458-27.269-15.37-37.181l-55.369-55.382c-9.921-9.907-23.122-15.371-37.19-15.371s-27.278 5.463-37.19 15.371l-8.001 8.001c-25.992 25.99-40.838 56.911-44.122 91.898-2.807 30.024 2.911 63.101 17.003 98.352 30.142 75.348 90.671 140.76 115.289 165.392 24.632 24.618 90.029 85.147 165.392 115.289 29.42 11.771 57.34 17.701 83.226 17.701 5.124 0 10.162-.24 15.125-.703 34.987-3.279 65.908-18.126 91.898-44.116l8.001-8.001c9.907-9.912 15.366-23.122 15.366-37.19 0-14.07-5.458-27.271-15.366-37.192z"/></g></svg>