<svg id="Layer_1" enable-background="new 0 0 512 512" height="512" viewBox="0 0 512 512" width="512" xmlns="http://www.w3.org/2000/svg"><g><g><path clip-rule="evenodd" d="m326.158 80.159v195.308c0 38.748-31.412 70.159-70.159 70.159s-70.159-31.411-70.159-70.159v-195.28c-.488-38.594 31.89-70.187 70.159-70.187 38.748 0 70.159 31.412 70.159 70.159z" fill="#ffd54f" fill-rule="evenodd"/></g><path clip-rule="evenodd" d="m185.841 265.369c5.52 0 9.997-4.477 9.997-9.997v-175.181c0-.052 0-.09 0-.132-.198-15.621 5.902-30.5 17.163-41.908 11.389-11.531 27.057-18.149 42.998-18.149 33.171 0 60.161 26.986 60.161 60.157v35.643c0 5.52 4.477 10.002 9.997 10.002 5.524 0 10.002-4.482 10.002-10.002v-35.644c0-44.196-35.959-80.16-80.16-80.16-21.249 0-42.111 8.785-57.232 24.103-15.04 15.229-23.178 35.157-22.928 56.146v175.124c0 5.521 4.482 9.998 10.002 9.998zm130.319-52.9v62.992c0 33.18-26.991 60.161-60.161 60.161-16.908 0-32.581-6.878-43.932-19.06zm-118.251 118.251-41.979 41.979c26.231 26.981 62.299 42.319 100.069 42.319 76.952 0 139.562-62.596 139.562-139.548 0-5.529 4.477-9.997 9.997-9.997s10.002 4.468 10.002 9.997c0 84.618-66.219 154.05-149.559 159.23v57.302h79.117c5.52 0 10.002 4.477 10.002 9.997s-4.482 10.001-10.002 10.001h-178.238c-5.52 0-10.002-4.482-10.002-10.001 0-5.52 4.482-9.997 10.002-9.997h79.117v-57.302c-39.417-2.477-76.579-19.522-104.216-47.862l-67.814 67.814c-1.949 1.948-4.51 2.93-7.067 2.93-2.562 0-5.119-.981-7.072-2.93-3.902-3.902-3.902-10.242 0-14.139l378.202-378.202c3.897-3.902 10.228-3.902 14.139 0 3.902 3.911 3.902 10.238 0 14.139l-116.01 116.02v82.991c0 44.201-35.959 80.16-80.16 80.16-22.31-.001-43.012-8.969-58.09-24.901zm-88.459 3.949c1.84 3.25 5.218 5.081 8.709 5.081 1.67 0 3.359-.42 4.911-1.302 4.808-2.718 6.511-8.818 3.788-13.616-6.822-12.063-10.417-29.132-10.417-49.362 0-5.529-4.482-9.997-10.002-9.997s-10.002 4.468-10.002 9.997c.002 24.009 4.385 43.927 13.013 59.199z" fill-rule="evenodd"/></g></svg>