<svg id="Layer_1" enable-background="new 0 0 512 512" height="512" viewBox="0 0 512 512" width="512" xmlns="http://www.w3.org/2000/svg"><g><g><g clip-rule="evenodd" fill-rule="evenodd"><path d="m487.469 452.103-7.998 7.998c-103.612 103.612-261.133-7.804-341.499-88.17-80.365-80.366-191.78-237.886-88.168-341.498l7.998-7.998c16.588-16.587 43.646-16.587 60.233 0l55.377 55.377c16.588 16.588 16.587 43.646 0 60.233l-18.756 18.756c-14.514 14.514-16.701 36.711-5.298 53.778 18.475 27.651 41.272 55.521 67.859 82.107 26.587 26.587 54.458 49.385 82.108 67.859 17.067 11.403 39.264 9.216 53.778-5.297l18.756-18.756c16.587-16.587 43.645-16.587 60.233 0l55.377 55.377c16.588 16.588 16.588 43.647 0 60.234z" fill="#e6e6e6" stroke="#e6e6e6" stroke-miterlimit="22.926" stroke-width=".216"/><path d="m299.326 360.546c-27.651-18.475-55.521-41.273-82.108-67.859-26.587-26.587-49.384-54.456-67.859-82.107-11.403-17.067-9.217-39.265 5.297-53.778l18.756-18.756c.891-.891 1.734-1.812 2.527-2.762l-115.378-115.378c-.948.795-1.869 1.638-2.76 2.529l-7.998 7.998c-103.612 103.612 7.803 261.132 88.169 341.498s237.886 191.782 341.499 88.169l7.998-7.997c.891-.891 1.734-1.812 2.526-2.762l-115.376-115.377c-.948.795-1.869 1.638-2.76 2.529l-18.756 18.756c-14.514 14.513-36.711 16.7-53.777 5.297z" fill="#92d2fe"/></g><g><path clip-rule="evenodd" d="m295.078 29.079h186.792c12.227 0 22.23 8.355 22.23 18.566v113.979c0 10.21-10.005 18.566-22.23 18.566h-153.093l-47.642 41.6c-1.511 1.32-3.531 1.616-5.357.786-1.827-.83-2.932-2.546-2.932-4.552 0-59.028 0-110.337 0-170.379.001-10.212 10.005-18.566 22.232-18.566z" fill="#a2e19f" fill-rule="evenodd"/></g></g><path clip-rule="evenodd" d="m480.391 445.042-8.001 7.987c-42.729 42.739-99.479 50.381-168.68 22.702-71.913-28.769-134.919-87.109-158.669-110.873-23.749-23.749-82.104-86.746-110.863-158.669-27.68-69.191-20.037-125.95 22.692-168.68l8.001-8.001c6.345-6.345 14.696-9.53 23.037-9.53 8.351 0 16.692 3.184 23.051 9.53l55.368 55.382c6.142 6.129 9.52 14.318 9.52 23.042 0 8.728-3.378 16.908-9.52 23.051l-18.749 18.749c-17.97 17.97-20.659 45.276-6.539 66.408 19.39 29.029 42.64 57.161 69.097 83.623 26.453 26.457 54.594 49.707 83.623 69.106 21.141 14.111 48.438 11.422 66.408-6.548l18.753-18.749c12.71-12.71 33.388-12.71 46.097 0l55.373 55.378c6.138 6.133 9.506 14.309 9.506 23.042.001 8.731-3.367 16.907-9.505 23.05zm-41.234-115.61c-20.508-20.513-53.868-20.513-74.376 0l-18.753 18.749c-11.138 11.139-28.061 12.799-41.149 4.057-27.953-18.678-55.071-41.087-80.599-66.62-25.533-25.528-47.942-52.646-66.611-80.589-8.751-13.097-7.081-30.02 4.048-41.149l18.763-18.763c9.907-9.907 15.37-23.117 15.37-37.185 0-14.073-5.463-27.269-15.37-37.181l-55.382-55.382c-20.498-20.509-53.867-20.509-74.38 0l-7.987 8.001c-26.005 25.99-40.842 56.911-44.121 91.898-2.821 30.024 2.901 63.101 16.998 98.352 30.142 75.348 90.662 140.76 115.288 165.392 24.622 24.618 90.034 85.147 165.392 115.289 29.42 11.771 57.34 17.701 83.222 17.701 5.119 0 10.157-.24 15.121-.703 34.987-3.279 65.908-18.126 91.907-44.116l8.001-8.001c9.907-9.912 15.371-23.122 15.371-37.19 0-14.069-5.463-27.269-15.371-37.191zm16.003-224.793c0-7.69-6.27-13.96-13.96-13.96s-13.96 6.27-13.96 13.96 6.27 13.96 13.96 13.96 13.96-6.27 13.96-13.96zm-52.731 0c0-7.69-6.27-13.96-13.96-13.96s-13.96 6.27-13.96 13.96 6.27 13.96 13.96 13.96 13.96-6.27 13.96-13.96zm-52.73 0c0-7.69-6.279-13.96-13.969-13.96s-13.96 6.27-13.96 13.96 6.27 13.96 13.96 13.96c7.689 0 13.969-6.27 13.969-13.96zm144.397 56.991v-113.977c0-4.562-5.718-8.572-12.229-8.572h-186.801c-6.506 0-12.228 4.01-12.228 8.572v159.367l39.361-34.36c1.821-1.59 4.152-2.467 6.572-2.467h153.097c6.51 0 12.228-4.001 12.228-8.563zm-12.229-142.548h-186.801c-17.767 0-32.227 12.818-32.227 28.571v181.375c0 3.921 2.288 7.483 5.869 9.11 1.321.604 2.732.891 4.133.891 2.368 0 4.718-.84 6.576-2.472l53.104-46.366h149.346c17.772 0 32.232-12.814 32.232-28.562v-113.976c.001-15.753-14.46-28.571-32.232-28.571z" fill-rule="evenodd"/></g></svg>