<svg id="Layer_1" enable-background="new 0 0 512 512" height="512" viewBox="0 0 512 512" width="512" xmlns="http://www.w3.org/2000/svg"><g clip-rule="evenodd" fill-rule="evenodd"><g><path d="m377.043 357.642-4.145 4.145c-53.702 53.702-135.343-4.045-176.996-45.698s-99.399-123.294-45.698-176.996l4.145-4.145c8.597-8.597 22.621-8.597 31.218 0l28.702 28.702c8.597 8.597 8.597 22.621 0 31.218l-9.721 9.721c-7.522 7.522-8.656 19.027-2.746 27.873 9.575 14.331 21.391 28.776 35.171 42.556s28.225 25.596 42.556 35.171c8.845 5.91 20.35 4.777 27.872-2.746l9.721-9.721c8.597-8.597 22.621-8.597 31.218 0l28.702 28.702c8.598 8.596 8.598 22.62.001 31.218z" fill="#e6e6e6" stroke="#e6e6e6" stroke-miterlimit="22.926" stroke-width=".216"/><path d="m279.529 310.188c-14.331-9.575-28.776-21.391-42.556-35.171s-25.595-28.224-35.171-42.555c-5.91-8.846-4.777-20.351 2.746-27.873l9.721-9.721c.462-.462.898-.939 1.31-1.432l-59.799-59.799c-.491.412-.969.849-1.43 1.311l-4.145 4.145c-53.701 53.701 4.045 135.343 45.697 176.996 41.653 41.653 123.295 99.399 176.996 45.697l4.145-4.145c.462-.462.899-.939 1.309-1.432l-59.799-59.799c-.491.412-.969.849-1.43 1.311l-9.721 9.721c-7.523 7.523-19.027 8.656-27.873 2.746z" fill="#92d2fe"/></g><path d="m210.726 179.26c0-3.241-1.245-6.27-3.52-8.539l-28.699-28.703c-2.359-2.35-5.449-3.529-8.539-3.529s-6.19 1.17-8.539 3.529l-4.142 4.142c-20.659 20.659-24.259 48.329-10.7 82.24 14.583 36.44 44.29 68.521 56.392 80.618 12.101 12.101 44.177 41.814 80.618 56.392 33.912 13.559 61.581 9.959 82.231-10.69l4.152-4.152c4.708-4.708 4.708-12.365 0-17.078l-28.703-28.699c-2.269-2.269-5.298-3.519-8.539-3.519s-6.27 1.25-8.539 3.519l-9.719 9.719c-10.959 10.959-27.613 12.601-40.502 3.991-15.309-10.233-30.128-22.48-44.069-36.412-13.932-13.937-26.179-28.76-36.412-44.069-8.61-12.889-6.968-29.538 3.991-40.502l9.719-9.719c2.274-2.269 3.519-5.298 3.519-8.539zm.901 32.402c-4.128 4.128-4.751 10.389-1.5 15.248 9.502 14.219 20.909 28.033 33.921 41.04 13.012 13.012 26.821 24.419 41.04 33.921 4.85 3.241 11.12 2.628 15.253-1.5l9.719-9.719c6.048-6.053 14.101-9.384 22.678-9.384 8.582 0 16.64 3.331 22.683 9.384l28.698 28.698c12.512 12.512 12.512 32.859 0 45.361l-4.142 4.147c-16.357 16.352-36.318 24.603-58.958 24.603-13.998 0-29.01-3.152-44.843-9.483-39.889-15.951-74.366-47.848-87.336-60.817-12.969-12.969-44.871-47.451-60.822-87.34-16.569-41.441-11.342-77.334 15.12-103.801l4.152-4.142c12.497-12.507 32.85-12.507 45.357 0l28.703 28.703c6.048 6.039 9.379 14.097 9.379 22.678 0 8.582-3.331 16.63-9.379 22.678zm300.353 44.338c0 68.38-26.608 132.66-74.961 181.022-48.353 48.348-112.642 74.98-181.022 74.98s-132.669-26.632-181.017-74.98c-48.352-48.363-74.979-112.643-74.979-181.022 0-11.181.726-22.419 2.156-33.407.712-5.482 5.723-9.351 11.214-8.633 5.477.722 9.337 5.742 8.62 11.209-1.321 10.143-1.991 20.513-1.991 30.831 0 130.131 105.867 236.003 235.998 236.003s235.979-105.872 235.979-236.003-105.849-235.998-235.979-235.998c-66.889 0-129.282 27.67-173.959 76.508h31.538c5.525 0 10.002 4.482 10.002 10.002 0 5.529-4.477 9.997-10.002 9.997h-52.947c-5.52 0-10.002-4.468-10.002-9.997v-52.953c0-5.52 4.482-10.002 10.002-10.002 5.529 0 9.997 4.482 9.997 10.002v25.934c20.504-21.485 44.724-39.464 71.163-52.665 35.648-17.81 74.079-26.83 114.208-26.83 68.38 0 132.669 26.632 181.022 74.985 48.352 48.348 74.96 112.637 74.96 181.017z"/></g></svg>