<svg id="Layer_1" enable-background="new 0 0 512 512" height="512" viewBox="0 0 512 512" width="512" xmlns="http://www.w3.org/2000/svg"><g><g><g clip-rule="evenodd" fill-rule="evenodd"><path d="m342.946 466.305c0 19.63-16.064 35.695-35.694 35.695h-212.536c-19.631 0-35.694-16.062-35.694-35.695v-420.611c0-19.632 16.063-35.694 35.694-35.694h212.536c19.632 0 35.694 16.064 35.694 35.694z" fill="#6a676b"/><path d="m326.947 466.305v-420.611c0-10.8-8.895-19.695-19.695-19.695h-212.536c-10.8 0-19.695 8.894-19.695 19.695v420.611c0 10.8 8.894 19.695 19.695 19.695h212.536c10.799 0 19.695-8.896 19.695-19.695z" fill="#92d2fe"/><g fill="#6a676b"><ellipse cx="200.984" cy="431.911" rx="20.5" ry="20.5" transform="matrix(.973 -.23 .23 .973 -93.857 57.731)"/><path d="m142.73 56.157h116.509c4.406 0 8.149-2.719 9.51-6.91l9.503-29.247h-154.535l9.503 29.247c1.361 4.191 5.104 6.91 9.51 6.91z"/></g></g><g><ellipse clip-rule="evenodd" cx="342.946" cy="256" fill="#eb745e" fill-rule="evenodd" rx="110.036" ry="110.036" transform="matrix(.707 -.707 .707 .707 -80.572 317.48)"/></g></g><path clip-rule="evenodd" d="m392.299 220.8-35.195 35.2 35.195 35.199c3.868 3.902 3.868 10.228 0 14.139-3.916 3.902-10.238 3.902-14.153 0l-35.195-35.199-35.195 35.199c-1.981 1.953-4.529 2.93-7.077 2.93s-5.142-.977-7.077-2.93c-3.916-3.911-3.916-10.238 0-14.139l35.196-35.199-35.195-35.2c-3.916-3.902-3.916-10.238 0-14.139 3.916-3.911 10.238-3.911 14.153 0l35.195 35.199 35.195-35.199c3.916-3.902 10.238-3.902 14.153 0 3.869 3.902 3.869 10.237 0 14.139zm-49.348 135.24c55.151 0 100.017-44.88 100.017-100.041 0-55.16-44.866-100.041-100.017-100.041s-100.064 44.88-100.064 100.041 44.913 100.041 100.064 100.041zm-35.714 135.962c14.2 0 25.712-11.535 25.712-25.702v-90.681c-61.52-5.1-110.019-56.797-110.019-119.62 0-62.817 48.499-114.52 110.019-119.62v-90.689c0-14.163-11.512-25.688-25.712-25.688h-17.927l-13.304 40.988c-1.321 4.118-5.19 6.911-9.53 6.911h-131.013c-4.34 0-8.162-2.793-9.53-6.911l-13.304-40.988h-17.928c-14.153 0-25.665 11.525-25.665 25.688v420.61c0 14.168 11.511 25.702 25.665 25.702zm-38.922-472-9.058 27.896h-116.529l-9.058-27.896zm194.656 235.998c0-62.817-48.499-114.52-110.019-119.62v-90.69c0-25.188-20.522-45.692-45.715-45.692h-212.536c-25.193 0-45.668 20.504-45.668 45.692v420.61c0 25.198 20.475 45.701 45.668 45.701h212.537c25.193 0 45.715-20.503 45.715-45.701v-90.681c61.52-5.1 110.018-56.797 110.018-119.619zm-261.978 191.292c-8.633 0-15.616-7.011-15.616-15.63 0-8.61 6.982-15.621 15.616-15.621 8.586 0 15.616 7.011 15.616 15.621 0 8.619-7.03 15.63-15.616 15.63zm0-51.254c19.626 0 35.619 15.979 35.619 35.624 0 19.64-15.993 35.629-35.619 35.629-19.673 0-35.619-15.989-35.619-35.629-.001-19.645 15.946-35.624 35.619-35.624z" fill-rule="evenodd"/></g></svg>