<svg id="Layer_1" enable-background="new 0 0 512 512" height="512" viewBox="0 0 512 512" width="512" xmlns="http://www.w3.org/2000/svg"><g clip-rule="evenodd" fill-rule="evenodd"><g><g><ellipse cx="375.283" cy="58.722" fill="#e6e6e6" rx="48.728" ry="48.728" transform="matrix(.973 -.23 .23 .973 -3.452 87.793)"/><path d="m278.579 227.241h193.419c2.93 0 5.451-1.119 7.416-3.292s2.827-4.793 2.534-7.708c-5.484-54.564-51.411-95.559-107.32-95.559-55.13 0-100.481 41.865-105.996 95.537-.299 2.918.559 5.544 2.525 7.722 1.964 2.178 4.489 3.3 7.422 3.3z" fill="#a2e19f"/></g><g><path d="m489.564 452.103-7.998 7.998c-103.612 103.612-261.133-7.804-341.499-88.17-80.365-80.366-191.78-237.886-88.168-341.498l7.998-7.998c16.588-16.587 43.646-16.587 60.233 0l55.377 55.377c16.587 16.588 16.587 43.646 0 60.233l-18.756 18.756c-14.514 14.514-16.701 36.711-5.298 53.778 18.475 27.651 41.273 55.521 67.859 82.107 26.587 26.587 54.458 49.385 82.108 67.859 17.067 11.403 39.264 9.216 53.778-5.297l18.756-18.756c16.587-16.587 43.645-16.587 60.233 0l55.377 55.377c16.588 16.588 16.588 43.647 0 60.234z" fill="#e6e6e6" stroke="#e6e6e6" stroke-miterlimit="22.926" stroke-width=".216"/><path d="m301.421 360.546c-27.651-18.475-55.521-41.273-82.108-67.859-26.587-26.587-49.384-54.456-67.859-82.107-11.403-17.067-9.217-39.265 5.297-53.778l18.756-18.756c.891-.891 1.734-1.812 2.527-2.762l-115.378-115.378c-.948.795-1.869 1.638-2.76 2.529l-7.998 7.998c-103.612 103.612 7.803 261.132 88.169 341.498s237.886 191.782 341.499 88.169l7.998-7.997c.891-.891 1.734-1.812 2.526-2.762l-115.376-115.377c-.948.795-1.869 1.638-2.76 2.529l-18.756 18.756c-14.514 14.513-36.711 16.7-53.777 5.297z" fill="#92d2fe"/></g></g><path d="m482.465 445.042-7.973 7.987c-42.743 42.739-99.498 50.381-168.661 22.702-71.946-28.769-134.976-87.109-158.706-110.873-23.731-23.749-82.09-86.746-110.868-158.669-27.647-69.191-20.051-125.95 22.692-168.68l8.02-8.001c6.369-6.345 14.672-9.53 23.023-9.53s16.701 3.184 23.07 9.53l55.387 55.382c12.691 12.71 12.691 33.378 0 46.093l-18.777 18.749c-17.975 17.97-20.664 45.276-6.558 66.408 19.39 29.029 42.649 57.17 69.115 83.623 26.467 26.457 54.585 49.707 83.647 69.106 21.136 14.111 48.405 11.422 66.379-6.548l18.777-18.749c6.133-6.133 14.295-9.511 23.023-9.511s16.937 3.378 23.07 9.511l55.34 55.378c12.738 12.699 12.738 33.382 0 46.092zm14.153-60.242-55.387-55.368c-9.907-9.912-23.117-15.37-37.176-15.37s-27.269 5.458-37.176 15.37l-18.777 18.749c-11.134 11.139-28.023 12.799-41.139 4.057-27.929-18.678-55.056-41.087-80.58-66.62-25.523-25.528-47.933-52.646-66.615-80.589-8.775-13.097-7.077-30.02 4.057-41.149l18.73-18.763c9.907-9.907 15.38-23.117 15.38-37.185 0-14.073-5.473-27.269-15.38-37.181l-55.34-55.382c-20.522-20.508-53.877-20.508-74.4 0l-8.02 8.001c-25.947 25.99-40.808 56.911-44.111 91.898-2.783 30.024 2.925 63.101 17.031 98.352 30.1 75.348 90.676 140.76 115.256 165.392 24.627 24.618 90.063 85.147 165.406 115.289 29.439 11.771 57.321 17.701 83.222 17.701 5.143 0 10.191-.24 15.144-.703 34.959-3.279 65.907-18.126 91.903-44.116l7.973-8.001c20.522-20.514 20.522-53.874-.001-74.382zm-122.002-254.11c-49.678 0-90.959 37.209-96.054 86.562h193.429c-4.953-49.352-46.8-86.562-97.375-86.562zm-38.072-71.96c0 21.353 17.361 38.728 38.733 38.728s38.733-17.375 38.733-38.728c0-21.362-17.362-38.728-38.733-38.728s-38.733 17.366-38.733 38.728zm-57.982 178.521h193.429c5.709 0 10.992-2.34 14.814-6.591 3.869-4.241 5.661-9.719 5.095-15.408-5.19-51.82-44.017-92.563-94.026-102.324 21.183-8.869 36.138-29.817 36.138-54.198 0-32.392-26.373-58.732-58.737-58.732s-58.735 26.34-58.735 58.732c0 24.268 14.814 45.149 35.855 54.089-20.805 4.02-40.195 13.649-56.094 28.099-21.324 19.371-34.676 45.744-37.601 74.282-.613 5.699 1.18 11.191 5.048 15.451 3.821 4.251 9.106 6.6 14.814 6.6z"/></g></svg>