<svg id="Layer_1" enable-background="new 0 0 512 512" height="512" viewBox="0 0 512 512" width="512" xmlns="http://www.w3.org/2000/svg"><g><g><g><ellipse clip-rule="evenodd" cx="381.451" cy="130.551" fill="#a2e19f" fill-rule="evenodd" rx="120.549" ry="120.55" transform="matrix(.707 -.707 .707 .707 19.411 307.964)"/></g><g clip-rule="evenodd" fill-rule="evenodd"><path d="m489.56 452.11-7.998 7.998c-103.612 103.612-261.133-7.804-341.499-88.17-80.365-80.366-191.78-237.886-88.168-341.498l7.998-7.998c16.587-16.588 43.646-16.588 60.233 0l55.377 55.377c16.588 16.588 16.587 43.646 0 60.233l-18.756 18.756c-14.514 14.514-16.701 36.711-5.298 53.778 18.475 27.65 41.272 55.521 67.859 82.107 26.587 26.587 54.458 49.385 82.108 67.859 17.067 11.403 39.264 9.217 53.778-5.297l18.756-18.755c16.587-16.587 43.645-16.587 60.233 0l55.377 55.377c16.588 16.588 16.588 43.646 0 60.233z" fill="#e6e6e6" stroke="#e6e6e6" stroke-miterlimit="22.926" stroke-width=".216"/><path d="m301.417 360.553c-27.65-18.475-55.521-41.273-82.108-67.859-26.587-26.587-49.384-54.456-67.859-82.107-11.403-17.067-9.217-39.265 5.297-53.778l18.756-18.756c.891-.891 1.734-1.812 2.527-2.762l-115.378-115.378c-.948.795-1.869 1.638-2.76 2.529l-7.998 7.998c-103.612 103.612 7.803 261.132 88.169 341.498s237.886 191.782 341.498 88.169l7.998-7.997c.891-.891 1.734-1.812 2.526-2.762l-115.375-115.377c-.948.795-1.869 1.638-2.76 2.529l-18.756 18.756c-14.514 14.514-36.711 16.7-53.777 5.297z" fill="#92d2fe"/></g></g><path clip-rule="evenodd" d="m381.45 20.001c60.957 0 110.55 49.589 110.55 110.55 0 60.959-49.593 110.549-110.55 110.549s-110.549-49.59-110.549-110.549c0-60.961 49.592-110.55 110.549-110.55zm0 241.1c71.987 0 130.548-58.57 130.548-130.55 0-71.99-58.562-130.549-130.548-130.549-71.985 0-130.548 58.558-130.548 130.549 0 71.98 58.563 130.55 130.548 130.55zm44.148-148.141-21.451 37.16h21.451zm-38.77 57.159h38.77v15.341c0 5.521 4.477 9.999 10 9.999s10-4.478 10-9.999v-15.341h3.603c5.523 0 10.001-4.48 10.001-9.999 0-5.531-4.478-9.999-10.001-9.999h-3.603v-74.481c0-4.52-3.039-8.49-7.412-9.66-4.37-1.17-8.986.741-11.247 4.661l-48.77 84.479c-1.788 3.091-1.788 6.9 0 10 1.784 3.09 5.085 4.999 8.659 4.999zm-39.523-62.869-42.266 73.21c-1.786 3.091-1.786 6.9 0 10 1.785 3.09 5.088 4.999 8.66 4.999h45.542c5.523 0 9.999-4.478 9.999-9.999 0-5.531-4.476-9.999-9.999-9.999h-28.22l33.605-58.209c9.486-16.431 3.837-37.51-12.59-46.99-16.428-9.491-37.51-3.84-46.996 12.589-2.76 4.781-1.122 10.9 3.66 13.661 4.784 2.759 10.899 1.118 13.661-3.66 3.969-6.881 12.795-9.251 19.673-5.271 6.876 3.969 9.242 12.789 5.271 19.669zm135.183 337.79c6.133-6.141 9.511-14.32 9.511-23.049 0-8.73-3.378-16.91-9.511-23.04l-55.377-55.38c-12.707-12.711-33.384-12.711-46.09 0l-18.755 18.749c-17.972 17.97-45.276 20.66-66.405 6.55-29.033-19.4-57.168-42.65-83.625-69.11-26.455-26.449-49.704-54.59-69.102-83.619-14.117-21.131-11.428-48.44 6.542-66.41l18.755-18.75c6.133-6.14 9.511-14.321 9.511-23.051 0-8.718-3.378-16.909-9.511-23.04l-55.377-55.378c-6.133-6.133-14.32-9.511-23.046-9.511-8.728 0-16.912 3.378-23.045 9.511l-7.999 7.997c-42.732 42.731-50.367 99.492-22.693 168.681 28.764 71.921 87.112 134.92 110.863 158.671 23.751 23.758 86.76 82.098 158.674 110.868 69.195 27.671 125.949 20.041 168.683-22.699zm-41.235-115.61c-20.504-20.51-53.87-20.51-74.377 0l-18.755 18.749c-11.135 11.141-28.058 12.801-41.15 4.062-27.945-18.681-55.06-41.091-80.593-66.62-25.529-25.53-47.943-52.651-66.615-80.592-8.748-13.099-7.082-30.018 4.052-41.149l18.757-18.759c9.911-9.911 15.37-23.121 15.37-37.191 0-14.068-5.458-27.269-15.37-37.179l-55.377-55.382c-9.911-9.907-23.117-15.366-37.188-15.366-14.07 0-27.276 5.459-37.187 15.366l-7.998 8.001c-25.995 25.991-40.84 56.911-44.122 91.9-2.814 30.02 2.906 63.101 17 98.351 30.14 75.35 90.666 140.76 115.291 165.39 24.625 24.619 90.032 85.148 165.39 115.289 29.421 11.771 57.341 17.701 83.225 17.701 5.122 0 10.162-.241 15.119-.7 34.991-3.28 65.913-18.13 91.905-44.12l8.001-8c9.907-9.909 15.366-23.119 15.366-37.19 0-14.07-5.459-27.271-15.366-37.191z" fill-rule="evenodd"/></g></svg>