<svg id="Layer_1" enable-background="new 0 0 512 512" height="512" viewBox="0 0 512 512" width="512" xmlns="http://www.w3.org/2000/svg"><g clip-rule="evenodd" fill-rule="evenodd"><g><path d="m9.999 390.809v-9.158c0-118.643 153.975-145.04 246-145.04s245.999 26.396 245.999 145.04v9.158c0 18.994-15.492 34.486-34.486 34.486h-63.411c-18.994 0-34.485-15.492-34.485-34.486v-21.476c0-16.62-11.457-30.58-27.757-33.823-26.408-5.253-55.418-8.158-85.861-8.158s-59.453 2.904-85.862 8.158c-16.3 3.243-27.757 17.203-27.757 33.822v21.477c0 18.994-15.491 34.486-34.485 34.486h-63.41c-18.993 0-34.485-15.492-34.485-34.486z" fill="#e6e6e6" stroke="#e6e6e6" stroke-miterlimit="22.926" stroke-width=".216"/><path d="m170.137 335.51c26.408-5.253 55.418-8.158 85.861-8.158s59.452 2.904 85.861 8.158c16.3 3.243 27.757 17.203 27.757 33.823v21.477c0 1.02.045 2.03.135 3.028h132.115c.088-.998.132-2.008.132-3.028v-9.158c0-118.643-153.975-145.04-246-145.04-92.024 0-246 26.396-246 145.04v9.158c0 1.02.045 2.03.135 3.028l132.115.001c.088-.998.132-2.008.132-3.028v-21.477c.001-16.62 11.457-30.581 27.757-33.824z" fill="#92d2fe"/></g><path d="m131.107 116.069c-3.906-3.9-3.906-10.239 0-14.139 3.906-3.911 10.238-3.911 14.144 0l65.809 65.809c8.973 8.969 20.97 13.919 33.77 13.919 12.804 0 24.801-4.95 33.775-13.919l71.078-71.08h-42.95c-5.52 0-10.002-4.48-10.002-9.999 0-5.521 4.482-10.001 10.002-10.001h67.087c5.52 0 10.002 4.48 10.002 10.001v67.09c0 5.519-4.482 9.999-10.002 9.999s-9.997-4.48-9.997-9.999v-42.95l-71.073 71.08c-12.757 12.749-29.774 19.78-47.919 19.78s-35.162-7.031-47.914-19.78zm360.892 274.781c0 6.52-2.547 12.661-7.19 17.3-4.642 4.63-10.78 7.19-17.3 7.19h-63.407c-13.502 0-24.481-10.989-24.481-24.49v-21.48c0-21.49-14.734-39.43-35.813-43.63-27.849-5.539-57.392-8.35-87.807-8.35-30.416 0-59.963 2.811-87.812 8.35-21.084 4.2-35.808 22.14-35.808 43.63v21.479c0 13.501-10.983 24.49-24.485 24.49h-63.412c-6.516 0-12.653-2.56-17.291-7.19-4.638-4.64-7.195-10.78-7.195-17.3v-9.159c0-48.1 27.736-84.371 82.434-107.82 57.317-24.56 126.489-27.221 153.569-27.221s96.248 2.661 153.569 27.221c54.703 23.449 82.429 59.721 82.429 107.82zm-7.799-88.249c-15.762-19.031-38.219-34.881-66.752-47.111-60.728-26.029-133.136-28.839-161.448-28.839-28.316 0-100.725 2.81-161.452 28.839-28.524 12.231-50.985 28.08-66.752 47.111-18.446 22.258-27.797 48.869-27.797 79.089v9.159c0 11.86 4.633 23.021 13.049 31.441 8.417 8.409 19.579 13.05 31.439 13.05h63.407c24.533 0 44.489-19.96 44.489-44.491v-21.479c0-11.831 8.1-21.7 19.706-24.011 26.571-5.289 54.802-7.971 83.911-7.971s57.34 2.682 83.911 7.971c11.596 2.311 19.711 12.18 19.711 24.011v21.479c0 24.53 19.947 44.491 44.479 44.491h63.407.009c11.851 0 23.023-4.641 31.43-13.05 8.421-8.42 13.05-19.581 13.05-31.441v-9.159c.001-30.22-9.345-56.831-27.797-79.089z"/></g></svg>