<svg id="Layer_1" enable-background="new 0 0 512 512" height="512" viewBox="0 0 512 512" width="512" xmlns="http://www.w3.org/2000/svg"><g clip-rule="evenodd" fill-rule="evenodd"><g><path d="m435.999 128.478c0 28.981-23.495 52.476-52.475 52.476-28.983 0-52.475-23.495-52.475-52.476 0-28.982 23.492-52.475 52.475-52.475 28.98 0 52.475 23.492 52.475 52.475zm58.218 19.629c4.3 0 7.783-3.485 7.783-7.782v-23.694c0-4.297-3.483-7.783-7.783-7.783-23.331 0-35.037-28.265-18.541-44.762 3.039-3.039 3.039-7.968 0-11.007l-16.755-16.755c-3.039-3.039-7.968-3.039-11.007 0-16.496 16.497-44.762 4.791-44.762-18.541 0-4.3-3.485-7.783-7.783-7.783h-23.694c-4.297 0-7.782 3.483-7.782 7.783 0 23.331-28.266 35.037-44.762 18.541-3.039-3.039-7.968-3.039-11.007 0l-16.753 16.756c-3.039 3.039-3.039 7.968 0 11.007 16.496 16.496 4.791 44.762-18.541 44.762-4.3 0-7.782 3.485-7.782 7.783v23.694c0 4.297 3.483 7.782 7.782 7.782 23.331 0 35.037 28.266 18.541 44.762-3.039 3.039-3.039 7.968 0 11.007l16.755 16.755c3.039 3.039 7.968 3.039 11.007 0 16.517-16.518 44.762-4.819 44.762 18.541 0 4.299 3.485 7.782 7.782 7.782h23.694c4.297 0 7.783-3.483 7.783-7.782 0-23.331 28.265-35.037 44.762-18.541 3.039 3.039 7.968 3.039 11.007 0l16.755-16.755c3.039-3.039 3.039-7.968 0-11.007-16.498-16.497-4.792-44.763 18.539-44.763z" fill="#ffd54f"/><path d="m489.559 452.11-7.998 7.998c-103.612 103.612-261.133-7.804-341.499-88.17-80.365-80.366-191.78-237.886-88.168-341.498l7.998-7.998c16.587-16.588 43.646-16.588 60.233 0l55.377 55.377c16.587 16.588 16.587 43.646 0 60.233l-18.756 18.756c-14.514 14.514-16.701 36.711-5.298 53.778 18.475 27.65 41.273 55.521 67.859 82.107 26.587 26.587 54.458 49.385 82.108 67.859 17.067 11.403 39.264 9.217 53.778-5.297l18.756-18.756c16.587-16.587 43.645-16.587 60.233 0l55.377 55.377c16.588 16.589 16.588 43.647 0 60.234z" fill="#e6e6e6" stroke="#e6e6e6" stroke-miterlimit="22.926" stroke-width=".216"/><path d="m301.416 360.553c-27.65-18.475-55.521-41.273-82.108-67.859-26.587-26.587-49.384-54.456-67.859-82.107-11.403-17.067-9.217-39.265 5.297-53.778l18.756-18.756c.891-.891 1.734-1.812 2.527-2.762l-115.378-115.378c-.948.795-1.869 1.638-2.76 2.529l-7.998 7.998c-103.612 103.612 7.803 261.132 88.169 341.498s237.886 191.782 341.499 88.169l7.998-7.997c.891-.891 1.734-1.812 2.526-2.762l-115.376-115.377c-.948.795-1.869 1.638-2.76 2.529l-18.756 18.756c-14.514 14.514-36.71 16.7-53.777 5.297z" fill="#92d2fe"/></g><path d="m491.998 138.169c-13.96.8-25.797 9.19-31.227 22.301-5.43 13.11-2.991 27.42 6.308 37.86l-13.71 13.71c-10.441-9.311-24.74-11.739-37.851-6.32-13.111 5.429-21.499 17.27-22.301 31.23h-19.385c-.802-13.969-9.19-25.809-22.301-31.241-13.101-5.429-27.41-2.989-37.86 6.33l-13.71-13.71c9.308-10.44 11.738-24.75 6.308-37.86s-17.258-21.501-31.218-22.301v-19.388c13.96-.8 25.788-9.191 31.218-22.301s3-27.409-6.308-37.849l13.71-13.712c10.44 9.301 24.749 11.73 37.86 6.31 13.101-5.429 21.499-17.268 22.301-31.228h19.385c.802 13.96 9.19 25.799 22.301 31.228 13.111 5.431 27.41 2.991 37.851-6.31l13.71 13.712c-9.299 10.44-11.738 24.739-6.308 37.849s17.267 21.501 31.227 22.301zm2.222-39.32c-6.779 0-12.37-3.748-14.97-10.02-2.599-6.279-1.293-12.889 3.501-17.67 6.926-6.94 6.926-18.221 0-25.15l-16.762-16.762c-6.93-6.926-18.211-6.926-25.151 0-4.779 4.793-11.389 6.105-17.668 3.501-6.27-2.6-10.021-8.199-10.021-14.97 0-9.799-7.969-17.777-17.781-17.777h-23.688c-9.813 0-17.791 7.978-17.791 17.777 0 6.77-3.741 12.37-10.021 14.97-6.27 2.604-12.879 1.293-17.668-3.501-6.93-6.926-18.211-6.926-25.15 0l-16.753 16.763c-6.926 6.929-6.926 18.21 0 25.15 4.793 4.78 6.1 11.391 3.501 17.67-2.6 6.271-8.2 10.02-14.97 10.02-9.808 0-17.777 7.971-17.777 17.78v23.69c0 9.81 7.968 17.781 17.777 17.781 6.77 0 12.37 3.75 14.97 10.029 2.599 6.271 1.293 12.882-3.501 17.671-3.359 3.348-5.208 7.819-5.208 12.568 0 4.751 1.849 9.222 5.208 12.571l16.753 16.761c6.94 6.93 18.22 6.93 25.15 0 4.798-4.801 11.408-6.111 17.678-3.52 6.27 2.601 10.011 8.199 10.011 14.99 0 9.799 7.978 17.78 17.791 17.78h23.688c9.813 0 17.781-7.982 17.781-17.78 0-6.771 3.751-12.371 10.021-14.97 6.279-2.6 12.879-1.29 17.668 3.5 6.94 6.93 18.22 6.93 25.151 0l16.762-16.75c3.359-3.36 5.209-7.83 5.209-12.581 0-4.749-1.85-9.22-5.209-12.568-4.793-4.79-6.1-11.4-3.501-17.671 2.599-6.279 8.19-10.029 14.97-10.029 9.799 0 17.777-7.971 17.777-17.781v-23.69c0-9.811-7.978-17.782-17.777-17.782zm-110.698 72.102c23.419 0 42.479-19.05 42.479-42.471 0-23.429-19.06-42.479-42.479-42.479-23.424 0-42.474 19.05-42.474 42.479 0 23.421 19.05 42.471 42.474 42.471zm0-104.951c-34.454 0-62.473 28.03-62.473 62.48 0 34.451 28.019 62.47 62.473 62.47 34.444 0 62.478-28.019 62.478-62.47 0-34.45-28.033-62.48-62.478-62.48zm98.97 379.04c6.129-6.141 9.506-14.32 9.506-23.049 0-8.73-3.378-16.91-9.506-23.04l-55.382-55.38c-12.71-12.711-33.378-12.711-46.093 0l-18.758 18.749c-17.961 17.97-45.267 20.66-66.398 6.55-29.029-19.4-57.17-42.65-83.623-69.11-26.457-26.449-49.707-54.59-69.106-83.619-14.111-21.131-11.422-48.44 6.548-66.41l18.749-18.75c6.133-6.14 9.511-14.321 9.511-23.051 0-8.718-3.378-16.909-9.511-23.04l-55.378-55.378c-6.133-6.133-14.309-9.511-23.042-9.511-8.732 0-16.908 3.378-23.051 9.511l-7.996 7.997c-42.734 42.731-50.363 99.492-22.693 168.681 28.76 71.921 87.109 134.92 110.859 158.671 23.763 23.758 86.765 82.098 158.683 110.868 69.191 27.671 125.951 20.041 168.68-22.699zm-41.243-115.61c-20.499-20.51-53.872-20.51-74.371 0l-18.758 18.749c-11.129 11.141-28.052 12.81-41.148 4.062-27.953-18.681-55.061-41.091-80.594-66.62-25.528-25.53-47.937-52.651-66.615-80.592-8.752-13.099-7.082-30.018 4.057-41.149l18.749-18.759c9.912-9.911 15.37-23.121 15.37-37.191 0-14.068-5.458-27.269-15.37-37.179l-55.369-55.383c-9.921-9.907-23.122-15.366-37.19-15.366s-27.278 5.459-37.19 15.366l-8.001 8.001c-25.99 25.991-40.837 56.911-44.121 91.9-2.808 30.021 2.91 63.101 17.002 98.352 30.142 75.35 90.671 140.76 115.289 165.39 24.631 24.619 90.029 85.148 165.391 115.289 29.42 11.771 57.34 17.701 83.226 17.701 5.124 0 10.162-.241 15.125-.7 34.987-3.28 65.908-18.13 91.898-44.12l8.001-8c9.907-9.909 15.366-23.119 15.366-37.19 0-14.07-5.458-27.271-15.366-37.191z"/></g></svg>