<svg id="Layer_1" enable-background="new 0 0 512 512" height="512" viewBox="0 0 512 512" width="512" xmlns="http://www.w3.org/2000/svg"><g clip-rule="evenodd" fill-rule="evenodd"><path d="m429.21 10.001h62.79c5.508 0 10 4.492 10 10v472c0 5.508-4.492 10-10 10h-62.79c-5.508 0-10-4.492-10-10v-472c0-5.508 4.492-10 10-10zm-409.21 296.389h62.79c5.508 0 10 4.492 10 10v175.612c0 5.508-4.492 10-10 10h-62.79c-5.508 0-10-4.492-10-10v-175.613c0-5.507 4.492-9.999 10-9.999zm136.403-98.796h62.79c5.508 0 10 4.492 10 10v274.408c0 5.508-4.492 10-10 10-20.93 0-41.86 0-62.79 0-5.508 0-10-4.492-10-10 0-91.469 0-182.939 0-274.408 0-5.508 4.492-10 10-10zm136.403-98.796h62.79c5.508 0 10 4.492 10 10v373.204c0 5.508-4.492 10-10 10-20.93 0-41.86 0-62.79 0-5.508 0-10-4.492-10-10 0-124.402 0-248.803 0-373.204 0-5.508 4.492-10 10-10z" fill="#515151"/><path d="m355.602 492h-62.794v-373.2h62.794zm9.997-393.2h-82.788c-5.534 0-10.001 4.471-10.001 10v393.2c0 5.521 4.468 10.001 10.001 10.001h82.788c5.52 0 10.002-4.48 10.002-10.001v-393.2c-.001-5.529-4.483-10-10.002-10zm-146.412 393.2h-62.789v-274.41h62.789zm10.002-294.411h-82.788c-5.52 0-10.002 4.48-10.002 10.001v294.409c0 5.521 4.482 10.001 10.002 10.001h82.788c5.529 0 10.001-4.48 10.001-10.001v-294.408c0-5.521-4.472-10.002-10.001-10.002zm262.809 294.411h-62.789v-471.999h62.789zm10.002-491.998h-82.793c-5.52 0-9.997 4.477-9.997 9.997v492c0 5.521 4.477 10.001 9.997 10.001h82.793c5.52 0 10.002-4.48 10.002-10.001v-491.999c-.001-5.52-4.483-9.998-10.002-9.998zm-419.209 491.998h-62.794v-175.611h62.794zm9.997-195.609h-82.788c-5.52 0-10.002 4.48-10.002 9.999v195.61c0 5.521 4.482 10.001 10.002 10.001h82.788c5.524 0 10.002-4.48 10.002-10.001v-195.61c-.001-5.52-4.478-9.999-10.002-9.999z"/></g></svg>