<svg id="Layer_1" enable-background="new 0 0 512 512" height="512" viewBox="0 0 512 512" width="512" xmlns="http://www.w3.org/2000/svg"><g><g><g><ellipse clip-rule="evenodd" cx="373.205" cy="138.799" fill="#eb745e" fill-rule="evenodd" rx="128.797" ry="128.797" transform="matrix(.707 -.707 .707 .707 11.164 304.549)"/></g><g clip-rule="evenodd" fill-rule="evenodd"><path d="m458.079 455.385-7.472 7.472c-96.81 96.81-243.989-7.291-319.079-82.381s-179.19-222.269-82.381-319.079l7.473-7.473c15.499-15.498 40.78-15.499 56.279 0l51.742 51.742c15.498 15.498 15.498 40.78 0 56.278l-17.524 17.524c-13.561 13.561-15.604 34.301-4.95 50.248 17.262 25.835 38.563 51.876 63.404 76.716 24.841 24.841 50.882 46.143 76.718 63.405 15.946 10.655 36.686 8.611 50.247-4.95l17.524-17.524c15.499-15.499 40.78-15.499 56.279 0l51.742 51.742c15.497 15.499 15.497 40.781-.002 56.28z" fill="#e6e6e6" stroke="#e6e6e6" stroke-miterlimit="22.926" stroke-width=".216"/><path d="m282.288 369.838c-25.835-17.261-51.876-38.563-76.717-63.404-24.842-24.841-46.142-50.881-63.404-76.716-10.655-15.947-8.612-36.687 4.95-50.248l17.524-17.525c.832-.832 1.62-1.693 2.361-2.581l-107.804-107.802c-.886.743-1.746 1.531-2.579 2.363l-7.473 7.473c-96.81 96.809 7.291 243.988 82.381 319.078s222.269 179.191 319.079 82.381l7.473-7.472c.832-.832 1.62-1.693 2.361-2.581l-107.802-107.802c-.886.743-1.746 1.531-2.579 2.363l-17.525 17.524c-13.56 13.561-34.3 15.604-50.246 4.949z" fill="#92d2fe"/></g></g><path clip-rule="evenodd" d="m373.198 20.001c65.512 0 118.799 53.289 118.799 118.799 0 65.5-53.287 118.791-118.799 118.791-65.501 0-118.789-53.291-118.789-118.791 0-65.51 53.288-118.799 118.789-118.799zm0 257.588c76.542 0 138.802-62.258 138.802-138.789 0-76.539-62.26-138.798-138.802-138.798-76.532 0-138.788 62.258-138.788 138.798 0 76.531 62.257 138.789 138.788 138.789zm-61.378-91.549c-3.911 3.911-3.911 10.239 0 14.141 1.949 1.959 4.51 2.93 7.067 2.93 2.562 0 5.123-.971 7.072-2.93l47.239-47.241 47.254 47.241c1.948 1.959 4.505 2.93 7.067 2.93s5.119-.971 7.067-2.93c3.902-3.901 3.902-10.23 0-14.141l-47.235-47.24 47.235-47.25c3.902-3.899 3.902-10.23 0-14.14-3.906-3.9-10.238-3.9-14.134 0l-47.254 47.24-47.239-47.24c-3.911-3.9-10.242-3.9-14.139 0-3.911 3.91-3.911 10.241 0 14.14l47.239 47.25zm139.189 262.27c5.6-5.6 8.69-13.09 8.69-21.07 0-7.982-3.09-15.46-8.69-21.06l-51.74-51.75c-11.62-11.61-30.519-11.61-42.139 0l-17.531 17.53c-17.007 17.01-42.861 19.56-62.869 6.19-27.16-18.151-53.481-39.901-78.23-64.651-24.75-24.75-46.499-51.07-64.648-78.231-13.37-20.008-10.823-45.858 6.19-62.87l17.527-17.529c11.611-11.62 11.611-30.52 0-42.139l-51.749-51.741c-5.6-5.599-13.087-8.689-21.06-8.689-7.978 0-15.47 3.091-21.07 8.689l-7.478 7.48c-39.719 39.72-46.81 92.511-21.051 156.9 26.83 67.081 81.268 125.871 103.437 148.03 22.164 22.172 80.953 76.611 148.03 103.441 64.393 25.749 117.18 18.67 156.899-21.061zm14.139-56.28-51.74-51.741c-19.418-19.409-51.009-19.409-70.418 0l-17.531 17.53c-10.181 10.18-25.651 11.701-37.62 3.701-26.07-17.419-51.381-38.33-75.201-62.161-23.83-23.829-44.739-49.129-62.157-75.199-8.001-11.969-6.482-27.44 3.699-37.621l17.531-17.53c19.409-19.409 19.409-51 0-70.42l-51.74-51.739c-9.393-9.379-21.89-14.55-35.214-14.55-13.328 0-25.83 5.171-35.218 14.55l-7.473 7.469c-24.395 24.401-38.327 53.432-41.408 86.281-2.637 28.15 2.722 59.161 15.932 92.19 28.198 70.529 84.83 131.72 107.858 154.76 23.042 23.029 84.231 79.659 154.762 107.859 27.566 11.032 53.726 16.591 77.999 16.591 4.808 0 9.539-.221 14.191-.662 32.85-3.079 61.879-17.01 86.279-41.41l7.468-7.48c9.379-9.378 14.55-21.879 14.55-35.209.001-13.318-5.17-25.819-14.549-35.209z" fill-rule="evenodd"/></g></svg>