<svg id="Layer_1" enable-background="new 0 0 512 512" height="512" viewBox="0 0 512 512" width="512" xmlns="http://www.w3.org/2000/svg"><g clip-rule="evenodd" fill-rule="evenodd"><g><path d="m489.563 452.057-7.998 7.998c-103.612 103.612-261.133-7.804-341.499-88.17-80.365-80.366-191.78-237.886-88.168-341.499l7.998-7.998c16.588-16.587 43.646-16.587 60.233 0l55.377 55.377c16.587 16.588 16.587 43.646 0 60.233l-18.756 18.756c-14.514 14.514-16.701 36.711-5.298 53.778 18.475 27.65 41.272 55.521 67.859 82.107 26.587 26.587 54.458 49.385 82.108 67.859 17.067 11.403 39.264 9.217 53.778-5.297l18.756-18.756c16.587-16.587 43.645-16.587 60.233 0l55.377 55.377c16.588 16.589 16.588 43.647 0 60.235z" fill="#e6e6e6" stroke="#e6e6e6" stroke-miterlimit="22.926" stroke-width=".216"/><path d="m301.42 360.499c-27.651-18.474-55.521-41.273-82.108-67.859-26.587-26.587-49.384-54.456-67.859-82.107-11.403-17.067-9.217-39.265 5.297-53.778l18.756-18.756c.891-.891 1.734-1.812 2.527-2.762l-115.378-115.377c-.948.795-1.869 1.638-2.76 2.529l-7.998 7.998c-103.612 103.612 7.803 261.132 88.169 341.498s237.886 191.782 341.499 88.169l7.998-7.997c.891-.891 1.734-1.812 2.526-2.762l-115.376-115.377c-.948.795-1.869 1.638-2.76 2.529l-18.756 18.756c-14.514 14.513-36.711 16.699-53.777 5.296z" fill="#92d2fe"/></g><path d="m482.495 445.04-8.02 7.99c-42.716 42.74-99.475 50.37-168.666 22.699-71.918-28.77-134.929-87.11-158.678-110.868-23.75-23.751-82.099-86.75-110.864-158.671-27.67-69.189-20.037-125.95 22.693-168.681l8.001-7.997c6.36-6.35 14.701-9.535 23.046-9.535 8.341 0 16.691 3.185 23.042 9.535l55.378 55.378c12.714 12.71 12.714 33.38 0 46.09l-18.758 18.75c-17.961 17.97-20.65 45.279-6.539 66.41 19.399 29.029 42.649 57.17 69.111 83.619 26.448 26.46 54.59 49.71 83.618 69.11 21.131 14.111 48.442 11.421 66.403-6.55l18.758-18.749c6.128-6.129 14.318-9.51 23.051-9.51 8.719 0 16.909 3.38 23.037 9.51l55.387 55.38c12.69 12.7 12.69 33.381 0 46.09zm14.153-60.241-55.396-55.369c-9.912-9.909-23.122-15.37-37.181-15.37-14.073 0-27.283 5.46-37.19 15.37l-18.763 18.749c-11.129 11.141-28.047 12.801-41.148 4.062-27.953-18.681-55.061-41.091-80.589-66.62-25.533-25.53-47.942-52.651-66.62-80.592-8.752-13.099-7.082-30.018 4.057-41.149l18.753-18.759c9.907-9.911 15.366-23.121 15.366-37.191 0-14.068-5.459-27.269-15.366-37.179l-55.373-55.382c-20.508-20.508-53.868-20.508-74.381 0l-7.997 8.001c-25.99 25.991-40.842 56.911-44.121 91.9-2.812 30.02 2.906 63.101 16.998 98.351 30.142 75.35 90.671 140.76 115.294 165.39 24.627 24.619 90.025 85.148 165.387 115.289 29.42 11.771 57.34 17.701 83.231 17.701 5.119 0 10.162-.241 15.121-.7 34.992-3.28 65.903-18.13 91.898-44.12l8.02-8c20.475-20.511 20.475-53.87 0-74.382zm-205.96-203.239c-15.828 0-28.698 12.88-28.698 28.699 0 15.822 12.87 28.69 28.698 28.69 7.671 0 14.88-2.989 20.301-8.409 5.421-5.421 8.398-12.62 8.398-20.281v-.239c-.128-15.711-12.946-28.46-28.699-28.46zm142.6 16.66c15.852 0 28.731-12.869 28.731-28.69 0-15.819-12.88-28.699-28.731-28.699-15.819 0-28.698 12.88-28.698 28.699 0 15.821 12.879 28.69 28.698 28.69zm-142.6 60.73c13.012 0 25.24-5.069 34.44-14.26 9.162-9.159 14.219-21.33 14.262-34.27 0-.059 0-.109 0-.16 0-.109 0-.21 0-.319v-151.67l122.63-35.01v106.949c-8.067-5.89-17.999-9.38-28.731-9.38-26.849 0-48.702 21.851-48.702 48.7 0 26.84 21.853 48.691 48.702 48.691 26.844 0 48.735-21.851 48.735-48.691v-159.53c0-3.137-1.509-6.091-4.01-7.978-2.5-1.892-5.756-2.5-8.775-1.642l-142.592 40.73c-4.298 1.231-7.261 5.151-7.261 9.62v120.21c-8.048-5.89-17.979-9.38-28.698-9.38-26.858 0-48.697 21.851-48.697 48.7 0 26.841 21.839 48.69 48.697 48.69z"/></g></svg>