<svg id="Layer_1" enable-background="new 0 0 512 512" height="512" viewBox="0 0 512 512" width="512" xmlns="http://www.w3.org/2000/svg"><g clip-rule="evenodd" fill-rule="evenodd"><g><path d="m429.197 10.001h62.79c5.508 0 10 4.492 10 10v472c0 5.508-4.492 10-10 10h-62.79c-5.508 0-10-4.492-10-10v-472c.001-5.508 4.493-10 10-10zm-409.21 296.389h62.79c5.508 0 10 4.492 10 10v175.612c0 5.508-4.492 10-10 10h-62.79c-5.508 0-10-4.492-10-10v-175.613c.001-5.507 4.493-9.999 10-9.999zm136.404-98.796h62.79c5.508 0 10 4.492 10 10v274.408c0 5.508-4.492 10-10 10-20.93 0-41.86 0-62.79 0-5.508 0-10-4.492-10-10 0-91.469 0-182.939 0-274.408 0-5.508 4.492-10 10-10zm136.403-98.796h62.79c5.508 0 10 4.492 10 10v373.204c0 5.508-4.492 10-10 10-20.93 0-41.86 0-62.79 0-5.508 0-10-4.492-10-10 0-124.402 0-248.803 0-373.204 0-5.508 4.492-10 10-10z" fill="#515151"/><ellipse cx="93.682" cy="93.695" fill="#eb745e" rx="83.694" ry="83.694" transform="matrix(.055 -.999 .999 .055 -5.051 182.052)"/></g><path d="m93.672 20.001c40.667 0 73.739 33.058 73.739 73.688 0 40.641-33.072 73.701-73.739 73.701-40.62 0-73.692-33.059-73.692-73.701 0-40.63 33.072-73.688 73.692-73.688zm0 167.388c51.707 0 93.695-42.029 93.695-93.7 0-51.66-41.988-93.687-93.695-93.687-51.66 0-93.695 42.027-93.695 93.687 0 51.671 42.035 93.7 93.695 93.7zm-42.366-65.469c-3.869 3.9-3.869 10.23 0 14.139 1.981 1.952 4.529 2.93 7.077 2.93 2.595 0 5.142-.979 7.077-2.93l28.212-28.218 28.259 28.218c1.934 1.952 4.482 2.93 7.077 2.93 2.548 0 5.095-.979 7.03-2.93 3.916-3.909 3.916-10.239 0-14.139l-28.212-28.231 28.212-28.22c3.916-3.909 3.916-10.239 0-14.139-3.869-3.911-10.238-3.911-14.106 0l-28.259 28.22-28.213-28.219c-3.916-3.911-10.238-3.911-14.153 0-3.869 3.9-3.869 10.23 0 14.139l28.259 28.22zm167.906 370.08h-62.794v-274.41h62.794zm9.955-294.411h-82.75c-5.52 0-10.002 4.48-10.002 10.001v294.409c0 5.521 4.482 10.001 10.002 10.001h82.75c5.567 0 10.002-4.48 10.002-10.001v-294.408c0-5.521-4.435-10.002-10.002-10.002zm126.437 294.411h-62.794v-373.2h62.794zm10.001-393.2h-82.797c-5.52 0-10.002 4.471-10.002 10v393.2c0 5.521 4.482 10.001 10.002 10.001h82.797c5.52 0 10.002-4.48 10.002-10.001v-393.2c0-5.529-4.482-10-10.002-10zm-282.831 393.2h-62.794v-175.611h62.794zm10.002-195.609h-82.798c-5.52 0-10.002 4.48-10.002 9.999v195.61c0 5.521 4.482 10.001 10.002 10.001h82.797c5.52 0 10.002-4.48 10.002-10.001v-195.61c0-5.52-4.482-9.999-10.001-9.999zm399.219 195.609h-62.794v-471.999h62.794zm10.002-491.998h-82.797c-5.52 0-10.002 4.477-10.002 9.997v492c0 5.521 4.482 10.001 10.002 10.001h82.797c5.52 0 10.002-4.48 10.002-10.001v-491.999c-.001-5.52-4.483-9.998-10.002-9.998z"/></g></svg>