<svg id="Layer_1" enable-background="new 0 0 512 512" height="512" viewBox="0 0 512 512" width="512" xmlns="http://www.w3.org/2000/svg"><g><g><g><path clip-rule="evenodd" d="m274.05 40.002h217.958c5.508 0 10 4.492 10 10v151.906c0 5.508-4.492 10-10 10h-217.958c-5.508 0-10-4.492-10-10v-151.906c.001-5.508 4.493-10 10-10z" fill="#eb745e" fill-rule="evenodd"/></g><g clip-rule="evenodd" fill-rule="evenodd"><path d="m489.567 452.11-7.998 7.998c-103.612 103.612-261.133-7.804-341.499-88.17-80.365-80.366-191.78-237.886-88.168-341.498l7.998-7.998c16.588-16.588 43.646-16.588 60.233 0l55.377 55.378c16.588 16.588 16.587 43.646 0 60.233l-18.756 18.756c-14.514 14.514-16.701 36.711-5.298 53.778 18.475 27.65 41.272 55.521 67.859 82.107 26.587 26.587 54.458 49.385 82.108 67.859 17.067 11.403 39.264 9.217 53.778-5.297l18.756-18.756c16.587-16.587 43.645-16.587 60.233 0l55.377 55.377c16.588 16.588 16.588 43.646 0 60.233z" fill="#e6e6e6" stroke="#e6e6e6" stroke-miterlimit="22.926" stroke-width=".216"/><path d="m301.423 360.553c-27.651-18.475-55.521-41.273-82.108-67.859-26.587-26.587-49.384-54.456-67.859-82.107-11.403-17.067-9.217-39.265 5.297-53.778l18.756-18.756c.891-.891 1.734-1.812 2.527-2.762l-115.377-115.378c-.948.795-1.869 1.638-2.76 2.529l-7.998 7.998c-103.612 103.612 7.803 261.132 88.169 341.498s237.886 191.782 341.499 88.169l7.998-7.997c.891-.891 1.734-1.812 2.526-2.762l-115.376-115.377c-.948.795-1.869 1.638-2.76 2.529l-18.756 18.756c-14.514 14.514-36.711 16.7-53.778 5.297z" fill="#92d2fe"/></g></g><path clip-rule="evenodd" d="m482.474 445.04-7.973 7.99c-42.743 42.74-99.498 50.37-168.708 22.699-71.899-28.77-134.929-87.11-158.659-110.868-23.778-23.751-82.09-86.75-110.868-158.671-27.647-69.189-20.051-125.95 22.692-168.681l8.02-7.997c6.133-6.133 14.295-9.511 23.023-9.511s16.937 3.378 23.07 9.511l55.34 55.378c12.738 12.71 12.738 33.38 0 46.09l-18.73 18.75c-17.975 17.97-20.664 45.279-6.558 66.41 19.39 29.029 42.649 57.17 69.115 83.619 26.467 26.46 54.585 49.71 83.599 69.11 21.136 14.111 48.452 11.421 66.426-6.55l18.777-18.749c12.691-12.711 33.355-12.711 46.046 0l55.387 55.38c12.739 12.7 12.739 33.381.001 46.09zm29.533-22.073v-1.954c-.242-13.14-5.367-26.207-15.38-36.215l-55.387-55.368c-9.907-9.92-23.117-15.37-37.176-15.37s-27.269 5.45-37.176 15.37l-18.777 18.749c-11.134 11.141-28.024 12.801-41.139 4.062-27.976-18.681-55.056-41.091-80.58-66.62-25.523-25.53-47.933-52.651-66.615-80.592-8.775-13.099-7.077-30.018 4.057-41.149l18.73-18.759c9.907-9.911 15.38-23.121 15.38-37.191 0-14.068-5.473-27.269-15.38-37.179l-55.387-55.382c-9.907-9.908-23.117-15.367-37.176-15.367s-27.269 5.459-37.176 15.366l-8.02 8.001c-25.996 25.992-40.81 56.912-44.112 91.901-2.783 30.02 2.925 63.101 16.984 98.351 30.147 75.35 90.676 140.76 115.303 165.39 24.627 24.619 90.015 85.148 165.406 115.289 29.392 11.771 57.321 17.701 83.222 17.701 5.143 0 10.143-.241 15.144-.7 34.959-3.28 65.908-18.13 91.855-44.12l8.02-8c10.013-10.008 15.138-23.074 15.38-36.214zm-178.804-311.956c-10.426 0-18.871 8.47-18.871 18.879 0 10.41 8.445 18.88 18.871 18.88s18.871-8.47 18.871-18.88-8.445-18.879-18.871-18.879zm99.64 0c-10.426 0-18.871 8.47-18.871 18.879 0 10.41 8.445 18.88 18.871 18.88 10.379 0 18.871-8.47 18.871-18.88s-8.492-18.879-18.871-18.879zm-99.64 53.759c19.249 0 34.865-15.65 34.865-34.88 0-6.95-2.029-13.429-5.52-18.879h40.95c-3.491 5.449-5.567 11.929-5.567 18.879 0 19.23 15.663 34.88 34.912 34.88 19.201 0 34.865-15.65 34.865-34.88 0-19.229-15.663-34.879-34.865-34.879h-99.64c-19.249 0-34.864 15.65-34.864 34.879 0 19.23 15.615 34.88 34.864 34.88zm-61.143-114.77v151.909c0 1.08.896 2.001 1.981 2.001h217.962c1.085 0 1.981-.922 1.981-2.001v-151.909c0-1.08-.896-1.999-1.981-1.999h-217.961c-1.085 0-1.982.919-1.982 1.999zm1.982 169.91h217.962c9.907 0 17.975-8.081 17.975-18.001v-151.909c0-9.92-8.067-18.002-17.975-18.002h-217.962c-9.907 0-18.022 8.082-18.022 18.002v151.909c0 9.921 8.114 18.001 18.022 18.001z" fill-rule="evenodd"/></g></svg>